<svg width="50" height="50" viewBox="0 0 50 50" fill="none" xmlns="http://www.w3.org/2000/svg">
<g clip-path="url(#clip0_6904_27638)">
<path d="M17.7461 35.8215C17.6755 35.8014 17.6032 35.7901 17.5305 35.7862C18.6002 34.6619 19.259 33.143 19.259 31.4723V26.3345C19.259 26.2876 19.2545 26.2418 19.2481 26.1966C19.2546 26.1039 19.259 26.0105 19.259 25.9162V22.6656C19.259 22.1262 18.8218 21.689 18.2824 21.689H11.7323C8.97402 21.689 6.73008 23.9331 6.73008 26.6913V31.4723C6.73008 33.143 7.38877 34.6619 8.45859 35.7862C8.38594 35.7901 8.31367 35.8014 8.24316 35.8215C3.62822 36.2394 0 40.1292 0 44.851V49.0233C0 49.5627 0.437207 49.9999 0.976562 49.9999H25.0124C25.5518 49.9999 25.989 49.5627 25.989 49.0233V44.851C25.989 40.1293 22.3609 36.2395 17.7461 35.8215ZM8.6832 27.9297V26.6912C8.6832 25.0099 10.0511 23.6421 11.7323 23.6421H17.3059V25.9161C17.3059 27.0609 16.3745 27.9922 15.2297 27.9922H8.6832V27.9297ZM8.6832 29.9454H15.2297C15.9887 29.9454 16.6991 29.7342 17.3059 29.3678V31.4722C17.3059 33.8495 15.3718 35.7836 12.9945 35.7836C10.6173 35.7836 8.6832 33.8495 8.6832 31.4722V29.9454ZM15.12 37.7368L12.9945 39.8624L10.869 37.7368H15.12ZM24.0359 48.0467H1.95312V46.0936H6.00586C6.54521 46.0936 6.98242 45.6564 6.98242 45.1171C6.98242 44.5777 6.54521 44.1405 6.00586 44.1405H1.98877C2.3168 40.8479 4.89951 38.2111 8.16602 37.7959L12.304 41.9338C12.4871 42.117 12.7355 42.2199 12.9945 42.2199C13.2535 42.2199 13.502 42.117 13.6851 41.9338L17.823 37.7959C21.3215 38.2405 24.0359 41.2338 24.0359 44.851V48.0467Z" fill="#00730C"/>
<path d="M41.7574 14.1326C41.6868 14.1125 41.6144 14.1012 41.5416 14.0973C42.6113 12.9729 43.27 11.4541 43.27 9.7834V4.64551C43.27 4.59854 43.2655 4.55273 43.2591 4.50762C43.2656 4.41484 43.27 4.32148 43.27 4.22715V0.976562C43.27 0.437207 42.8328 0 42.2934 0H35.7433C32.985 0 30.7411 2.24404 30.7411 5.00225V9.7833C30.7411 11.454 31.3998 12.9729 32.4695 14.0972C32.3967 14.1011 32.3243 14.1124 32.2537 14.1325C27.6389 14.5506 24.011 18.4403 24.011 23.162V27.3342C24.011 27.8735 24.4482 28.3107 24.9875 28.3107H32.845C33.3843 28.3107 33.8215 27.8735 33.8215 27.3342C33.8215 26.7948 33.3843 26.3576 32.845 26.3576H25.9641V23.1621C25.9641 19.5448 28.6785 16.5516 32.1769 16.1069L36.3149 20.2449C36.5056 20.4356 36.7555 20.531 37.0054 20.531C37.2553 20.531 37.5053 20.4356 37.696 20.2449L41.8339 16.1069C45.3326 16.5517 48.0469 19.5448 48.0469 23.1621V26.3577H40.8529C40.3135 26.3577 39.8763 26.7949 39.8763 27.3343C39.8763 27.8736 40.3135 28.3108 40.8529 28.3108H49.0235C49.5629 28.3108 50.0001 27.8736 50.0001 27.3343V23.1621C50.0001 18.4404 46.372 14.5507 41.7574 14.1326ZM37.0056 18.1733L34.8801 16.0479H39.1311L37.0056 18.1733ZM41.3169 9.7833C41.3169 12.1605 39.3829 14.0946 37.0056 14.0946C34.6284 14.0946 32.6943 12.1606 32.6943 9.7834V8.25644H39.2408C39.9998 8.25644 40.7102 8.04522 41.3169 7.67891V9.7833ZM41.3169 4.22715C41.3169 5.37197 40.3856 6.30332 39.2408 6.30332H32.6943V6.24072V5.00225C32.6943 3.321 34.0622 1.95312 35.7434 1.95312H41.3169V4.22715Z" fill="#00730C"/>
<path d="M37.6963 26.6436C37.5146 26.462 37.2627 26.3575 37.0059 26.3575C36.748 26.3575 36.4971 26.462 36.3154 26.6436C36.1328 26.8253 36.0293 27.0772 36.0293 27.3341C36.0293 27.5919 36.1328 27.8429 36.3154 28.0245C36.4971 28.2071 36.748 28.3106 37.0059 28.3106C37.2627 28.3106 37.5146 28.2071 37.6963 28.0245C37.8779 27.8429 37.9824 27.5919 37.9824 27.3341C37.9824 27.0772 37.8779 26.8253 37.6963 26.6436Z" fill="#00730C"/>
<path d="M26.1138 13.6649L22.0297 9.58086V4.88281C22.0297 2.19043 19.8393 0 17.1469 0H4.88281C2.19043 0 0 2.19043 0 4.88281V13.4766C0 16.1689 2.19043 18.3594 4.88281 18.3594H17.1468C19.1657 18.3594 20.9263 17.1478 21.6649 15.332H25.4231C25.8181 15.332 26.1742 15.094 26.3254 14.7292C26.4766 14.3644 26.393 13.9442 26.1138 13.6649ZM20.9525 13.3789C20.4976 13.3789 20.1028 13.6931 20.0008 14.1365C19.6934 15.4729 18.5198 16.4062 17.1468 16.4062H4.88281C3.26738 16.4062 1.95312 15.092 1.95312 13.4766V4.88281C1.95312 3.26738 3.26738 1.95312 4.88281 1.95312H17.1468C18.7622 1.95312 20.0765 3.26738 20.0765 4.88281V9.98535C20.0765 10.2443 20.1794 10.4928 20.3625 10.6759L23.0655 13.3789H20.9525Z" fill="#00730C"/>
<path d="M45.1171 31.6406H32.8531C30.8341 31.6406 29.0736 32.8522 28.3349 34.668H24.5767C24.1818 34.668 23.8256 34.906 23.6745 35.2708C23.5233 35.6356 23.6069 36.0558 23.8861 36.3351L27.9702 40.4191V45.1172C27.9702 47.8096 30.1606 50 32.853 50H45.1171C47.8094 50 49.9999 47.8096 49.9999 45.1172V36.5234C49.9999 33.8311 47.8094 31.6406 45.1171 31.6406ZM48.0467 45.1172C48.0467 46.7326 46.7325 48.0469 45.1171 48.0469H32.8531C31.2377 48.0469 29.9234 46.7326 29.9234 45.1172V40.0146C29.9234 39.7557 29.8205 39.5072 29.6374 39.3241L26.9343 36.6211H29.0473C29.5023 36.6211 29.897 36.3069 29.9991 35.8635C30.3065 34.5271 31.48 33.5938 32.8531 33.5938H45.1171C46.7325 33.5938 48.0467 34.908 48.0467 36.5234V45.1172Z" fill="#00730C"/>
<path d="M43.3747 38.2217C42.9934 37.8404 42.3751 37.8404 41.9937 38.2217L39.3977 40.8177L38.1906 39.6106C37.8093 39.2293 37.1909 39.2293 36.8094 39.6106C36.4281 39.992 36.4281 40.6103 36.8094 40.9918L38.7071 42.8894C38.8978 43.0801 39.1477 43.1755 39.3976 43.1755C39.6475 43.1755 39.8975 43.0801 40.0882 42.8894L43.3747 39.6029C43.756 39.2215 43.756 38.6032 43.3747 38.2217Z" fill="#00730C"/>
<path d="M15.4545 6.47139C15.3391 4.79687 13.9893 3.44707 12.3147 3.33164C11.3652 3.26631 10.4602 3.58662 9.7668 4.23389C9.08311 4.87207 8.69092 5.77441 8.69092 6.70938C8.69102 7.24883 9.12822 7.68604 9.66758 7.68604C10.2069 7.68604 10.6441 7.24883 10.6441 6.70947C10.6441 6.30801 10.8059 5.93594 11.0996 5.66172C11.3929 5.38789 11.7772 5.25195 12.1806 5.28027C12.8875 5.329 13.4573 5.89883 13.5061 6.60576C13.5554 7.32051 13.0868 7.95215 12.392 8.10762C11.6314 8.27773 11.1003 8.93896 11.1003 9.71553V10.2365C11.1003 10.7759 11.5375 11.2131 12.0769 11.2131C12.6162 11.2131 13.0534 10.7759 13.0534 10.2365V9.95234C14.5665 9.50098 15.565 8.07451 15.4545 6.47139Z" fill="#00730C"/>
<path d="M12.7676 13.2833C12.5859 13.1017 12.334 12.9972 12.0771 12.9972C11.8193 12.9972 11.5684 13.1017 11.3867 13.2833C11.2041 13.4649 11.1006 13.7169 11.1006 13.9737C11.1006 14.2306 11.2041 14.4825 11.3867 14.6642C11.5684 14.8458 11.8193 14.9503 12.0771 14.9503C12.334 14.9503 12.5859 14.8458 12.7676 14.6642C12.9492 14.4825 13.0537 14.2306 13.0537 13.9737C13.0537 13.7169 12.9492 13.4649 12.7676 13.2833Z" fill="#00730C"/>
<path d="M10.6025 44.4268C10.4209 44.2451 10.1689 44.1406 9.91211 44.1406C9.65527 44.1406 9.40332 44.2451 9.22168 44.4268C9.04004 44.6084 8.93555 44.8604 8.93555 45.1172C8.93555 45.374 9.04004 45.626 9.22168 45.8076C9.40332 45.9893 9.65527 46.0938 9.91211 46.0938C10.1689 46.0938 10.4209 45.9893 10.6025 45.8076C10.7842 45.626 10.8887 45.374 10.8887 45.1172C10.8887 44.8604 10.7842 44.6084 10.6025 44.4268Z" fill="#00730C"/>
</g>
<defs>
<clipPath id="clip0_6904_27638">
<rect width="50" height="50" fill="white"/>
</clipPath>
</defs>
</svg>
