<svg width="70" height="70" viewBox="0 0 70 70" fill="none" xmlns="http://www.w3.org/2000/svg">
<g clip-path="url(#clip0_673_47684)">
<path d="M24.8445 50.15C24.7457 50.1219 24.6445 50.106 24.5427 50.1005C26.0403 48.5265 26.9626 46.4001 26.9626 44.0611V36.8682C26.9626 36.8025 26.9563 36.7383 26.9474 36.6752C26.9564 36.5453 26.9626 36.4146 26.9626 36.2825V31.7317C26.9626 30.9766 26.3505 30.3645 25.5954 30.3645H16.4253C12.5636 30.3645 9.42211 33.5062 9.42211 37.3676V44.0611C9.42211 46.4001 10.3443 48.5265 11.842 50.1005C11.7403 50.106 11.6391 50.1219 11.5404 50.15C5.07951 50.735 0 56.1807 0 62.7913V68.6325C0 69.3876 0.61209 69.9997 1.36719 69.9997H35.0174C35.7725 69.9997 36.3846 69.3876 36.3846 68.6325V62.7913C36.3846 56.1808 31.3053 50.7352 24.8445 50.15ZM12.1565 39.1014V37.3675C12.1565 35.0138 14.0715 33.0987 16.4253 33.0987H24.2282V36.2824C24.2282 37.8851 22.9243 39.189 21.3216 39.189H12.1565V39.1014ZM12.1565 41.9234H21.3216C22.3841 41.9234 23.3788 41.6278 24.2282 41.1148V44.061C24.2282 47.3891 21.5205 50.0968 18.1923 50.0968C14.8642 50.0968 12.1565 47.3891 12.1565 44.061V41.9234ZM21.168 52.8314L18.1923 55.8072L15.2167 52.8314H21.168ZM33.6503 67.2653H2.73438V64.5309H8.4082C9.1633 64.5309 9.77539 63.9188 9.77539 63.1637C9.77539 62.4086 9.1633 61.7966 8.4082 61.7966H2.78428C3.24352 57.1869 6.85932 53.4954 11.4324 52.9141L17.2256 58.7073C17.482 58.9636 17.8298 59.1077 18.1923 59.1077C18.5549 59.1077 18.9027 58.9636 19.1591 58.7073L24.9523 52.9141C29.8501 53.5366 33.6503 57.7271 33.6503 62.7913V67.2653Z" fill="white"/>
<path d="M58.4603 19.7857C58.3615 19.7575 58.2601 19.7416 58.1582 19.7362C59.6558 18.1621 60.5779 16.0357 60.5779 13.6968V6.50371C60.5779 6.43795 60.5716 6.37383 60.5628 6.31066C60.5718 6.18078 60.5779 6.05008 60.5779 5.91801V1.36719C60.5779 0.61209 59.9659 0 59.2108 0H50.0406C46.179 0 43.0375 3.14166 43.0375 7.00314V13.6966C43.0375 16.0356 43.9596 18.162 45.4573 19.736C45.3554 19.7415 45.254 19.7574 45.1551 19.7855C38.6945 20.3708 33.6154 25.8165 33.6154 32.4268V38.2679C33.6154 39.0229 34.2274 39.635 34.9825 39.635H45.9829C46.738 39.635 47.3501 39.0229 47.3501 38.2679C47.3501 37.5128 46.738 36.9007 45.9829 36.9007H36.3497V32.427C36.3497 27.3628 40.1498 23.1722 45.0476 22.5497L50.8408 28.3429C51.1078 28.6099 51.4577 28.7433 51.8076 28.7433C52.1574 28.7433 52.5074 28.6099 52.7743 28.3429L58.5675 22.5497C63.4656 23.1723 67.2657 27.3628 67.2657 32.427V36.9008H57.194C56.4389 36.9008 55.8268 37.5129 55.8268 38.268C55.8268 39.0231 56.4389 39.6352 57.194 39.6352H68.6329C69.388 39.6352 70 39.0231 70 38.268V32.427C70 25.8166 64.9208 20.371 58.4603 19.7857ZM51.8078 25.4427L48.8322 22.467H54.7835L51.8078 25.4427ZM57.8437 13.6966C57.8437 17.0248 55.136 19.7325 51.8078 19.7325C48.4797 19.7325 45.772 17.0249 45.772 13.6968V11.559H54.9371C55.9996 11.559 56.9943 11.2633 57.8437 10.7505V13.6966ZM57.8437 5.91801C57.8437 7.52076 56.5398 8.82465 54.9371 8.82465H45.772V8.73701V7.00314C45.772 4.64939 47.687 2.73438 50.0407 2.73438H57.8437V5.91801Z" fill="white"/>
<path d="M52.7748 37.301C52.5205 37.0467 52.1678 36.9004 51.8082 36.9004C51.4473 36.9004 51.0959 37.0467 50.8416 37.301C50.586 37.5553 50.441 37.908 50.441 38.2676C50.441 38.6285 50.586 38.9799 50.8416 39.2342C51.0959 39.4898 51.4473 39.6348 51.8082 39.6348C52.1678 39.6348 52.5205 39.4898 52.7748 39.2342C53.0291 38.9799 53.1754 38.6285 53.1754 38.2676C53.1754 37.908 53.0291 37.5553 52.7748 37.301Z" fill="white"/>
<path d="M36.5593 19.1309L30.8416 13.4132V6.83594C30.8416 3.0666 27.775 0 24.0056 0H6.83594C3.0666 0 0 3.0666 0 6.83594V18.8672C0 22.6365 3.0666 25.7031 6.83594 25.7031H24.0055C26.832 25.7031 29.2968 24.0069 30.3309 21.4648H35.5924C36.1453 21.4648 36.6439 21.1317 36.8555 20.6209C37.0672 20.1101 36.9502 19.5219 36.5593 19.1309ZM29.3336 18.7305C28.6966 18.7305 28.144 19.1703 28.0011 19.7911C27.5707 21.662 25.9278 22.9688 24.0055 22.9688H6.83594C4.57434 22.9688 2.73438 21.1288 2.73438 18.8672V6.83594C2.73438 4.57434 4.57434 2.73438 6.83594 2.73438H24.0055C26.2671 2.73438 28.107 4.57434 28.107 6.83594V13.9795C28.107 14.3421 28.2512 14.6899 28.5075 14.9462L32.2917 18.7305H29.3336Z" fill="white"/>
<path d="M63.164 44.2969H45.9944C43.1679 44.2969 40.7031 45.9931 39.669 48.5352H34.4075C33.8546 48.5352 33.356 48.8683 33.1443 49.3791C32.9327 49.8899 33.0497 50.4781 33.4406 50.8691L39.1583 56.5868V63.1641C39.1583 66.9334 42.2249 70 45.9943 70H63.164C66.9333 70 69.9999 66.9334 69.9999 63.1641V51.1328C69.9999 47.3635 66.9333 44.2969 63.164 44.2969ZM67.2655 63.1641C67.2655 65.4257 65.4256 67.2656 63.164 67.2656H45.9944C43.7328 67.2656 41.8928 65.4257 41.8928 63.1641V56.0205C41.8928 55.6579 41.7487 55.3101 41.4924 55.0538L37.7081 51.2695H40.6663C41.3033 51.2695 41.8559 50.8297 41.9988 50.2089C42.4292 48.338 44.0721 47.0312 45.9944 47.0312H63.164C65.4256 47.0312 67.2655 48.8712 67.2655 51.1328V63.1641Z" fill="white"/>
<path d="M60.7245 53.5103C60.1907 52.9764 59.325 52.9764 58.7911 53.5103L55.1568 57.1447L53.4668 55.4547C52.9329 54.9208 52.0672 54.9208 51.5332 55.4547C50.9993 55.9886 50.9993 56.8543 51.5332 57.3883L54.1899 60.045C54.4569 60.312 54.8068 60.4455 55.1566 60.4455C55.5065 60.4455 55.8565 60.312 56.1234 60.045L60.7245 55.4439C61.2584 54.91 61.2584 54.0443 60.7245 53.5103Z" fill="white"/>
<path d="M21.6362 9.0599C21.4746 6.71559 19.5849 4.82586 17.2405 4.66426C15.9112 4.57279 14.6441 5.02123 13.6734 5.9274C12.7162 6.82086 12.1672 8.08414 12.1672 9.39309C12.1673 10.1483 12.7794 10.7604 13.5345 10.7604C14.2896 10.7604 14.9017 10.1483 14.9017 9.39322C14.9017 8.83117 15.1281 8.31028 15.5393 7.92637C15.9499 7.54301 16.4879 7.3527 17.0527 7.39235C18.0424 7.46057 18.8401 8.25832 18.9084 9.24803C18.9774 10.2487 18.3214 11.133 17.3487 11.3506C16.2839 11.5888 15.5403 12.5145 15.5403 13.6017V14.3311C15.5403 15.0862 16.1524 15.6983 16.9075 15.6983C17.6626 15.6983 18.2747 15.0862 18.2747 14.3311V13.9332C20.393 13.3013 21.791 11.3043 21.6362 9.0599Z" fill="white"/>
<path d="M17.8746 18.5966C17.6203 18.3423 17.2675 18.196 16.908 18.196C16.547 18.196 16.1957 18.3423 15.9414 18.5966C15.6857 18.8509 15.5408 19.2037 15.5408 19.5632C15.5408 19.9228 15.6857 20.2755 15.9414 20.5298C16.1957 20.7841 16.547 20.9304 16.908 20.9304C17.2675 20.9304 17.6203 20.7841 17.8746 20.5298C18.1289 20.2755 18.2751 19.9228 18.2751 19.5632C18.2751 19.2037 18.1289 18.8509 17.8746 18.5966Z" fill="white"/>
<path d="M14.8436 62.1975C14.5893 61.9432 14.2365 61.7969 13.877 61.7969C13.5174 61.7969 13.1646 61.9432 12.9104 62.1975C12.6561 62.4518 12.5098 62.8045 12.5098 63.1641C12.5098 63.5236 12.6561 63.8764 12.9104 64.1307C13.1646 64.385 13.5174 64.5312 13.877 64.5312C14.2365 64.5312 14.5893 64.385 14.8436 64.1307C15.0979 63.8764 15.2441 63.5236 15.2441 63.1641C15.2441 62.8045 15.0979 62.4518 14.8436 62.1975Z" fill="white"/>
</g>
<defs>
<clipPath id="clip0_673_47684">
<rect width="70" height="70" fill="white"/>
</clipPath>
</defs>
</svg>
