<svg width="70" height="70" viewBox="0 0 70 70" fill="none" xmlns="http://www.w3.org/2000/svg">
<g clip-path="url(#clip0_673_47718)">
<path d="M68.9751 65.7857H68.0421C67.5738 60.7351 63.681 56.625 58.6588 55.8954C58.4969 53.6551 57.7375 51.5237 56.4381 49.6828C56.1113 49.2203 55.472 49.1097 55.0095 49.436C54.547 49.7629 54.4365 50.4021 54.7628 50.8646C55.9917 52.6057 56.6411 54.6591 56.6411 56.8039V56.8236C56.6411 57.3657 57.0635 57.8143 57.6051 57.8469C61.9891 58.1091 65.4931 61.5116 65.9812 65.7857H4.01505C4.50317 61.5116 8.00713 58.1091 12.3912 57.8469C12.9327 57.8143 13.3552 57.3657 13.3552 56.8236V56.8039C13.3552 51.1183 17.9807 46.4928 23.6662 46.4928C23.7869 46.4928 23.9071 46.4955 24.0278 46.4998C24.0321 46.4998 24.0363 46.5008 24.0411 46.5008C24.0422 46.5008 24.0433 46.5003 24.0443 46.5003C24.3584 46.5121 24.6697 46.5372 24.9747 46.5772C25.348 46.6263 25.7186 46.4661 25.9397 46.1601C28.1763 43.0556 31.7914 41.2025 35.6104 41.2025C39.3889 41.2025 42.9831 43.0252 45.2245 46.0784C45.4179 46.3412 45.7249 46.4971 46.0513 46.4971C46.1041 46.4971 46.157 46.4955 46.2109 46.4944C46.2515 46.4939 46.2921 46.4928 46.3338 46.4928C48.1554 46.4928 49.9499 46.9767 51.5232 47.8921C52.0124 48.1767 52.6399 48.0112 52.9246 47.522C53.2098 47.0328 53.0437 46.4052 52.5545 46.1201C50.7323 45.06 48.6633 44.4826 46.5565 44.4447C44.6777 42.0804 42.0843 40.403 39.2132 39.6307C39.179 36.4595 38.8762 33.3689 38.3282 30.6468C38.2166 30.0919 37.6762 29.732 37.1213 29.8436C36.5659 29.9557 36.2064 30.4962 36.3186 31.0511C36.8174 33.5323 37.1042 36.3415 37.1576 39.2398C36.646 39.1821 36.1295 39.1522 35.6104 39.1522C31.3348 39.1522 27.2775 41.1336 24.6382 44.481C24.557 44.4746 24.4753 44.4714 24.3936 44.4666C17.1048 39.2638 12.968 33.8394 13.0369 29.5563C13.0721 27.373 14.2022 25.4114 16.3972 23.7126L17.1465 25.0894C17.4306 25.6192 17.9053 26.0048 18.4837 26.1757C18.6952 26.2382 18.9115 26.2691 19.1262 26.2691C19.4931 26.2691 19.8568 26.1789 20.189 26.001C20.1911 26 20.1927 25.9989 20.1949 25.9978L23.0836 24.4272C24.1709 23.8338 24.5731 22.4672 23.9813 21.383L23.2748 20.0842C25.7763 19.2821 27.9633 19.2826 29.7892 20.088C32.0301 21.0765 33.8133 23.2907 35.0892 26.6691C35.2441 27.0793 35.6339 27.3319 36.0484 27.3319C36.1685 27.3319 36.2908 27.3111 36.4104 27.2657C36.9397 27.066 37.2073 26.4742 37.007 25.9444C35.5293 22.0325 33.3791 19.4311 30.6165 18.2123C28.2233 17.1565 25.4222 17.1747 22.2809 18.2572L21.483 16.7901C21.9049 15.3439 21.7436 13.8251 21.028 12.5123L17.0204 5.13701C16.3032 3.81629 15.109 2.85231 13.6591 2.42346C12.2086 1.99408 10.6822 2.15376 9.36043 2.87261C8.03864 3.58985 7.07413 4.78453 6.64474 6.2361C6.2159 7.68714 6.37505 9.21347 7.09229 10.5342L11.0999 17.9058C11.8192 19.2281 13.0145 20.1926 14.4644 20.622C14.5611 20.6509 14.6588 20.6738 14.7565 20.6973L15.406 21.8915C12.5204 24.0261 11.0342 26.5896 10.9872 29.5231C10.8926 35.4031 16.6434 41.0823 21.2518 44.6802C15.877 45.7489 11.7455 50.3135 11.338 55.8954C6.31523 56.625 2.42249 60.7351 1.95412 65.7857H1.02486C0.458756 65.7857 0 66.2449 0 66.8111C0 67.3772 0.458756 67.8359 1.02486 67.8359H68.9751C69.5412 67.8359 70 67.3772 70 66.8111C70 66.2449 69.5412 65.7857 68.9751 65.7857ZM20.3145 18.9328L22.181 22.3641C22.2312 22.4565 22.1949 22.5772 22.1025 22.6274L19.2191 24.1949C19.155 24.2285 19.0958 24.2189 19.0653 24.2098C19.0306 24.1997 18.9836 24.1762 18.951 24.1153L17.1251 20.7603C17.6923 20.6525 18.2445 20.4565 18.7646 20.1734C19.3596 19.8498 19.8808 19.4289 20.3145 18.9328ZM15.0465 18.6561C14.121 18.3822 13.3589 17.7675 12.9012 16.9263L8.8942 9.55527C8.43811 8.7152 8.33717 7.74321 8.61115 6.81769C8.88458 5.89163 9.49821 5.1306 10.3383 4.67452C10.3388 4.67452 10.3394 4.67452 10.3399 4.67398C10.8702 4.38559 11.4534 4.23873 12.0446 4.23873C12.3891 4.23873 12.7367 4.28839 13.078 4.38933C14.003 4.6633 14.7635 5.2764 15.2196 6.11594L19.2277 13.4923C19.6843 14.3303 19.7858 15.3012 19.5123 16.2267C19.4846 16.3202 19.453 16.411 19.4183 16.5012C19.4167 16.506 19.4135 16.5108 19.4114 16.5162C19.4018 16.5413 19.3922 16.568 19.382 16.5941C19.068 17.3541 18.5115 17.9774 17.7852 18.372C17.1155 18.7363 16.3625 18.8735 15.6158 18.7763C15.6009 18.7742 15.5859 18.7715 15.5715 18.7694C15.5656 18.7683 15.5592 18.7688 15.5528 18.7678C15.3835 18.7427 15.2142 18.7058 15.0465 18.6561Z" fill="white"/>
<path d="M28.3125 53.5938C25.9813 52.2785 22.9879 52.3543 21.1951 53.7738C20.0218 54.7031 19.5796 56.0575 19.9775 57.4957C19.9855 57.532 19.9956 57.5678 20.0079 57.6035C20.441 59.0273 21.5508 59.994 22.9837 60.1921C23.1679 60.2178 23.3538 60.23 23.5402 60.23C25.4884 60.23 27.536 58.8602 28.9982 56.5365C29.0078 56.5205 29.0175 56.505 29.0265 56.4884C29.6578 55.3541 29.4068 54.2812 28.3552 53.6195C28.3413 53.6104 28.3269 53.6019 28.3125 53.5938ZM27.2465 55.47C25.8532 57.6698 24.2318 58.2957 23.2651 58.1611C22.6189 58.0719 22.1714 57.6724 21.969 57.0059C21.9663 56.9958 21.9636 56.9862 21.961 56.976C21.7714 56.3229 21.9375 55.8016 22.4678 55.3813C23.4531 54.6011 25.5183 54.3843 27.2807 55.3658C27.285 55.3685 27.2892 55.3712 27.293 55.3744C27.2823 55.4 27.2673 55.4315 27.2465 55.47Z" fill="white"/>
<path d="M40.457 50.26C40.6108 48.9767 39.9721 48.08 38.7475 47.8616C38.7288 47.8578 38.7101 47.8552 38.6909 47.853C36.0339 47.5294 33.2964 48.7433 32.1829 50.7391C31.4544 52.0438 31.5617 53.4622 32.4755 54.6388C32.4947 54.666 32.515 54.6922 32.5369 54.7178C33.2713 55.6193 34.2806 56.1058 35.3546 56.1058C35.6612 56.1058 35.9725 56.0663 36.2844 55.9857C38.3443 55.4505 39.9406 53.2769 40.4495 50.3113C40.4527 50.2942 40.4554 50.2771 40.457 50.26ZM38.4244 49.9925C37.9758 52.5586 36.7154 53.7554 35.769 54.0011C35.141 54.164 34.5786 53.9691 34.1386 53.4382C34.1306 53.427 34.122 53.4158 34.1135 53.4051C33.6894 52.8742 33.6435 52.329 33.973 51.7383C34.585 50.6424 36.4094 49.6539 38.4116 49.8846C38.4185 49.8857 38.4249 49.8873 38.4308 49.8883C38.4302 49.9161 38.4286 49.9503 38.4244 49.9925Z" fill="white"/>
<path d="M39.9363 62.176C40.6722 63.0882 41.6885 63.5817 42.7694 63.5817C43.0771 63.5817 43.3895 63.5416 43.7024 63.4599C45.7623 62.9237 47.357 60.748 47.8638 57.7829C47.8665 57.7663 47.8692 57.7498 47.8713 57.7327C48.0262 56.4461 47.3869 55.5505 46.1613 55.3369C46.1442 55.3342 46.1271 55.3316 46.11 55.3294C43.452 55.0031 40.7144 56.2165 39.5982 58.2139C38.866 59.525 38.9766 60.9498 39.901 62.1296C39.9122 62.1456 39.924 62.1611 39.9363 62.176ZM41.3878 59.2136C42.0015 58.1156 43.8296 57.1265 45.8312 57.361C45.836 57.3615 45.8403 57.3626 45.8446 57.3636C45.844 57.3903 45.8424 57.424 45.8381 57.4651C45.3917 60.0312 44.1318 61.2297 43.1855 61.4759C42.5606 61.6388 41.9993 61.447 41.5593 60.9221C41.5449 60.9028 41.5304 60.8841 41.5149 60.866C41.1027 60.3399 41.061 59.7995 41.3878 59.2136Z" fill="white"/>
</g>
<defs>
<clipPath id="clip0_673_47718">
<rect width="70" height="70" fill="white"/>
</clipPath>
</defs>
</svg>
