<svg width="70" height="70" viewBox="0 0 70 70" fill="none" xmlns="http://www.w3.org/2000/svg">
<g clip-path="url(#clip0_673_47505)">
<path d="M28.8475 55.5762C28.8475 49.9224 24.2473 45.3223 18.5936 45.3223C12.9399 45.3223 8.33984 49.9226 8.33984 55.5762C8.33984 61.2298 12.9399 65.8301 18.5936 65.8301C24.4721 65.8301 28.8475 61.0142 28.8475 55.5762ZM16.5428 55.5762C16.5428 54.4433 17.461 53.5254 18.5936 53.5254C19.7262 53.5254 20.6444 54.4433 20.6444 55.5762C20.6444 56.7087 19.7262 57.627 18.5936 57.627C17.461 57.627 16.5428 56.7087 16.5428 55.5762Z" fill="white"/>
<path d="M61.7967 49.4238C57.2726 49.4238 53.5938 53.1028 53.5938 57.627C53.5938 62.0354 57.1627 65.8301 61.7967 65.8301C66.3209 65.8301 69.9999 62.1511 69.9999 57.627C69.9999 52.9938 66.2236 49.4238 61.7967 49.4238Z" fill="white"/>
<path d="M61.7968 45.3222C62.9562 45.3222 64.0561 45.5255 65.1454 45.8437C63.9612 42.8762 61.4462 40.5324 58.204 39.6846C31.2805 32.7206 35.0832 33.7485 33.4459 33.326C29.3103 32.2865 24.5559 34.071 22.2347 37.786L19.9727 41.3601C27.2332 42.0661 32.9493 48.1336 32.9493 55.5761C32.9493 57.7155 32.4432 59.8126 31.5272 61.7285H50.2165C50.2113 61.7132 50.2024 61.6996 50.1972 61.6845C49.7406 60.4668 49.4923 59.0689 49.4923 57.6269C49.4921 50.8417 55.0116 45.3222 61.7968 45.3222ZM39.1015 51.4746C39.1015 52.6081 38.1843 53.5254 37.0507 53.5254C35.9172 53.5254 35 52.6081 35 51.4746V47.373C35 46.2395 35.9172 45.3222 37.0507 45.3222C38.1843 45.3222 39.1015 46.2395 39.1015 47.373V51.4746ZM47.4414 51.4746C47.4414 52.6081 46.5241 53.5254 45.3906 53.5254C44.257 53.5254 43.3398 52.6081 43.3398 51.4746V47.373C43.3398 46.2395 44.257 45.3222 45.3906 45.3222C46.5241 45.3222 47.4414 46.2395 47.4414 47.373V51.4746Z" fill="white"/>
<path d="M55.6447 33.0176C55.6447 34.1511 56.6985 35.0684 57.832 35.0684H65.8983C67.0318 35.0684 67.9491 34.1511 67.9491 33.0176C67.9491 31.884 67.0318 30.9668 65.8983 30.9668H57.832C56.6985 30.9668 55.6447 31.884 55.6447 33.0176Z" fill="white"/>
<path d="M54.0058 26.8652C54.574 27.8491 55.8316 28.18 56.8076 27.6162L63.9015 23.5146C64.8829 22.9478 65.2193 21.6942 64.6525 20.7128C64.0817 19.7275 62.8261 19.397 61.8507 19.9618L54.7568 24.0634C53.7754 24.6302 53.439 25.8839 54.0058 26.8652Z" fill="white"/>
<path d="M52.3633 21.5978L56.3262 14.4942C56.893 13.5128 56.5566 12.2591 55.5752 11.6924C54.5938 11.1257 53.3382 11.4581 52.7734 12.4434L48.8105 19.547C48.2437 20.5284 48.5801 21.7821 49.5615 22.3488C50.5394 22.9137 51.796 22.58 52.3633 21.5978Z" fill="white"/>
<path d="M1.40184 8.16541L12.5856 11.9851L15.5714 41.5545C18.1433 40.9998 19.2568 41.2981 19.6717 41.3297L16.5328 10.2528C16.4506 9.44974 15.9059 8.76889 15.1408 8.51445L2.69944 4.27617C1.61799 3.91564 0.464357 4.49847 0.105881 5.57199C-0.252459 6.64742 0.328322 7.80898 1.40184 8.16541Z" fill="white"/>
<path d="M44.8558 27.7967C40.8443 26.7231 38.1862 26.0603 36.4559 25.6597C34.6515 25.1892 32.7388 25.5856 31.2388 26.7452C30.4408 27.3623 29.8349 28.1513 29.4266 29.0348C30.991 28.8616 32.5981 28.8844 34.4452 29.3487L49.356 33.1439L49.3916 33.1589C49.1353 30.5846 47.3685 28.409 44.8558 27.7967Z" fill="white"/>
</g>
<defs>
<clipPath id="clip0_673_47505">
<rect width="70" height="70" fill="white"/>
</clipPath>
</defs>
</svg>
