<svg width="70" height="70" viewBox="0 0 70 70" fill="none" xmlns="http://www.w3.org/2000/svg">
<path d="M58.5334 32.1044L66.6996 16.5144C67.3447 15.2818 67.4738 13.8434 67.0585 12.5156C66.6433 11.1879 65.7177 10.0793 64.4853 9.43387C63.2529 8.78839 61.8146 8.65881 60.4867 9.07361C59.1588 9.4884 58.05 10.4136 57.4041 11.6458L49.2379 27.2358C48.8468 27.9778 48.6405 28.8032 48.6364 29.642C48.6324 30.4807 48.8307 31.3081 49.2146 32.0538L46.6853 36.8841L43.1457 35.1149C42.8954 34.9902 42.6069 34.9658 42.3392 35.0469C42.0716 35.128 41.845 35.3084 41.7061 35.5511L34.9877 47.3075C33.9771 49.0792 33.4333 51.0786 33.4072 53.1181C32.5363 52.7109 31.5865 52.4999 30.625 52.5001C30.5785 52.5001 30.5334 52.5028 30.4869 52.5042C30.244 51.5648 29.6962 50.7326 28.9294 50.1381C28.1627 49.5435 27.2203 49.2202 26.25 49.2189V40.4689H27.3437C30.5335 40.4651 33.5915 39.1963 35.847 36.9408C38.1025 34.6854 39.3712 31.6273 39.375 28.4376V24.0626C39.3738 23.1927 39.0278 22.3588 38.4127 21.7437C37.7976 21.1286 36.9636 20.7825 36.0937 20.7814H27.6172C25.6955 20.7768 23.7996 21.2247 22.0831 22.0888C20.3666 22.9529 18.8776 24.2089 17.7365 25.7552C16.5121 25.3576 15.2327 25.1555 13.9453 25.1564H5.46875C4.59886 25.1575 3.76493 25.5036 3.14983 26.1187C2.53473 26.7338 2.18865 27.5677 2.1875 28.4376V32.8126C2.19126 36.0023 3.46005 39.0604 5.71553 41.3158C7.97101 43.5713 11.029 44.8401 14.2187 44.8439H19.6875V49.3569C18.9303 49.5539 18.2397 49.95 17.6873 50.504C17.1085 50.327 16.4992 50.2719 15.8981 50.3424C15.2969 50.4128 14.7169 50.6072 14.1947 50.9133C13.6725 51.2194 13.2194 51.6304 12.8642 52.1205C12.509 52.6107 12.2594 53.1691 12.1311 53.7607C11.5699 53.6011 10.9826 53.5554 10.4035 53.6263C9.82449 53.6972 9.26549 53.8832 8.75945 54.1734C8.2534 54.4636 7.81054 54.8522 7.45695 55.3162C7.10337 55.7802 6.84619 56.3102 6.70059 56.8751H4.375V59.0626H7.65625C7.79989 59.0626 7.94214 59.0344 8.07485 58.9794C8.20757 58.9245 8.32816 58.8439 8.42973 58.7423C8.5313 58.6408 8.61187 58.5202 8.66682 58.3875C8.72177 58.2547 8.75004 58.1125 8.75 57.9689C8.75 57.3887 8.98047 56.8323 9.3907 56.4221C9.80094 56.0118 10.3573 55.7814 10.9375 55.7814C11.5177 55.7814 12.0741 56.0118 12.4843 56.4221C12.8945 56.8323 13.125 57.3887 13.125 57.9689H15.3125C15.3132 56.929 14.9417 55.9231 14.2652 55.1333C14.1985 54.815 14.2037 54.4859 14.2803 54.1699C14.357 53.8539 14.5032 53.5589 14.7084 53.3066C14.9135 53.0543 15.1724 52.851 15.4662 52.7114C15.7599 52.5719 16.0811 52.4997 16.4062 52.5001C16.4527 52.5001 16.4978 52.5042 16.543 52.5069C17.0975 52.543 17.6176 52.7882 17.9983 53.1929C18.379 53.5977 18.5918 54.1319 18.5937 54.6876H20.7812C20.7817 53.5946 20.3718 52.5412 19.6328 51.7358C20.0263 51.4905 20.4879 51.3773 20.9503 51.4127C21.4126 51.4481 21.8516 51.6303 22.2031 51.9327C21.9863 52.4597 21.8748 53.024 21.875 53.5939H24.0625C24.0623 53.0733 24.2478 52.5697 24.5857 52.1737C24.9235 51.7777 25.3916 51.5152 25.9058 51.4335C26.4199 51.3517 26.9463 51.4561 27.3903 51.7278C27.8344 51.9995 28.1669 52.4208 28.3281 52.9157C27.0764 53.385 25.9975 54.2248 25.2354 55.323C24.4733 56.4213 24.0641 57.7258 24.0625 59.0626H26.25C26.2498 58.1588 26.5295 57.2772 27.0507 56.5389C27.572 55.8005 28.3091 55.2418 29.1609 54.9395C30.0126 54.6372 30.9371 54.6062 31.8071 54.8507C32.6772 55.0952 33.4502 55.6033 34.0197 56.305C33.3245 56.6798 32.7436 57.2356 32.3385 57.9136C31.9335 58.5916 31.7193 59.3666 31.7187 60.1564H33.9062C33.9062 59.5762 34.1367 59.0198 34.547 58.6096C34.9572 58.1993 35.5136 57.9689 36.0937 57.9689C36.6739 57.9689 37.2303 58.1993 37.6405 58.6096C38.0508 59.0198 38.2812 59.5762 38.2812 60.1564H40.4687C40.469 59.5251 40.3318 58.9013 40.0668 58.3284C40.5297 58.0919 41.0421 57.9686 41.562 57.9689C42.0818 57.9691 42.5942 58.0928 43.0568 58.3298C42.7929 58.9026 42.6562 59.5257 42.6562 60.1564H44.8437C44.8437 59.5762 45.0742 59.0198 45.4844 58.6096C45.8947 58.1993 46.4511 57.9689 47.0312 57.9689C47.6114 57.9689 48.1678 58.1993 48.578 58.6096C48.9883 59.0198 49.2187 59.5762 49.2187 60.1564H51.4062C51.4064 59.5865 51.2949 59.0222 51.0781 58.4952C51.3957 58.2231 51.7846 58.0476 52.1989 57.9898C52.6131 57.932 53.0352 57.9943 53.4152 58.1691C53.7951 58.344 54.1169 58.6241 54.3424 58.9764C54.5679 59.3286 54.6877 59.7381 54.6875 60.1564C54.6875 60.3 54.7157 60.4422 54.7707 60.575C54.8256 60.7077 54.9062 60.8283 55.0078 60.9298C55.1093 61.0314 55.2299 61.112 55.3626 61.1669C55.4954 61.2219 55.6376 61.2501 55.7812 61.2501H64.5312V59.0626H56.7369C56.5739 58.4308 56.2716 57.8434 55.8521 57.3436C55.4326 56.8437 54.9066 56.4441 54.3127 56.1739C53.7187 55.9037 53.0718 55.7699 52.4194 55.7821C51.767 55.7944 51.1256 55.9525 50.5422 56.2449C50.8084 55.8222 51.0481 55.3834 51.2599 54.931L56.7725 43.1185C56.8926 42.8602 56.9074 42.5652 56.8137 42.2962C56.7201 42.0272 56.5253 41.8053 56.2707 41.6774L52.15 39.6171L54.6465 34.8511C55.4647 34.7313 56.2432 34.4201 56.9186 33.9429C57.594 33.4656 58.1472 32.8357 58.5334 32.1044ZM24.0625 49.8081C23.8721 49.9183 23.6902 50.0426 23.5184 50.18C23.0348 49.793 22.4747 49.5129 21.875 49.3583V43.7501C21.875 43.6065 21.8468 43.4642 21.7918 43.3315C21.7369 43.1988 21.6563 43.0782 21.5547 42.9766C21.4532 42.8751 21.3326 42.7945 21.1999 42.7395C21.0671 42.6846 20.9249 42.6563 20.7812 42.6564H18.5937C15.9839 42.6534 13.4819 41.6153 11.6365 39.7699C9.79106 37.9245 8.753 35.4224 8.75 32.8126V31.7189H6.5625V32.8126C6.56216 34.5879 6.95533 36.3412 7.71371 37.9464C8.47209 39.5516 9.57683 40.9687 10.9484 42.0958C9.02803 41.417 7.36498 40.1601 6.1879 38.4978C5.01083 36.8355 4.37751 34.8495 4.375 32.8126V28.4376C4.37538 28.1476 4.49074 27.8697 4.69577 27.6646C4.90081 27.4596 5.17879 27.3442 5.46875 27.3439H13.9453C16.6276 27.3471 19.1991 28.414 21.0957 30.3107C22.9923 32.2073 24.0593 34.7788 24.0625 37.4611V49.8081ZM19.8133 26.648C20.7601 25.4947 21.9514 24.5663 23.3011 23.93C24.6508 23.2937 26.125 22.9654 27.6172 22.9689H36.0937C36.3837 22.9692 36.6617 23.0846 36.8667 23.2896C37.0718 23.4947 37.1871 23.7726 37.1875 24.0626V28.4376C37.185 30.4754 36.5511 32.4623 35.3729 34.125C34.1948 35.7877 32.5303 37.0444 30.6086 37.7222C31.9789 36.5933 33.083 35.1757 33.8421 33.5708C34.6012 31.9658 34.9966 30.213 35 28.4376V27.3439H32.8125V28.4376C32.8079 30.4724 32.175 32.4562 31.0004 34.1178C29.8258 35.7794 28.1667 37.0377 26.25 37.7208V37.4611C26.2484 35.2465 25.6498 33.0733 24.517 31.1703C23.3842 29.2674 21.7593 27.7051 19.8133 26.648ZM54.3402 43.1581L49.2775 54.0068C48.9605 54.6856 48.5669 55.3259 48.1045 55.9153C47.4839 55.7579 46.8362 55.739 46.2074 55.8599C45.5787 55.9809 44.9843 56.2388 44.4664 56.6154C43.5964 56.0692 42.5897 55.78 41.5625 55.7814C41.5133 55.7814 41.4641 55.7841 41.4148 55.7855L44.7098 49.7425L42.7902 48.6952L38.5219 56.5196C37.8657 56.0792 37.1019 55.8259 36.3125 55.7868C36.1424 55.4911 35.9495 55.209 35.7355 54.9433C35.3476 52.6923 35.7551 50.3764 36.8881 48.3931L43.0924 37.5349L45.6695 38.8228L43.601 42.7726C43.4146 43.1279 43.3001 43.5165 43.2639 43.9161C43.2277 44.3157 43.2707 44.7185 43.3902 45.1015C43.5098 45.4845 43.7036 45.8402 43.9607 46.1483C44.2177 46.4564 44.5329 46.7108 44.8883 46.897C45.2437 47.0833 45.6323 47.1977 46.032 47.2337C46.4316 47.2697 46.8344 47.2266 47.2173 47.1069C47.6003 46.9872 47.9559 46.7932 48.2639 46.5361C48.5719 46.2789 48.8262 45.9636 49.0123 45.6081L51.1342 41.5558L54.3402 43.1581ZM47.075 44.5923C47.001 44.7331 46.8899 44.851 46.7538 44.9331C46.6176 45.0153 46.4616 45.0587 46.3025 45.0585C46.1324 45.0584 45.9663 45.0075 45.8254 44.9122C45.6464 44.7941 45.5179 44.6135 45.4648 44.4057C45.4118 44.198 45.4379 43.9779 45.5383 43.7884L50.7363 33.8626C51.0706 34.1151 51.4342 34.3262 51.8191 34.4915C51.9684 34.5561 52.1208 34.6131 52.2758 34.6624L47.075 44.5923ZM52.6805 32.4818C52.293 32.3154 51.9441 32.0708 51.6556 31.7632C51.3672 31.4557 51.1454 31.0919 51.0042 30.6945C50.863 30.2972 50.8054 29.875 50.8351 29.4544C50.8647 29.0338 50.981 28.6239 51.1766 28.2503L59.3428 12.6603C59.7027 11.9806 60.3044 11.4605 61.0291 11.2029C61.7538 10.9452 62.5487 10.9686 63.257 11.2685C63.6445 11.4348 63.9934 11.6794 64.2818 11.987C64.5703 12.2945 64.7921 12.6584 64.9333 13.0557C65.0745 13.453 65.1321 13.8752 65.1024 14.2958C65.0728 14.7164 64.9565 15.1264 64.7609 15.4999L56.5947 31.0899C56.2348 31.7696 55.6331 32.2897 54.9084 32.5474C54.1837 32.805 53.3887 32.7816 52.6805 32.4818H52.6805Z" fill="white"/>
</svg>
