<svg width="50" height="50" viewBox="0 0 50 50" fill="none" xmlns="http://www.w3.org/2000/svg">
<path d="M41.8096 22.9316L47.6426 11.7959C48.1033 10.9155 48.1956 9.88809 47.899 8.93967C47.6024 7.99125 46.9412 7.19945 46.061 6.7384C45.1807 6.27734 44.1533 6.18478 43.2048 6.48107C42.2563 6.77735 41.4643 7.43823 41.0029 8.31836L35.1699 19.4541C34.8906 19.9841 34.7432 20.5737 34.7403 21.1728C34.7374 21.7719 34.8791 22.3628 35.1533 22.8955L33.3467 26.3457L30.8184 25.082C30.6396 24.9929 30.4335 24.9755 30.2423 25.0334C30.0511 25.0914 29.8893 25.2202 29.79 25.3936L24.9912 33.791C24.2694 35.0565 23.8809 36.4846 23.8623 37.9414C23.2402 37.6505 22.5618 37.4999 21.875 37.5C21.8418 37.5 21.8096 37.502 21.7764 37.5029C21.6028 36.8319 21.2116 36.2375 20.6639 35.8128C20.1162 35.3882 19.4431 35.1572 18.75 35.1562V28.9062H19.5312C21.8096 28.9036 23.9939 27.9973 25.605 26.3862C27.216 24.7752 28.1223 22.5909 28.125 20.3125V17.1875C28.1242 16.5662 27.877 15.9705 27.4376 15.5311C26.9983 15.0918 26.4026 14.8446 25.7812 14.8438H19.7266C18.3539 14.8405 16.9997 15.1604 15.7737 15.7776C14.5476 16.3948 13.484 17.292 12.6689 18.3965C11.7944 18.1125 10.8805 17.9681 9.96094 17.9688H3.90625C3.2849 17.9696 2.68924 18.2168 2.24988 18.6561C1.81052 19.0955 1.56332 19.6912 1.5625 20.3125V23.4375C1.56519 25.7159 2.47146 27.9002 4.08252 29.5112C5.69358 31.1223 7.87787 32.0286 10.1562 32.0312H14.0625V35.2549C13.5217 35.3956 13.0284 35.6785 12.6338 36.0742C12.2204 35.9477 11.7852 35.9084 11.3558 35.9587C10.9264 36.0091 10.5121 36.1479 10.1391 36.3665C9.76605 36.5852 9.44246 36.8788 9.18875 37.2289C8.93503 37.579 8.7567 37.9779 8.66504 38.4004C8.26425 38.2864 7.8447 38.2538 7.4311 38.3044C7.0175 38.355 6.61821 38.4879 6.25675 38.6952C5.89529 38.9025 5.57896 39.18 5.3264 39.5115C5.07383 39.8429 4.89014 40.2215 4.78613 40.625H3.125V42.1875H5.46875C5.57135 42.1875 5.67296 42.1673 5.76775 42.1281C5.86255 42.0888 5.94869 42.0313 6.02124 41.9587C6.09379 41.8862 6.15133 41.8 6.19059 41.7053C6.22984 41.6105 6.25003 41.5089 6.25 41.4062C6.25 40.9918 6.41462 40.5944 6.70765 40.3014C7.00067 40.0084 7.3981 39.8438 7.8125 39.8438C8.2269 39.8438 8.62433 40.0084 8.91735 40.3014C9.21038 40.5944 9.375 40.9918 9.375 41.4062H10.9375C10.938 40.6635 10.6726 39.945 10.1895 39.3809C10.1418 39.1535 10.1455 38.9184 10.2002 38.6927C10.255 38.467 10.3595 38.2563 10.506 38.0761C10.6525 37.8959 10.8374 37.7506 11.0473 37.651C11.2571 37.5513 11.4865 37.4997 11.7187 37.5C11.752 37.5 11.7842 37.5029 11.8164 37.5049C12.2125 37.5306 12.584 37.7057 12.8559 37.9949C13.1278 38.284 13.2799 38.6656 13.2812 39.0625H14.8437C14.8441 38.2818 14.5513 37.5293 14.0234 36.9541C14.3045 36.7789 14.6342 36.698 14.9645 36.7233C15.2947 36.7486 15.6083 36.8787 15.8594 37.0947C15.7045 37.4711 15.6249 37.8742 15.625 38.2812H17.1875C17.1873 37.9094 17.3198 37.5497 17.5612 37.2668C17.8025 36.984 18.1369 36.7965 18.5041 36.7381C18.8713 36.6797 19.2474 36.7543 19.5645 36.9484C19.8817 37.1424 20.1192 37.4433 20.2344 37.7969C19.3403 38.1321 18.5697 38.7319 18.0253 39.5164C17.4809 40.3008 17.1887 41.2327 17.1875 42.1875H18.75C18.7498 41.5419 18.9496 40.9122 19.322 40.3848C19.6943 39.8574 20.2208 39.4584 20.8292 39.2424C21.4376 39.0265 22.0979 39.0044 22.7194 39.179C23.3409 39.3537 23.893 39.7166 24.2998 40.2178C23.8032 40.4855 23.3883 40.8825 23.099 41.3668C22.8096 41.8511 22.6567 42.4046 22.6562 42.9688H24.2187C24.2187 42.5543 24.3834 42.1569 24.6764 41.8639C24.9694 41.5709 25.3668 41.4062 25.7812 41.4062C26.1956 41.4062 26.5931 41.5709 26.8861 41.8639C27.1791 42.1569 27.3437 42.5543 27.3437 42.9688H28.9062C28.9064 42.5178 28.8085 42.0723 28.6191 41.6631C28.9498 41.4941 29.3158 41.4061 29.6871 41.4062C30.0584 41.4064 30.4244 41.4948 30.7549 41.6641C30.5663 42.0732 30.4687 42.5183 30.4687 42.9688H32.0312C32.0312 42.5543 32.1959 42.1569 32.4889 41.8639C32.7819 41.5709 33.1793 41.4062 33.5937 41.4062C34.0081 41.4062 34.4056 41.5709 34.6986 41.8639C34.9916 42.1569 35.1562 42.5543 35.1562 42.9688H36.7187C36.7189 42.5617 36.6392 42.1586 36.4844 41.7822C36.7112 41.5878 36.989 41.4625 37.2849 41.4212C37.5808 41.3799 37.8823 41.4244 38.1537 41.5493C38.4251 41.6742 38.6549 41.8743 38.816 42.1259C38.9771 42.3775 39.0626 42.67 39.0625 42.9688C39.0625 43.0714 39.0827 43.173 39.1219 43.2678C39.1612 43.3625 39.2187 43.4487 39.2913 43.5212C39.3638 43.5938 39.4499 43.6513 39.5447 43.6906C39.6395 43.7298 39.7411 43.75 39.8437 43.75H46.0937V42.1875H40.5264C40.4099 41.7362 40.194 41.3166 39.8944 40.9596C39.5947 40.6026 39.219 40.3171 38.7948 40.1241C38.3705 39.9311 37.9084 39.8355 37.4424 39.8443C36.9764 39.8531 36.5183 39.966 36.1016 40.1748C36.2917 39.8729 36.4629 39.5595 36.6143 39.2363L40.5518 30.7988C40.6376 30.6143 40.6481 30.4037 40.5812 30.2115C40.5143 30.0194 40.3752 29.8608 40.1934 29.7695L37.25 28.2979L39.0332 24.8935C39.6177 24.808 40.1737 24.5857 40.6562 24.2448C41.1386 23.9039 41.5337 23.454 41.8096 22.9316ZM17.1875 35.5772C17.0515 35.6558 16.9216 35.7446 16.7988 35.8428C16.4535 35.5663 16.0534 35.3663 15.625 35.2559V31.25C15.625 31.1474 15.6048 31.0458 15.5656 30.951C15.5263 30.8562 15.4688 30.7701 15.3962 30.6975C15.3237 30.625 15.2376 30.5674 15.1428 30.5282C15.048 30.4889 14.9464 30.4687 14.8437 30.4688H13.2812C11.4171 30.4666 9.62992 29.7251 8.31177 28.407C6.99362 27.0888 6.25214 25.3016 6.25 23.4375V22.6562H4.6875V23.4375C4.68726 24.7056 4.96809 25.9579 5.50979 27.1045C6.05149 28.251 6.84059 29.2633 7.82032 30.0683C6.44859 29.5835 5.2607 28.6857 4.41993 27.4984C3.57916 26.311 3.12679 24.8924 3.125 23.4375V20.3125C3.12527 20.1054 3.20767 19.9068 3.35412 19.7604C3.50058 19.6139 3.69913 19.5315 3.90625 19.5313H9.96094C11.8768 19.5335 13.7136 20.2956 15.0684 21.6504C16.4231 23.0051 17.1852 24.8419 17.1875 26.7578V35.5772ZM14.1523 19.0342C14.8286 18.2104 15.6796 17.5473 16.6437 17.0928C17.6077 16.6383 18.6607 16.4038 19.7266 16.4063H25.7812C25.9884 16.4065 26.1869 16.4889 26.3334 16.6354C26.4798 16.7818 26.5622 16.9804 26.5625 17.1875V20.3125C26.5607 21.7681 26.1079 23.1873 25.2664 24.3749C24.4249 25.5625 23.2359 26.4602 21.8633 26.9443C22.8421 26.138 23.6307 25.1254 24.1729 23.979C24.7152 22.8326 24.9976 21.5807 25 20.3125V19.5313H23.4375V20.3125C23.4342 21.766 22.9821 23.1829 22.1431 24.3698C21.3041 25.5566 20.1191 26.4554 18.75 26.9433V26.7578C18.7489 25.176 18.3213 23.6237 17.5121 22.2644C16.703 20.9052 15.5423 19.7893 14.1523 19.0342ZM38.8144 30.8271L35.1982 38.5762C34.9718 39.061 34.6907 39.5184 34.3604 39.9395C33.9171 39.827 33.4544 39.8135 33.0053 39.8999C32.5562 39.9863 32.1316 40.1705 31.7617 40.4395C31.1403 40.0493 30.4212 39.8428 29.6875 39.8438C29.6524 39.8438 29.6172 39.8457 29.582 39.8467L31.9355 35.5303L30.5645 34.7822L27.5156 40.3711C27.0469 40.0565 26.5013 39.8755 25.9375 39.8477C25.816 39.6364 25.6782 39.4349 25.5254 39.2451C25.2483 37.6373 25.5393 35.9831 26.3486 34.5664L30.7803 26.8105L32.6211 27.7305L31.1435 30.5518C31.0104 30.8056 30.9286 31.0831 30.9028 31.3686C30.877 31.654 30.9076 31.9417 30.993 32.2153C31.0784 32.4889 31.2169 32.7429 31.4005 32.963C31.5841 33.1831 31.8092 33.3648 32.0631 33.4978C32.317 33.6308 32.5945 33.7125 32.88 33.7382C33.1654 33.764 33.4531 33.7332 33.7267 33.6477C34.0002 33.5622 34.2542 33.4237 34.4742 33.24C34.6942 33.0563 34.8759 32.831 35.0088 32.5771L36.5244 29.6826L38.8144 30.8271ZM33.625 31.8516C33.5722 31.9521 33.4928 32.0363 33.3956 32.095C33.2983 32.1537 33.1868 32.1847 33.0732 32.1846C32.9517 32.1845 32.8331 32.1481 32.7324 32.0801C32.6046 31.9957 32.5128 31.8667 32.4749 31.7183C32.437 31.5699 32.4557 31.4127 32.5273 31.2773L36.2402 24.1875C36.479 24.3678 36.7387 24.5187 37.0137 24.6367C37.1203 24.6828 37.2291 24.7236 37.3398 24.7588L33.625 31.8516ZM37.6289 23.2012C37.3521 23.0824 37.1029 22.9076 36.8969 22.688C36.6908 22.4683 36.5324 22.2084 36.4316 21.9246C36.3307 21.6408 36.2896 21.3392 36.3108 21.0388C36.3319 20.7383 36.415 20.4455 36.5547 20.1787L42.3877 9.04298C42.6448 8.55748 43.0746 8.18603 43.5922 8.00197C44.1099 7.81791 44.6777 7.83463 45.1836 8.04882C45.4603 8.16764 45.7096 8.34237 45.9156 8.56205C46.1216 8.78173 46.2801 9.04162 46.3809 9.32541C46.4818 9.6092 46.5229 9.91078 46.5017 10.2112C46.4805 10.5117 46.3975 10.8045 46.2578 11.0713L40.4248 22.207C40.1677 22.6925 39.7379 23.064 39.2203 23.248C38.7026 23.4321 38.1348 23.4154 37.6289 23.2012H37.6289Z" fill="#00730C"/>
</svg>
