<svg width="70" height="70" viewBox="0 0 70 70" fill="none" xmlns="http://www.w3.org/2000/svg">
<g clip-path="url(#clip0_673_47516)">
<path d="M41.4851 11.6595C39.0604 9.34487 35.2184 9.43406 32.9044 11.8587C30.5898 14.2833 30.6784 18.1248 33.103 20.4394C35.5277 22.754 39.3691 22.6648 41.6837 20.2402C43.9983 17.8161 43.9092 13.9741 41.4851 11.6595Z" fill="#00730C"/>
<path d="M51.7128 31.9095C51.7128 30.592 50.7675 29.4961 49.5189 29.2595C49.7704 29.9084 49.9477 30.6502 49.9477 31.454C49.9477 32.6882 49.529 33.7782 49.0665 34.606C50.5325 34.5777 51.7128 33.3824 51.7128 31.9095Z" fill="#00730C"/>
<path d="M67.891 55.9035H66.3327C65.2934 55.9035 64.2963 55.4906 63.5614 54.7558L62.7539 53.9483V50.1917C63.1871 49.5279 63.6656 48.5457 63.6656 47.4498C63.6656 45.4487 62.0703 43.8268 62.0703 43.8268C62.0703 43.8268 60.4751 45.4487 60.4751 47.4498C60.4751 48.5463 60.9536 49.5279 61.3867 50.1917V51.1274C61.2677 50.9068 61.1181 50.6959 60.9317 50.5089C59.916 49.4937 58.1781 49.585 58.1781 49.585C58.1781 49.585 58.0863 51.3234 59.1015 52.3386C59.7867 53.0238 60.7993 53.2043 61.3867 53.2497V53.9483L60.5793 54.7558C59.8444 55.4906 58.8473 55.9035 57.808 55.9035H54.985C53.9457 55.9035 52.9486 55.4906 52.2138 54.7558L51.9772 54.5186C51.2845 53.826 50.1609 53.826 49.4682 54.5186L49.2316 54.7558C48.4967 55.4906 47.4996 55.9035 46.4604 55.9035H38.2145C39.6186 55.1616 40.3443 53.505 39.8605 51.9311L36.0911 40.0734C35.7151 38.8489 34.678 37.9431 33.4139 37.7353L32.7191 37.6211L27.0773 43.5309L30.2549 44.0543L33.4101 53.913C33.6841 54.8049 34.2945 55.4997 35.0588 55.9035H22.9789C24.6831 55.003 25.2775 52.8764 24.3216 51.2288L17.6036 39.6515L22.7888 45.202L31.8806 35.6776L28.9225 28.4491L34.0211 35.7155C34.2118 35.9874 34.4505 36.2213 34.7261 36.4061L44.2964 42.8319C45.5365 43.665 47.2123 43.3307 48.0417 42.0959C48.8519 40.89 48.5565 39.2692 47.396 38.4179V34.1956C47.8286 33.5318 48.3071 32.5502 48.3071 31.4538C48.3071 29.4526 46.7124 27.8307 46.7124 27.8307C46.7124 27.8307 45.1172 29.4526 45.1172 31.4538C45.1172 32.5502 45.5957 33.5318 46.0289 34.1961V37.4929L38.152 32.2041L33.3412 25.3479L36.6375 28.3311L38.8597 30.25L43.9006 33.6348C43.6518 32.9892 43.4766 32.2516 43.4766 31.4538C43.4766 30.6302 43.6635 29.8703 43.9247 29.2102H40.2856L30.1342 20.9809C28.4963 19.4172 25.9008 19.4775 24.3376 21.1155L10.4142 35.9195C9.43843 36.9567 9.15912 38.5434 9.91428 39.8443C10.9909 41.7002 14.1921 47.2175 15.5443 49.5482H5.76252C3.90239 49.5482 2.33066 51.0184 2.30716 52.8785C2.29061 54.1891 3.02227 55.3304 4.10106 55.9035H2.05081C0.889773 55.9035 -0.0528386 56.8754 0.00216935 58.053C0.0545071 59.1564 1.00566 60.005 2.11009 60.005H67.9492C69.1146 60.005 70.0534 59.033 69.9979 57.8554C69.9456 56.7521 68.9955 55.9035 67.891 55.9035Z" fill="#00730C"/>
</g>
<defs>
<clipPath id="clip0_673_47516">
<rect width="70" height="70" fill="white"/>
</clipPath>
</defs>
</svg>
