<svg width="70" height="70" viewBox="0 0 70 70" fill="none" xmlns="http://www.w3.org/2000/svg">
<path d="M65.625 53.5938H60.0009C59.512 51.7114 57.8145 50.3125 55.7812 50.3125V42.6278C56.6978 43.3223 57.8266 43.75 59.0625 43.75C62.078 43.75 64.5312 41.2967 64.5312 38.2812C64.5312 37.9389 64.4963 37.5944 64.4263 37.2498C65.8602 36.2337 66.7188 34.6041 66.7188 32.8125C66.7188 31.2692 66.08 29.8408 64.9666 28.8181C65.3953 28.0262 65.625 27.1436 65.625 26.25C65.625 24.8927 65.1153 23.6009 64.2053 22.6012C64.4219 22.0095 64.5312 21.4003 64.5312 20.7812C64.5312 17.9813 62.417 15.6669 59.7012 15.3497C58.8536 13.3602 56.8958 12.0312 54.6875 12.0312C52.4792 12.0312 50.5214 13.3602 49.6738 15.3497C46.958 15.6669 44.8438 17.9813 44.8438 20.7812C44.8438 21.4003 44.9531 22.0095 45.1697 22.6012C44.5966 23.2302 44.205 23.9816 43.9764 24.7855C42.6377 23.6414 41.0638 22.9688 39.375 22.9688C37.2925 22.9688 35.3806 23.9772 33.8767 25.6539C33.7367 24.1883 33.0848 22.7883 32.0392 21.7427L28.8903 18.5938H33.9062V16.3909C33.9062 15.365 33.3955 14.3861 32.5402 13.7736C28.5841 10.9386 25.3925 7.11594 23.3133 2.71687C22.8397 1.715 21.8684 1.09375 20.7812 1.09375C19.6941 1.09375 18.7228 1.715 18.2492 2.71687C16.1711 7.11594 12.9795 10.9397 9.02125 13.7736C8.16703 14.3861 7.65625 15.365 7.65625 16.3909V18.5938H12.6722L9.52328 21.7427C8.33656 22.9294 7.65625 24.5722 7.65625 26.25V27.3438H12.6722L9.52328 30.4927C8.33656 31.6794 7.65625 33.3222 7.65625 35V36.0938H19.6875V40.4688C16.8875 40.4688 14.5731 42.583 14.2559 45.2988C12.2664 46.1464 10.9375 48.1042 10.9375 50.3125C10.9375 51.5211 11.3411 52.6827 12.028 53.5938C10.22 53.5959 8.75 55.067 8.75 56.875C8.75 57.4787 8.26 57.9688 7.65625 57.9688H4.375C2.56594 57.9688 1.09375 59.4409 1.09375 61.25C1.09375 63.0591 2.56594 64.5312 4.375 64.5312H10.045C9.9225 64.8747 9.84375 65.24 9.84375 65.625C9.84375 67.4341 11.3159 68.9062 13.125 68.9062H55.7812C57.5903 68.9062 59.0625 67.4341 59.0625 65.625C59.0625 63.8159 57.5903 62.3438 55.7812 62.3438H53.5938H52.5C51.8963 62.3438 51.4062 61.8537 51.4062 61.25C51.4062 60.6463 51.8963 60.1562 52.5 60.1562H65.625C67.4341 60.1562 68.9062 58.6841 68.9062 56.875C68.9062 55.0659 67.4341 53.5938 65.625 53.5938ZM57.6516 53.5938H42.9789C43.237 53.1606 43.6275 52.8084 44.1295 52.6334L44.8886 52.3688L44.8623 51.5648C44.8602 51.4948 44.8525 51.427 44.8438 51.4062C44.8438 49.5972 46.3159 48.125 48.125 48.125C49.2931 48.125 50.3825 48.7703 50.9688 49.8083L51.228 50.2687L51.7508 50.3508C52.593 50.4842 53.282 51.1044 53.5062 51.9323L53.8278 53.1202L54.9697 52.6608C56.0219 52.2408 57.1255 52.7286 57.6516 53.5938ZM40.4688 46.9273C42.9078 46.5062 45.033 44.7016 46.4231 42.1006C47.4348 43.1244 48.8272 43.75 50.3125 43.75C51.5484 43.75 52.6772 43.3223 53.5938 42.6278V48.7441C53.2831 48.5625 52.9572 48.405 52.605 48.3044C51.5878 46.8322 49.9144 45.9375 48.125 45.9375C45.2802 45.9375 42.9362 48.1206 42.6792 50.8988C41.6511 51.485 40.9084 52.4617 40.612 53.5938H40.4688V46.9273ZM47.1723 23.7114L47.8822 23.1383L47.4458 22.3377C47.1713 21.8313 47.0312 21.3073 47.0312 20.7812C47.0312 18.9722 48.5034 17.5 50.2414 17.4967L51.3034 17.5514L51.5222 16.6917C51.893 15.2359 53.1956 14.2188 54.6875 14.2188C56.1794 14.2188 57.482 15.2359 57.8539 16.6917L58.0727 17.5514L58.9608 17.5142C59.0188 17.512 59.0767 17.5055 59.0625 17.5C60.8716 17.5 62.3438 18.9722 62.3438 20.7812C62.3438 21.3073 62.2037 21.8313 61.9292 22.3366L61.4928 23.1372L62.2027 23.7103C62.988 24.3447 63.4375 25.27 63.4375 26.25C63.4375 27.2213 63.0055 27.9322 62.6434 28.3587L61.8067 29.3442L62.918 30.0048C63.9275 30.6086 64.5312 31.6575 64.5312 32.8125C64.5312 34.0714 63.8181 35.2002 62.6675 35.7547L61.7673 36.19L62.1206 37.1252C62.2694 37.5189 62.3438 37.9072 62.3438 38.2812C62.3438 40.0903 60.8716 41.5625 59.0625 41.5625C57.2534 41.5625 55.7812 40.0903 55.7812 38.2812V35.385L59.9167 30.2148L58.2072 28.8477L55.7812 31.8806V20.7812H53.5938V27.5056L51.1667 24.4727L49.4572 25.8398L53.5938 31.01V38.2812C53.5938 40.0903 52.1216 41.5625 50.3125 41.5625C49.0842 41.5625 47.9588 40.8548 47.4009 39.7786C47.8647 38.3119 48.125 36.6975 48.125 35C48.125 31.9605 47.2948 29.1889 45.9375 27.0692V26.25C45.9375 25.27 46.387 24.3447 47.1723 23.7114ZM39.375 25.1562C42.9942 25.1562 45.9375 29.5717 45.9375 35C45.9375 39.8683 43.5673 43.9108 40.4688 44.6961V36.4788L44.6042 31.3086L42.8947 29.9414L40.4688 32.9744V29.5312H38.2812V37.9498L35.91 34.393L34.09 35.6059L38.2812 41.8939V44.6961C35.1827 43.9119 32.8125 39.8683 32.8125 35C32.8125 29.5717 35.7558 25.1562 39.375 25.1562ZM32.6309 27.3438C32.1628 28.1214 31.7734 28.9877 31.4584 29.9108L28.8903 27.3438H32.6309ZM11.0698 32.0392L15.7653 27.3438H17.5V25.1562H9.99141C10.1828 24.4552 10.5536 23.8066 11.0698 23.2892L15.7653 18.5938H17.5V16.4062H9.84375V16.3909C9.84375 16.0639 10.0078 15.7577 10.2955 15.5509C14.5556 12.5016 17.9889 8.38578 20.2267 3.65203C20.4422 3.19266 21.1192 3.19266 21.3358 3.65203C23.5736 8.38578 27.008 12.5016 31.2659 15.5509C31.5547 15.7577 31.7188 16.065 31.7188 16.3909L24.0625 16.4062V18.5938H25.7972L30.4927 23.2892C31.01 23.8066 31.3808 24.4552 31.5711 25.1562H24.0625V27.3438H25.7972L30.4927 32.0392C30.6152 32.1617 30.7267 32.2908 30.8317 32.4253C30.7552 32.9088 30.6983 33.402 30.6655 33.9062H9.99141C10.1828 33.2052 10.5525 32.5566 11.0698 32.0392ZM21.875 36.0938H30.6655C31.0363 41.7178 34.2322 46.2284 38.2812 46.9273V53.5938H33.8887C34.5964 52.6531 35 51.508 35 50.3125C35 47.297 32.5467 44.8438 29.5312 44.8438C29.1889 44.8438 28.8433 44.8787 28.4998 44.9487C27.4837 43.5148 25.8552 42.6562 24.0625 42.6562C24.0548 42.6562 24.0461 42.6562 24.0395 42.6562C23.4719 41.9005 22.7205 41.3186 21.875 40.9434V36.0938ZM15.598 47.1461L16.4577 46.9273L16.4205 46.0392C16.4183 45.9867 16.4128 45.9342 16.4073 45.9342C16.4073 45.9342 16.4062 45.9353 16.4062 45.9364C16.4062 44.1273 17.8784 42.6552 19.6875 42.6552C20.8589 42.6552 21.9483 43.3016 22.5334 44.3417L22.9939 44.9805L23.7344 44.8766C23.8416 44.8634 23.9498 44.8438 24.0625 44.8438C25.3225 44.8438 26.4502 45.5569 27.0047 46.7064L27.44 47.6098L28.3773 47.2533C30.6283 46.4002 32.8136 48.1261 32.8125 50.3125C32.8125 51.2531 32.4078 52.1511 31.7002 52.7734L31.0669 53.5938H15.003L14.2362 52.7734C13.5297 52.1511 13.125 51.2531 13.125 50.3125C13.125 48.8206 14.1422 47.518 15.598 47.1461ZM65.625 57.9688H52.5C50.6909 57.9688 49.2188 59.4409 49.2188 61.25C49.2188 61.635 49.2975 62.0003 49.42 62.3438H47.0312V64.5312H52.5H53.5938H55.7812C56.385 64.5312 56.875 65.0213 56.875 65.625C56.875 66.2288 56.385 66.7188 55.7812 66.7188H13.125C12.5212 66.7188 12.0312 66.2288 12.0312 65.625C12.0312 65.0213 12.5212 64.5312 13.125 64.5312H16.4062H19.6875V62.3438H16.4062H13.125H4.375C3.77125 62.3438 3.28125 61.8537 3.28125 61.25C3.28125 60.6463 3.77125 60.1562 4.375 60.1562H7.65625C9.46531 60.1562 10.9375 58.6841 10.9375 56.875C10.9375 56.2713 11.4275 55.7812 12.0312 55.7812H65.625C66.2288 55.7812 66.7188 56.2713 66.7188 56.875C66.7188 57.4787 66.2288 57.9688 65.625 57.9688Z" fill="white"/>
<path d="M26.25 60.7031C26.25 59.1948 25.0239 57.9688 23.5156 57.9688H19.6875V60.1562H23.5156C23.8164 60.1562 24.0625 60.4023 24.0625 60.7031C24.0625 62.2114 25.2886 63.4375 26.7969 63.4375H30.625V61.25H26.7969C26.4961 61.25 26.25 61.0039 26.25 60.7031Z" fill="white"/>
</svg>
