<svg width="70" height="70" viewBox="0 0 70 70" fill="none" xmlns="http://www.w3.org/2000/svg">
<path d="M42.0221 10.1228C42.3692 9.86032 42.8063 9.74652 43.2373 9.80637C43.4507 9.83601 43.6562 9.90739 43.842 10.0164C44.0279 10.1255 44.1904 10.2701 44.3203 10.4419C44.4503 10.6138 44.5451 10.8096 44.5994 11.0181C44.6537 11.2266 44.6663 11.4437 44.6367 11.6571C44.6071 11.8705 44.5357 12.076 44.4266 12.2618C44.3176 12.4476 44.173 12.6102 44.0011 12.7401C41.5699 14.744 39.5009 17.1505 37.8843 19.8548C37.7203 20.1318 37.565 20.41 37.4147 20.6888C38.6128 20.5496 39.8031 20.3505 40.9813 20.0923C44.436 19.3144 47.145 17.1727 48.2282 14.3638L51.9656 4.67041C46.1731 4.94918 41.2617 6.92969 38.385 10.1761C36.5892 12.2025 35.637 14.6287 35.5384 17.407C38.4148 12.8811 41.869 10.2386 42.0221 10.1228Z" fill="white"/>
<path d="M40.3793 34.2208C43.6915 34.4999 46.5795 33.6329 48.971 31.6342C52.2998 28.8526 54.4229 24.0016 54.8706 18.2195L45.0719 21.6734C42.2321 22.6743 40.0133 25.32 39.1345 28.7505C38.9262 29.5647 38.7398 30.4595 38.5753 31.4242L45.8488 24.7735C46.0076 24.6272 46.1938 24.5138 46.3966 24.4396C46.5994 24.3654 46.8148 24.332 47.0305 24.3413C47.2463 24.3506 47.4581 24.4024 47.6537 24.4936C47.8494 24.5849 48.0252 24.714 48.1709 24.8733C48.3166 25.0327 48.4294 25.2192 48.5029 25.4223C48.5763 25.6254 48.609 25.8409 48.5989 26.0566C48.5889 26.2723 48.5364 26.4839 48.4444 26.6793C48.3524 26.8746 48.2228 27.0499 48.0629 27.1951L40.3793 34.2208Z" fill="white"/>
<path d="M27.95 30.5886C27.3268 29.4235 26.6368 28.2955 25.8833 27.2101L21.825 21.3779C21.5764 21.0207 21.4799 20.5794 21.5567 20.1511C21.6336 19.7228 21.8773 19.3426 22.2345 19.094C22.5917 18.8455 23.0329 18.749 23.4612 18.8258C23.8895 18.9026 24.2698 19.1464 24.5183 19.5036L28.577 25.3359C29.0351 25.9945 29.4732 26.6715 29.8914 27.367C29.3828 18.7107 23.765 11.6525 16.5971 10.8569L17.592 18.7699C18.0984 23.4228 21.1105 28.6954 27.95 30.5886Z" fill="white"/>
<path d="M59.8063 61.2208C59.5937 61.0368 59.3439 60.9007 59.074 60.8219C58.8041 60.7431 58.5204 60.7234 58.2422 60.7641C48.9956 62.1149 35.2324 61.2717 26.8606 56.2297C26.0987 55.7707 25.4334 55.3745 24.9844 55.114C23.5975 54.31 22.1371 53.6399 20.6231 53.1127C18.8067 52.4798 16.8967 52.1572 14.9732 52.1585C14.1451 52.1585 12.7036 52.2208 11.3194 52.3604C10.8359 52.4081 10.3879 52.6355 10.0641 52.9976C9.74021 53.3597 9.56401 53.8301 9.57033 54.3159V54.3547C9.56385 54.6254 9.61479 54.8943 9.7198 55.1439C9.82481 55.3935 9.9815 55.6179 10.1795 55.8025C10.3743 55.9874 10.6063 56.1284 10.8601 56.2161C11.1139 56.3038 11.3835 56.3362 11.6508 56.311C12.7917 56.2111 14.0594 56.149 14.9594 56.149C17.0381 56.1476 19.1022 56.4959 21.0654 57.1793C22.6625 57.735 24.2031 58.4414 25.6662 59.2891C26.1218 59.5531 26.7957 59.9535 27.5639 60.4161C35.5842 65.2468 49.3764 66.1993 58.8558 64.6431C59.2224 64.5797 59.5636 64.4135 59.8395 64.1639C60.1154 63.9142 60.3147 63.5913 60.4143 63.2328C60.5139 62.8743 60.5096 62.4949 60.402 62.1387C60.2944 61.7825 60.0878 61.4642 59.8064 61.2208H59.8063ZM28.6047 59.4472C28.5175 59.6062 28.3708 59.724 28.1968 59.7747C28.0227 59.8255 27.8356 59.8051 27.6767 59.7179C27.3968 59.5644 27.1213 59.4062 26.8581 59.2476C26.7029 59.154 26.5911 59.0026 26.5475 58.8266C26.5039 58.6506 26.5319 58.4645 26.6255 58.3092C26.7191 58.1539 26.8705 58.0422 27.0465 57.9986C27.2225 57.9549 27.4086 57.983 27.5639 58.0766C27.8112 58.2256 28.0697 58.3745 28.334 58.5191C28.493 58.6063 28.6108 58.7531 28.6616 58.9271C28.7123 59.1012 28.6919 59.2882 28.6047 59.4472ZM46.2588 64.2715C46.2461 64.2715 46.2332 64.2714 46.2204 64.2705C40.1953 63.9389 34.707 62.8062 30.3516 60.9953C30.268 60.9613 30.192 60.9111 30.1279 60.8476C30.0638 60.784 30.013 60.7085 29.9782 60.6252C29.9435 60.5419 29.9256 60.4526 29.9255 60.3624C29.9255 60.2722 29.9433 60.1828 29.978 60.0995C30.0126 60.0162 30.0634 59.9406 30.1274 59.877C30.1914 59.8135 30.2674 59.7632 30.3509 59.7291C30.4345 59.695 30.5239 59.6778 30.6141 59.6785C30.7044 59.6791 30.7935 59.6976 30.8766 59.7329C35.0911 61.4851 40.4231 62.5823 46.2961 62.9056C46.4741 62.9151 46.6414 62.9936 46.7623 63.1246C46.8832 63.2556 46.9481 63.4286 46.9433 63.6067C46.9385 63.7849 46.8643 63.9541 46.7365 64.0784C46.6087 64.2026 46.4374 64.2721 46.2592 64.2719L46.2588 64.2715Z" fill="white"/>
<path d="M34.1363 39.3738C34.0357 39.6549 33.9449 39.9344 33.8606 40.2136C32.7912 35.0066 30.7024 30.066 27.7912 25.8826L23.7329 20.0504C23.6293 19.9016 23.4709 19.8 23.2924 19.768C23.1139 19.736 22.9301 19.7762 22.7812 19.8797C22.6324 19.9833 22.5308 20.1417 22.4988 20.3202C22.4668 20.4987 22.507 20.6825 22.6105 20.8314L26.6689 26.6635C29.612 30.8926 31.6865 35.9281 32.668 41.2254C32.8971 42.4618 33.0851 43.6775 33.2317 44.8587C33.2541 45.4166 33.3155 45.9722 33.4154 46.5215H33.4191C33.4205 46.5292 33.4235 46.536 33.4251 46.5437C32.6148 46.8215 31.8233 47.1302 31.0599 47.4701C30.6593 47.6478 30.2595 47.834 29.8714 48.0221C25.992 49.9024 22.9753 50.452 19.4824 51.0891C19.2749 51.1269 19.0663 51.165 18.8568 51.2034C19.6051 51.3637 20.3427 51.5702 21.0655 51.8217C22.6626 52.3773 24.2031 53.0838 25.6663 53.9314C26.1219 54.1955 26.7958 54.5958 27.564 55.0585C33.0535 58.3653 44.4442 61.1134 56.8412 59.5738L53.1985 51.9099C52.7243 50.9033 52.1308 49.9573 51.4307 49.0925C49.9794 47.3152 48.3671 46.3279 45.8686 45.6882L45.5322 45.6208C44.0877 45.3334 42.6183 45.1891 41.1455 45.1899C39.2198 45.1867 37.3018 45.4348 35.4404 45.9281C35.2079 45.9901 34.9774 46.0556 34.7476 46.1227C34.7029 45.6677 34.652 45.207 34.5949 44.7406C34.5395 43.1749 34.8166 41.5309 35.4237 39.8339C36.2289 37.5545 37.577 35.5054 39.3513 33.8635L47.4169 26.4884C47.5505 26.366 47.6301 26.1956 47.6381 26.0146C47.6461 25.8335 47.5819 25.6568 47.4596 25.5231C47.3374 25.3893 47.167 25.3096 46.986 25.3014C46.805 25.2933 46.6282 25.3573 46.4943 25.4794L38.4288 32.855C37.1805 34.0036 36.1235 35.3442 35.2979 36.8261C34.1592 33.7606 33.7733 30.6649 34.1531 27.6058C34.4993 24.818 35.4775 22.0464 37.0609 19.3679C39.7779 14.7717 43.3804 12.0103 43.4243 11.9768C43.5673 11.8669 43.661 11.7049 43.6851 11.5262C43.7093 11.3475 43.6618 11.1665 43.553 11.0226C43.4443 10.8787 43.2831 10.7837 43.1045 10.7581C42.926 10.7326 42.7446 10.7786 42.5999 10.8862C42.4449 11.0035 38.7689 13.812 35.9085 18.631C33.2645 23.0849 30.8847 30.1329 34.4873 38.476C34.3622 38.7712 34.2452 39.0705 34.1363 39.3738ZM29.6219 53.4585C29.2905 53.4585 28.9666 53.3602 28.6911 53.1761C28.4156 52.992 28.2009 52.7304 28.0741 52.4243C27.9473 52.1181 27.9141 51.7813 27.9787 51.4563C28.0434 51.1313 28.2029 50.8328 28.4372 50.5985C28.6715 50.3642 28.97 50.2046 29.295 50.14C29.62 50.0753 29.9569 50.1085 30.263 50.2353C30.5691 50.3621 30.8308 50.5768 31.0149 50.8523C31.199 51.1279 31.2972 51.4518 31.2972 51.7831C31.2967 52.2273 31.1201 52.6531 30.806 52.9672C30.4919 53.2813 30.0661 53.458 29.6219 53.4585ZM51.7703 55.6799C51.9777 55.6798 52.1804 55.7412 52.3528 55.8563C52.5253 55.9714 52.6597 56.1351 52.7391 56.3266C52.8186 56.5181 52.8394 56.7289 52.799 56.9323C52.7586 57.1356 52.6588 57.3225 52.5123 57.4691C52.3657 57.6158 52.1789 57.7157 51.9756 57.7561C51.7722 57.7966 51.5614 57.7759 51.3699 57.6966C51.1783 57.6173 51.0145 57.4829 50.8993 57.3105C50.7841 57.1381 50.7226 56.9354 50.7226 56.7281C50.7229 56.4502 50.8335 56.1837 51.03 55.9872C51.2265 55.7907 51.4929 55.6802 51.7709 55.6799H51.7703ZM46.7423 50.1154C47.0263 50.1154 47.3038 50.1996 47.5399 50.3574C47.776 50.5151 47.96 50.7393 48.0686 51.0016C48.1773 51.2639 48.2057 51.5526 48.1503 51.831C48.0949 52.1095 47.9582 52.3653 47.7574 52.5661C47.5567 52.7668 47.3009 52.9035 47.0224 52.9589C46.7439 53.0143 46.4553 52.9859 46.193 52.8772C45.9307 52.7686 45.7065 52.5846 45.5487 52.3485C45.391 52.1124 45.3068 51.8349 45.3068 51.551C45.3072 51.1703 45.4587 50.8053 45.7279 50.5362C45.9972 50.267 46.3622 50.1157 46.7429 50.1154H46.7423ZM41.8086 54.814C42.1277 54.814 42.4396 54.9087 42.7049 55.0859C42.9702 55.2632 43.1769 55.5152 43.2991 55.8099C43.4212 56.1047 43.4531 56.4291 43.3909 56.7421C43.3286 57.055 43.175 57.3425 42.9493 57.5681C42.7237 57.7937 42.4363 57.9474 42.1233 58.0096C41.8104 58.0719 41.486 58.0399 41.1912 57.9178C40.8964 57.7957 40.6444 57.5889 40.4672 57.3236C40.2899 57.0583 40.1953 56.7464 40.1953 56.4273C40.1958 55.9996 40.3659 55.5895 40.6683 55.2871C40.9708 54.9846 41.3808 54.8145 41.8086 54.814ZM38.9028 46.9754C39.1831 46.9754 39.4571 47.0585 39.6902 47.2142C39.9233 47.3699 40.105 47.5913 40.2123 47.8503C40.3196 48.1093 40.3477 48.3943 40.293 48.6692C40.2384 48.9442 40.1034 49.1967 39.9052 49.395C39.707 49.5932 39.4544 49.7282 39.1795 49.7829C38.9045 49.8376 38.6195 49.8095 38.3605 49.7023C38.1015 49.595 37.8802 49.4133 37.7244 49.1802C37.5687 48.9471 37.4855 48.6731 37.4855 48.3928C37.486 48.017 37.6354 47.6568 37.9011 47.3911C38.1668 47.1254 38.527 46.9759 38.9028 46.9754ZM36.0842 51.8062C36.2754 51.8062 36.4623 51.8629 36.6213 51.9692C36.7803 52.0754 36.9042 52.2264 36.9773 52.403C37.0505 52.5797 37.0696 52.7741 37.0323 52.9616C36.995 53.1492 36.9029 53.3214 36.7677 53.4566C36.6325 53.5918 36.4602 53.6839 36.2727 53.7211C36.0851 53.7584 35.8908 53.7393 35.7141 53.6661C35.5375 53.5929 35.3865 53.469 35.2803 53.31C35.1741 53.151 35.1174 52.964 35.1174 52.7728C35.1177 52.5165 35.2197 52.2708 35.4009 52.0896C35.5821 51.9084 35.8279 51.8065 36.0842 51.8062Z" fill="white"/>
</svg>
