<svg width="70" height="70" viewBox="0 0 70 70" fill="none" xmlns="http://www.w3.org/2000/svg">
<g clip-path="url(#clip0_673_47550)">
<path d="M19.2073 50.3111C20.6925 47.2882 18.8169 43.4237 17.6247 41.5544H11.9629C11.6728 41.5544 11.3946 41.6697 11.1895 41.8748C10.9844 42.0799 10.8691 42.3581 10.8691 42.6482C10.8691 47.1759 14.7573 50.4055 19.2073 50.3111Z" fill="#00730C"/>
<path d="M38.2206 41.5544H25.0811C25.9824 43.7022 26.5466 47.2547 26.0963 50.3018C29.2241 50.2986 32.1629 50.2975 32.3477 50.3044C32.6153 50.3147 36.7976 48.9207 38.5576 48.3521C38.7776 48.281 38.9694 48.142 39.1054 47.9551C39.2413 47.7681 39.3145 47.5429 39.3143 47.3117V42.6482C39.3143 42.3581 39.1991 42.0799 38.994 41.8748C38.7889 41.6697 38.5107 41.5544 38.2206 41.5544Z" fill="#00730C"/>
<path d="M61.2428 29.5397C54.7064 29.1472 50.2506 35.9381 52.5001 41.5547H51.4063C51.1162 41.5547 50.838 41.6699 50.6329 41.875C50.4278 42.0802 50.3126 42.3583 50.3126 42.6484V47.0234C50.3126 47.3135 50.4278 47.5917 50.6329 47.7968C50.838 48.0019 51.1162 48.1172 51.4063 48.1172H60.7032C61.9624 48.1158 63.2083 47.8589 64.3654 47.362C65.5225 46.8651 66.5667 46.1385 67.4348 45.2263C68.3029 44.3141 68.9769 43.2352 69.4159 42.0549C69.8549 40.8747 70.0498 39.6176 69.9889 38.3598C69.7601 33.6445 65.9552 29.8227 61.2428 29.5397ZM60.7032 43.7422C59.7297 43.7422 58.7781 43.4535 57.9687 42.9127C57.1593 42.3719 56.5285 41.6032 56.156 40.7038C55.7834 39.8045 55.686 38.8148 55.8759 37.8601C56.0658 36.9053 56.5346 36.0283 57.2229 35.34C57.9112 34.6517 58.7882 34.1829 59.743 33.993C60.6977 33.8031 61.6874 33.9006 62.5867 34.2731C63.4861 34.6456 64.2548 35.2765 64.7956 36.0859C65.3364 36.8953 65.6251 37.8468 65.6251 38.8203C65.6236 40.1252 65.1046 41.3763 64.1819 42.299C63.2592 43.2217 62.0081 43.7407 60.7032 43.7422Z" fill="#00730C"/>
<path d="M47.0253 44.8438H42.6551C42.3652 44.8434 42.0873 44.728 41.8825 44.523C41.6776 44.3179 41.5626 44.0399 41.5626 43.75V12.0313C41.5622 11.7419 41.6766 11.4642 41.8808 11.2592C42.0849 11.0541 42.362 10.9384 42.6514 10.9375C46.7363 10.9353 50.5298 14.6653 50.3029 18.8535V32.416C50.3113 33.0064 48.2448 38.8578 48.1178 39.3827V43.75C48.1178 44.0399 48.0027 44.3179 47.7979 44.523C47.593 44.728 47.3152 44.8434 47.0253 44.8438Z" fill="#00730C"/>
<path d="M41.5625 48.125V51.8984C34.5542 49.7656 27.2578 56.2945 30.2012 64.4477C30.8914 66.3695 32.2871 67.9566 34.1049 68.8867C41.1179 72.4552 48.125 67.416 48.125 60.7715V48.125C48.125 47.8349 48.0098 47.5567 47.8047 47.3516C47.5996 47.1465 47.3214 47.0312 47.0313 47.0312H42.6563C42.3662 47.0312 42.088 47.1465 41.8829 47.3516C41.6778 47.5567 41.5625 47.8349 41.5625 48.125ZM38.8282 65.6934C37.8547 65.6934 36.9031 65.4047 36.0937 64.8639C35.2843 64.3231 34.6535 63.5544 34.2809 62.655C33.9084 61.7557 33.811 60.766 34.0009 59.8113C34.1908 58.8565 34.6595 57.9795 35.3479 57.2912C36.0362 56.6029 36.9132 56.1341 37.868 55.9442C38.8227 55.7543 39.8123 55.8517 40.7117 56.2243C41.611 56.5968 42.3797 57.2276 42.9206 58.037C43.4614 58.8464 43.75 59.798 43.75 60.7715C43.7486 62.0764 43.2296 63.3275 42.3069 64.2502C41.3841 65.1729 40.1331 65.6919 38.8282 65.6934Z" fill="#00730C"/>
<path d="M17.3564 36.4657C18.8521 40.5466 21.875 42.0188 21.875 48.125C21.875 56.1119 10.9375 55.2261 10.9375 68.9062C10.9375 70.3117 13.125 70.2984 13.125 68.9062C13.125 56.4193 24.0625 58.4973 24.0625 48.125C24.0625 41.2971 20.9545 39.7419 19.502 35.6699C18.9766 34.1992 16.8818 35.1707 17.3564 36.4657Z" fill="#00730C"/>
<path d="M36.1947 14.2803C35.9981 14.2 32.2192 12.6775 28.5994 12.4581C30.1454 9.24943 30.6942 5.37195 30.7225 5.16592C30.7448 4.98337 30.7212 4.79813 30.6537 4.62704C30.5862 4.45595 30.4771 4.30443 30.3362 4.18625C30.1953 4.06807 30.027 3.98698 29.8468 3.95034C29.6666 3.91371 29.4801 3.92269 29.3042 3.97646C29.102 4.04141 25.2282 5.30428 22.314 7.46279C21.436 4.01092 19.3645 0.687695 19.2536 0.511602C19.1534 0.35733 19.0162 0.230547 18.8545 0.142777C18.6929 0.0550075 18.5118 0.0090332 18.3279 0.0090332C18.1439 0.0090332 17.9629 0.0550075 17.8012 0.142777C17.6395 0.230547 17.5023 0.35733 17.4021 0.511602C17.2891 0.691387 15.1341 4.14832 14.2895 7.67566C11.398 5.59521 7.67419 4.38129 7.47609 4.31758C7.30021 4.2638 7.11369 4.25482 6.93346 4.29146C6.75323 4.32809 6.58502 4.40919 6.4441 4.52737C6.30319 4.64554 6.19403 4.79706 6.12656 4.96815C6.05909 5.13924 6.03544 5.32448 6.05777 5.50703C6.08661 5.7173 6.65755 9.75119 8.27726 12.9958C4.72558 13.2617 1.09378 14.7254 0.900598 14.8039C0.731245 14.8758 0.582545 14.9889 0.468014 15.1328C0.353483 15.2768 0.276754 15.4471 0.244802 15.6283C0.212851 15.8095 0.22669 15.9958 0.285062 16.1703C0.343434 16.3447 0.444487 16.5018 0.579035 16.6273C0.736399 16.7699 3.76745 19.4927 7.09423 20.9368C4.54361 23.4233 2.70105 26.8789 2.60398 27.0636C2.52042 27.2275 2.47917 27.4097 2.48397 27.5936C2.48878 27.7775 2.53948 27.9573 2.63147 28.1166C2.72346 28.276 2.85382 28.4098 3.01069 28.5059C3.16757 28.602 3.34598 28.6573 3.5297 28.6669C3.74189 28.6751 7.81365 28.8133 11.2901 27.7815C10.9347 31.3254 11.7453 35.1567 11.7892 35.3601C11.8305 35.5394 11.9161 35.7054 12.038 35.8432C12.1599 35.981 12.3143 36.0861 12.4871 36.149C12.66 36.2119 12.8459 36.2306 13.0278 36.2034C13.2097 36.1762 13.382 36.104 13.5289 35.9933C13.6968 35.8631 16.9045 33.3509 18.9044 30.3255C20.9102 33.2691 23.9942 35.6836 24.1582 35.8114C24.3052 35.9221 24.4774 35.9944 24.6594 36.0216C24.8413 36.0488 25.0272 36.0301 25.2 35.9671C25.3729 35.9042 25.5273 35.7991 25.6492 35.6613C25.7711 35.5235 25.8566 35.3574 25.898 35.1781C25.9428 34.9706 26.7867 30.9847 26.3736 27.3819C29.802 28.3473 33.7154 28.2144 33.9236 28.2064C34.1074 28.1968 34.2857 28.1414 34.4426 28.0453C34.5994 27.9491 34.7298 27.8153 34.8218 27.656C34.9138 27.4967 34.9645 27.3169 34.9693 27.133C34.9741 26.9491 34.9329 26.7669 34.8494 26.603C34.7502 26.4152 32.8333 22.8199 30.2009 20.325C33.4481 18.8609 36.3618 16.2433 36.5158 16.1036C36.6504 15.9781 36.7515 15.821 36.8099 15.6466C36.8683 15.4722 36.8822 15.2859 36.8502 15.1047C36.8183 14.9236 36.7416 14.7532 36.6272 14.6093C36.5127 14.4653 36.364 14.3522 36.1947 14.2803ZM18.3279 24.0639C17.2462 24.0639 16.1889 23.7431 15.2896 23.1422C14.3903 22.5413 13.6893 21.6872 13.2754 20.6879C12.8615 19.6886 12.7532 18.5891 12.9642 17.5282C13.1752 16.4674 13.6961 15.4929 14.4609 14.7281C15.2257 13.9633 16.2001 13.4425 17.261 13.2314C18.3218 13.0204 19.4214 13.1287 20.4207 13.5427C21.4199 13.9566 22.274 14.6575 22.875 15.5568C23.4759 16.4562 23.7966 17.5135 23.7966 18.5951C23.7966 20.0455 23.2204 21.4365 22.1949 22.4621C21.1693 23.4877 19.7783 24.0639 18.3279 24.0639Z" fill="#00730C"/>
</g>
<defs>
<clipPath id="clip0_673_47550">
<rect width="70" height="70" fill="white"/>
</clipPath>
</defs>
</svg>
