<svg width="70" height="70" viewBox="0 0 70 70" fill="none" xmlns="http://www.w3.org/2000/svg">
<g clip-path="url(#clip0_673_47581)">
<path d="M37.44 63.8474C37.3553 63.7745 37.2711 63.7008 37.1875 63.6262V63.8942C37.2719 63.8787 37.3561 63.8631 37.44 63.8474Z" fill="white"/>
<path d="M68.889 0.000737206C68.8307 0.00169424 62.9505 0.105054 54.9812 1.16996C54.0652 1.29232 53.7042 2.49695 54.4286 3.0966C57.7821 5.87308 53.4707 12.5764 49.4102 8.87501C49.2219 8.70831 48.982 8.61161 48.7308 8.60122C48.4795 8.59084 48.2324 8.6674 48.0311 8.818C46.5291 9.90956 44.3024 10.1354 42.6113 9.36666C42.3513 9.24842 42.0554 9.23658 41.7867 9.33366C41.5181 9.43074 41.2981 9.62905 41.1738 9.88619C39.395 13.566 33.1454 12.0312 33.9609 7.56388C33.9911 7.37633 33.9726 7.18416 33.9071 7.00585C33.8416 6.82754 33.7313 6.66908 33.5868 6.5457C33.4424 6.42233 33.2686 6.33819 33.0822 6.30137C32.8959 6.26455 32.7032 6.27629 32.5227 6.33546C27.2668 8.18117 22.7063 10.4947 18.9697 13.2136C18.8488 13.3008 18.7468 13.4115 18.6698 13.5391C18.5928 13.6667 18.5425 13.8086 18.5218 13.9562C18.5011 14.1038 18.5106 14.2541 18.5495 14.398C18.5885 14.5418 18.6562 14.6763 18.7485 14.7933C20.886 17.4525 18.7116 21.9099 15.3271 21.8753C15.0353 21.8746 14.7551 21.9894 14.5476 22.1946C14.3402 22.3997 14.2223 22.6787 14.2197 22.9704C14.223 25.7017 11.4424 27.868 8.81304 27.2206C8.55165 27.1561 8.27565 27.1902 8.03787 27.3165C7.80009 27.4428 7.61724 27.6523 7.52432 27.905C3.74884 38.1737 6.31081 49.4315 9.35635 57.5511L0.640671 66.2656C-1.27148 68.1615 1.59552 71.4918 3.73434 69.3593L12.5117 60.5819C16.71 61.8777 25.8371 64.2784 30.6247 64.4297V60.1562C30.6132 58.9621 31.3904 58.0314 32.2092 57.2126C33.1465 56.2753 31.695 54.9585 30.842 55.8292L29.6636 57.0075C26.7762 59.9493 21.9227 55.4653 25.0234 52.3672L27.3438 50.047V45.9374C27.3417 45.3276 27.5106 44.7294 27.8312 44.2106C28.1518 43.6919 28.6114 43.2733 29.1577 43.0025C30.5078 42.3276 32.1442 41.6969 32.8407 40.2304C33.2062 39.5118 33.3628 38.705 33.2924 37.9019C33.2221 37.0987 32.9277 36.3314 32.4428 35.6873C31.6586 34.6367 31.7182 32.5686 31.7182 31.2872C31.7182 30.6143 31.552 29.9518 31.2346 29.3586C30.9171 28.7653 30.458 28.2596 29.8982 27.8863C26.1938 25.437 30.047 20.0797 33.5388 22.4263C33.7901 22.5939 34.0827 22.6891 34.3845 22.7014C34.6864 22.7137 34.9858 22.6427 35.2499 22.4961C35.514 22.3495 35.7327 22.133 35.882 21.8704C36.0312 21.6078 36.1053 21.3091 36.0961 21.0072C36.095 20.973 36.0943 20.9392 36.0939 20.9057C36.0436 16.4511 42.6564 16.4971 42.6564 20.7812C42.6564 22.7773 44.8439 25.1562 48.1251 25.1562C51.4064 25.1562 53.5939 22.4407 53.5939 20.7812C53.5939 16.3158 60.1564 16.6212 60.1564 20.7812C60.1564 20.7965 60.1564 20.8119 60.1564 20.8272C60.1538 21.122 60.2269 21.4126 60.3688 21.671C60.5107 21.9294 60.7166 22.1471 60.9668 22.3031C61.2169 22.4591 61.503 22.5482 61.7975 22.5619C62.092 22.5757 62.3851 22.5135 62.6486 22.3815C64.3966 21.5201 66.4933 21.764 67.4568 23.6707C68.9072 16.1672 69.6552 8.41099 69.9991 1.1463C70.0042 0.997478 69.9792 0.849146 69.9257 0.710181C69.8722 0.571215 69.7912 0.444469 69.6876 0.337525C69.584 0.230581 69.4598 0.145635 69.3226 0.0877672C69.1854 0.0298996 69.0379 0.000299516 68.889 0.000737206Z" fill="white"/>
<path d="M69.6796 53.9139L66.7187 50.9531V45.9373C66.7187 45.7342 66.6621 45.5351 66.5554 45.3623C66.4486 45.1895 66.2958 45.0499 66.1141 44.959L62.166 42.9841C61.7252 40.7048 60.4934 38.6543 58.6881 37.1947L61.9062 34.781C62.0421 34.6791 62.1523 34.547 62.2282 34.3952C62.3042 34.2433 62.3437 34.0758 62.3437 33.906V27.9288L65.138 26.066C66.2427 25.3287 65.1608 23.4034 63.9246 24.246L60.6433 26.4335C60.4935 26.5334 60.3707 26.6687 60.2857 26.8274C60.2007 26.9862 60.1562 27.1635 60.1562 27.3435V33.3591L56.7069 35.9461C56.3712 35.7874 56.0267 35.6478 55.6751 35.5282L54.9899 32.7302C54.5772 31.0341 53.5501 29.5514 52.1073 28.5688C55.0044 26.6792 57.9687 24.6411 57.9687 20.781C57.9687 19.4275 55.7812 19.3084 55.7812 20.781C55.7812 24.5955 52.2896 25.8067 49.7117 27.5233C48.6671 27.2873 47.5829 27.2873 46.5382 27.5233C44.0088 25.8387 40.4687 24.485 40.4687 20.781C40.4687 19.4275 38.2812 19.3083 38.2812 20.781C38.2812 24.7806 41.1176 26.6201 44.14 28.5704C42.6985 29.5531 41.6725 31.0351 41.2601 32.7302L40.5748 35.5283C40.2232 35.648 39.8787 35.7875 39.543 35.9463L36.0937 33.3591V27.3435C36.0937 27.1635 36.0493 26.9862 35.9643 26.8275C35.8794 26.6687 35.7565 26.5334 35.6067 26.4335L32.3255 24.246C31.1159 23.4224 29.9739 25.3235 31.1121 26.066L33.9062 27.9288V33.906C33.9062 34.0758 33.9458 34.2433 34.0217 34.3952C34.0976 34.547 34.2079 34.6791 34.3437 34.781L37.5625 37.1951C35.7573 38.6547 34.5256 40.7049 34.0847 42.9841L30.1358 44.9586C29.9541 45.0495 29.8013 45.1892 29.6945 45.3621C29.5877 45.5349 29.5312 45.7341 29.5312 45.9373V50.9531L26.5703 53.9139C25.6486 54.8178 27.024 56.5486 28.1172 55.4607L31.3984 52.1794C31.5 52.0779 31.5805 51.9573 31.6355 51.8246C31.6905 51.6919 31.7187 51.5497 31.7187 51.406V46.6132L33.9062 45.5863C35.4785 43.0224 38.5059 41.5623 42.6562 41.5623H53.5937C57.7441 41.5623 60.7721 43.0224 62.3437 45.5863V45.5195L64.5312 46.6132V51.406C64.5312 51.5497 64.5595 51.6919 64.6145 51.8246C64.6694 51.9573 64.75 52.0779 64.8515 52.1794L68.1328 55.4607C69.1084 56.4533 70.6822 54.8993 69.6796 53.9139Z" fill="white"/>
<path d="M42.6562 43.75V56.3374C42.6562 59.6552 44.0258 63.0127 46.2864 65.5036C46.5325 65.5356 46.7813 65.5598 47.0312 65.5789V43.75H42.6562Z" fill="white"/>
<path d="M53.5938 43.75H49.2188V65.5789C49.4687 65.5598 49.7172 65.5356 49.9635 65.5036C52.2242 63.0127 53.5938 59.6552 53.5938 56.3374V43.75Z" fill="white"/>
<path d="M40.4688 56.3373V43.946C37.3789 44.5234 35.1791 46.3358 33.9063 48.7996V51.4061C33.9041 53.4473 34.3441 55.4647 35.1962 57.3195L33.1329 59.3827C33.0313 59.4843 32.9507 59.6048 32.8958 59.7375C32.8408 59.8702 32.8125 60.0125 32.8125 60.1561V65.1719L29.8516 68.1327C28.9376 69.0277 30.2987 70.7736 31.3984 69.6795L34.6797 66.3983C34.7813 66.2967 34.8618 66.1761 34.9168 66.0434C34.9717 65.9107 35 65.7685 35 65.6249V60.6091L36.3071 59.302C37.9185 61.7061 40.2216 63.5647 42.9118 64.6322C41.3617 62.1363 40.4688 59.2245 40.4688 56.3373Z" fill="white"/>
<path d="M66.3985 68.1326L63.4375 65.1718V60.156C63.4375 60.0124 63.4093 59.8702 63.3543 59.7375C63.2993 59.6048 63.2188 59.4842 63.1172 59.3826L61.0538 57.3194C61.9059 55.4646 62.346 53.4472 62.3438 51.406V48.7991C61.0709 46.3357 58.8711 44.5233 55.7813 43.9456V56.3368C55.7813 59.224 54.8884 62.1358 53.3383 64.6317C56.0285 63.5643 58.3316 61.7057 59.943 59.3015L61.25 60.6086V65.6248C61.25 65.7684 61.2783 65.9106 61.3333 66.0433C61.3882 66.176 61.4688 66.2966 61.5704 66.3982L64.8516 69.6794C65.8272 70.6719 67.401 69.1181 66.3985 68.1326Z" fill="white"/>
</g>
<defs>
<clipPath id="clip0_673_47581">
<rect width="70" height="70" fill="white"/>
</clipPath>
</defs>
</svg>
