<svg width="70" height="70" viewBox="0 0 70 70" fill="none" xmlns="http://www.w3.org/2000/svg">
<path d="M66.0821 18.0837V9.49345C66.083 7.74692 65.3994 6.06973 64.1781 4.82221L61.8775 2.5195C61.0763 1.69604 59.9767 1.23117 58.8283 1.23047H58.8184C57.6664 1.23012 56.5626 1.69405 55.7562 2.51751L52.3032 6.00951L50.5697 4.49296C50.1807 4.14431 49.6764 3.95245 49.1543 3.9542C48.5816 3.95724 48.0333 4.18675 47.6291 4.59269L47.4228 4.79917L46.7311 4.10082C45.3638 2.71405 43.4982 1.93338 41.5517 1.93338C39.6051 1.93338 37.7394 2.71405 36.3721 4.10082C33.5232 6.99864 33.5232 11.648 36.3721 14.5457L37.0799 15.2621L37.043 15.299C36.1955 16.1633 36.1955 17.5476 37.043 18.4119L54.1782 35.741C54.3844 35.9512 54.6663 36.0696 54.9607 36.0696C55.2551 36.0696 55.5371 35.9512 55.7433 35.741L69.0507 22.2919C69.2706 22.0656 69.3893 21.7595 69.3796 21.4439C69.3705 21.1287 69.2294 20.8319 68.9909 20.6258L66.0821 18.0837ZM38.4784 13.8385L37.7866 13.1401C35.703 11.0218 35.703 7.62205 37.7866 5.50372C38.7794 4.49589 40.1345 3.92848 41.5486 3.92848C42.9627 3.92848 44.3178 4.49589 45.3106 5.50372L46.0224 6.21903L38.4784 13.8385ZM64.0884 16.3277L53.8093 7.32637L57.1735 3.92415C57.6055 3.47869 58.199 3.22685 58.8193 3.2258C59.4369 3.22826 60.0274 3.4801 60.457 3.92415L62.7617 6.23388C63.6117 7.10527 64.0866 8.27551 64.0845 9.49333L64.0884 16.3277Z" fill="#00730C"/>
<path fill-rule="evenodd" clip-rule="evenodd" d="M34.449 28.1262V32.2597H49.2876L43.4852 26.405L34.449 28.1262Z" fill="#00730C"/>
<path fill-rule="evenodd" clip-rule="evenodd" d="M26.6255 24.6969V36.7776C26.6162 37.0583 26.785 37.3144 27.0466 37.4165C27.2916 37.5259 27.5788 37.4672 27.7611 37.2704L31.8411 33.0417V27.6516L27.8485 24.2927C27.7058 24.1266 27.5014 24.0262 27.2827 24.0149C27.2016 24.015 27.1213 24.0314 27.0466 24.0632C26.7868 24.1646 26.6185 24.4181 26.6255 24.6969Z" fill="#00730C"/>
<path fill-rule="evenodd" clip-rule="evenodd" d="M20.1059 34.8674C17.9455 34.8674 16.1941 36.6189 16.1941 38.7792V41.3871C16.1941 42.1073 16.778 42.691 17.498 42.691C18.2181 42.691 18.8018 42.1073 18.8018 41.3871V38.7792C18.8018 38.059 19.3857 37.4753 20.1057 37.4753C20.8259 37.4753 21.4096 36.8916 21.4096 36.1715C21.4096 35.4513 20.826 34.8674 20.1059 34.8674Z" fill="#00730C"/>
<path fill-rule="evenodd" clip-rule="evenodd" d="M20.1059 29.6519C15.0676 29.6583 10.9849 33.741 10.9785 38.7793V41.3871C10.9785 42.1073 11.5622 42.691 12.2823 42.691C13.0025 42.691 13.5862 42.1073 13.5862 41.3871V38.7793C13.5905 35.1804 16.5069 32.264 20.1059 32.2596C20.826 32.2596 21.4097 31.6759 21.4097 30.9557C21.4097 30.2356 20.826 29.6519 20.1059 29.6519Z" fill="#00730C"/>
<path fill-rule="evenodd" clip-rule="evenodd" d="M20.1058 24.4363C12.1882 24.4456 5.77196 30.8618 5.76263 38.7795V41.3872C5.76263 42.1074 6.3465 42.6911 7.0665 42.6911C7.78651 42.6911 8.37037 42.1074 8.37037 41.3872V38.7793C8.37756 32.3011 13.6274 27.0512 20.1057 27.044C20.8258 27.044 21.4095 26.4602 21.4095 25.7401C21.4097 25.02 20.826 24.4363 20.1058 24.4363Z" fill="#00730C"/>
<path fill-rule="evenodd" clip-rule="evenodd" d="M44.8803 67.4655C44.8803 66.7453 44.2966 66.1616 43.5764 66.1616H24.0176V62.7061C24.2742 62.3826 24.5485 62.0736 24.8391 61.7803C25.1141 61.4857 25.4057 61.2069 25.7127 60.9458H33.145C38.1836 60.94 42.2668 56.8569 42.2724 51.8184V46.7461C39.8648 48.3568 37.0326 49.2146 34.1359 49.2105C29.6616 49.2134 25.8276 52.4113 25.0215 56.8123L24.7477 58.3509C24.0198 58.9205 23.3395 59.5484 22.7136 60.2285C22.0877 59.5484 21.4074 58.9205 20.6795 58.3509L20.4057 56.8123C19.5996 52.4111 15.7656 49.2134 11.2912 49.2105C8.39455 49.2146 5.56234 48.3568 3.15477 46.7461V51.8184C3.16058 56.8569 7.24363 60.9401 12.2822 60.9458H19.7145C20.3312 61.4805 20.8986 62.0697 21.4096 62.7061V66.1614H1.85075C1.13058 66.1614 0.546875 66.7453 0.546875 67.4653C0.546875 68.1853 1.13074 68.7693 1.8509 68.7693H43.5764C44.2966 68.7693 44.8803 68.1856 44.8803 67.4655Z" fill="#00730C"/>
</svg>
