<svg width="21" height="21" viewBox="0 0 21 21" fill="none" xmlns="http://www.w3.org/2000/svg">
<g clip-path="url(#clip0_8172_6187)">
<path d="M10.3575 10.1341C11.681 10.1341 12.827 9.65938 13.7635 8.72279C14.6998 7.78636 15.1747 6.64058 15.1747 5.31689C15.1747 3.99365 14.7 2.84771 13.7634 1.91098C12.8268 0.9747 11.6809 0.5 10.3575 0.5C9.03378 0.5 7.888 0.9747 6.95157 1.91113C6.01514 2.84756 5.54028 3.99349 5.54028 5.31689C5.54028 6.64058 6.01514 7.78652 6.95157 8.72295C7.8883 9.65922 9.03423 10.1341 10.3575 10.1341ZM7.78042 2.73983C8.49896 2.0213 9.34185 1.67203 10.3575 1.67203C11.3729 1.67203 12.216 2.0213 12.9347 2.73983C13.6532 3.45852 14.0026 4.30157 14.0026 5.31689C14.0026 6.33251 13.6532 7.1754 12.9347 7.89409C12.216 8.61278 11.3729 8.96205 10.3575 8.96205C9.34216 8.96205 8.49926 8.61263 7.78042 7.89409C7.06173 7.17555 6.71231 6.33251 6.71231 5.31689C6.71231 4.30157 7.06173 3.45852 7.78042 2.73983Z" fill="white"/>
<path d="M18.7863 15.8789C18.7592 15.4892 18.7046 15.064 18.6242 14.6151C18.543 14.1629 18.4385 13.7353 18.3134 13.3445C18.184 12.9406 18.0084 12.5418 17.7909 12.1595C17.5656 11.7628 17.3007 11.4174 17.0034 11.1331C16.6926 10.8357 16.312 10.5966 15.872 10.4222C15.4334 10.2487 14.9475 10.1608 14.4276 10.1608C14.2234 10.1608 14.026 10.2446 13.6447 10.4928C13.41 10.6459 13.1355 10.8229 12.8291 11.0186C12.5671 11.1856 12.2122 11.342 11.7738 11.4836C11.3461 11.622 10.9118 11.6922 10.483 11.6922C10.0546 11.6922 9.62032 11.622 9.19231 11.4836C8.75438 11.3421 8.39931 11.1857 8.13778 11.0188C7.83428 10.8249 7.55962 10.6479 7.32143 10.4927C6.94042 10.2444 6.74297 10.1606 6.53881 10.1606C6.01879 10.1606 5.53295 10.2487 5.09457 10.4223C4.65481 10.5964 4.27411 10.8355 3.96298 11.1332C3.66574 11.4177 3.40085 11.763 3.17563 12.1595C2.95849 12.5418 2.78271 12.9405 2.65332 13.3447C2.52835 13.7355 2.42383 14.1629 2.34265 14.6151C2.26208 15.0634 2.20761 15.4887 2.1806 15.8793C2.15405 16.2613 2.14062 16.6587 2.14062 17.0604C2.14062 18.1044 2.4725 18.9495 3.12695 19.5729C3.77331 20.1879 4.62841 20.4998 5.6686 20.4998H15.2987C16.3386 20.4998 17.1937 20.1879 17.8402 19.5729C18.4948 18.95 18.8267 18.1045 18.8267 17.0602C18.8265 16.6572 18.813 16.2597 18.7863 15.8789ZM17.0321 18.7237C16.605 19.1302 16.038 19.3278 15.2986 19.3278H5.6686C4.92901 19.3278 4.362 19.1302 3.93506 18.7239C3.5162 18.3251 3.31265 17.7809 3.31265 17.0604C3.31265 16.6856 3.32501 16.3156 3.34973 15.9603C3.37384 15.6118 3.42312 15.229 3.49621 14.8222C3.56839 14.4204 3.66025 14.0434 3.7695 13.7021C3.87433 13.3748 4.0173 13.0507 4.19461 12.7385C4.36383 12.4409 4.55853 12.1856 4.77337 11.9799C4.97433 11.7875 5.22763 11.6301 5.52609 11.512C5.80212 11.4027 6.11233 11.3429 6.44909 11.3339C6.49013 11.3557 6.56322 11.3974 6.68163 11.4746C6.92257 11.6316 7.20028 11.8107 7.50728 12.0068C7.85335 12.2274 8.29921 12.4267 8.8319 12.5987C9.37648 12.7748 9.9319 12.8642 10.4832 12.8642C11.0345 12.8642 11.5901 12.7748 12.1344 12.5988C12.6675 12.4266 13.1132 12.2274 13.4597 12.0065C13.7739 11.8057 14.0438 11.6317 14.2848 11.4746C14.4032 11.3975 14.4763 11.3557 14.5173 11.3339C14.8542 11.3429 15.1644 11.4027 15.4406 11.512C15.7389 11.6301 15.9922 11.7877 16.1932 11.9799C16.408 12.1855 16.6027 12.4408 16.7719 12.7386C16.9494 13.0507 17.0925 13.3749 17.1972 13.7019C17.3066 14.0437 17.3986 14.4206 17.4706 14.822C17.5436 15.2296 17.593 15.6126 17.6171 15.9605V15.9608C17.642 16.3147 17.6545 16.6845 17.6547 17.0604C17.6545 17.781 17.451 18.3251 17.0321 18.7237Z" fill="white"/>
</g>
<defs>
<clipPath id="clip0_8172_6187">
<rect width="20" height="20" fill="white" transform="translate(0.5 0.5)"/>
</clipPath>
</defs>
</svg>
