<svg width="50" height="50" viewBox="0 0 50 50" fill="none" xmlns="http://www.w3.org/2000/svg">
<g clip-path="url(#clip0_6904_31608)">
<path d="M46.875 38.2812H42.8578C42.5086 36.9367 41.2961 35.9375 39.8438 35.9375V30.4484C40.4984 30.9445 41.3047 31.25 42.1875 31.25C44.3414 31.25 46.0938 29.4977 46.0938 27.3438C46.0938 27.0992 46.0687 26.8531 46.0187 26.607C47.043 25.8812 47.6562 24.7172 47.6562 23.4375C47.6562 22.3352 47.2 21.3148 46.4047 20.5844C46.7109 20.0187 46.875 19.3883 46.875 18.75C46.875 17.7805 46.5109 16.8578 45.8609 16.1437C46.0156 15.7211 46.0938 15.2859 46.0938 14.8438C46.0938 12.8438 44.5836 11.1906 42.6437 10.9641C42.0383 9.54297 40.6398 8.59375 39.0625 8.59375C37.4852 8.59375 36.0867 9.54297 35.4813 10.9641C33.5414 11.1906 32.0312 12.8438 32.0312 14.8438C32.0312 15.2859 32.1094 15.7211 32.2641 16.1437C31.8547 16.593 31.575 17.1297 31.4117 17.7039C30.4555 16.8867 29.3312 16.4062 28.125 16.4062C26.6375 16.4062 25.2719 17.1266 24.1977 18.3242C24.0977 17.2773 23.632 16.2773 22.8852 15.5305L20.6359 13.2812H24.2188V11.7078C24.2188 10.975 23.8539 10.2758 23.243 9.83828C20.4172 7.81328 18.1375 5.08281 16.6523 1.94062C16.3141 1.225 15.6203 0.78125 14.8438 0.78125C14.0672 0.78125 13.3734 1.225 13.0352 1.94062C11.5508 5.08281 9.27109 7.81406 6.44375 9.83828C5.83359 10.2758 5.46875 10.975 5.46875 11.7078V13.2812H9.05156L6.80234 15.5305C5.95469 16.3781 5.46875 17.5516 5.46875 18.75V19.5312H9.05156L6.80234 21.7805C5.95469 22.6281 5.46875 23.8016 5.46875 25V25.7812H14.0625V28.9062C12.0625 28.9062 10.4094 30.4164 10.1828 32.3563C8.76172 32.9617 7.8125 34.3602 7.8125 35.9375C7.8125 36.8008 8.10078 37.6305 8.59141 38.2812C7.3 38.2828 6.25 39.3336 6.25 40.625C6.25 41.0563 5.9 41.4062 5.46875 41.4062H3.125C1.83281 41.4062 0.78125 42.4578 0.78125 43.75C0.78125 45.0422 1.83281 46.0938 3.125 46.0938H7.175C7.0875 46.3391 7.03125 46.6 7.03125 46.875C7.03125 48.1672 8.08281 49.2188 9.375 49.2188H39.8438C41.1359 49.2188 42.1875 48.1672 42.1875 46.875C42.1875 45.5828 41.1359 44.5312 39.8438 44.5312H38.2812H37.5C37.0687 44.5312 36.7188 44.1813 36.7188 43.75C36.7188 43.3187 37.0687 42.9688 37.5 42.9688H46.875C48.1672 42.9688 49.2188 41.9172 49.2188 40.625C49.2188 39.3328 48.1672 38.2812 46.875 38.2812ZM41.1797 38.2812H30.6992C30.8836 37.9719 31.1625 37.7203 31.5211 37.5953L32.0633 37.4062L32.0445 36.832C32.043 36.782 32.0375 36.7336 32.0312 36.7188C32.0312 35.4266 33.0828 34.375 34.375 34.375C35.2094 34.375 35.9875 34.8359 36.4062 35.5773L36.5914 35.9062L36.9648 35.9648C37.5664 36.0602 38.0586 36.5031 38.2188 37.0945L38.4484 37.943L39.2641 37.6148C40.0156 37.3148 40.8039 37.6633 41.1797 38.2812ZM28.9062 33.5195C30.6484 33.2188 32.1664 31.9297 33.1594 30.0719C33.882 30.8031 34.8766 31.25 35.9375 31.25C36.8203 31.25 37.6266 30.9445 38.2812 30.4484V34.8172C38.0594 34.6875 37.8266 34.575 37.575 34.5031C36.8484 33.4516 35.6531 32.8125 34.375 32.8125C32.343 32.8125 30.6688 34.3719 30.4852 36.3563C29.7508 36.775 29.2203 37.4727 29.0086 38.2812H28.9062V33.5195ZM33.6945 16.9367L34.2016 16.5273L33.8898 15.9555C33.6938 15.5938 33.5938 15.2195 33.5938 14.8438C33.5938 13.5516 34.6453 12.5 35.8867 12.4977L36.6453 12.5367L36.8016 11.9227C37.0664 10.8828 37.9969 10.1562 39.0625 10.1562C40.1281 10.1562 41.0586 10.8828 41.3242 11.9227L41.4805 12.5367L42.1148 12.5102C42.1562 12.5086 42.1977 12.5039 42.1875 12.5C43.4797 12.5 44.5312 13.5516 44.5312 14.8438C44.5312 15.2195 44.4312 15.5938 44.2352 15.9547L43.9234 16.5266L44.4305 16.9359C44.9914 17.3891 45.3125 18.05 45.3125 18.75C45.3125 19.4438 45.0039 19.9516 44.7453 20.2563L44.1477 20.9602L44.9414 21.432C45.6625 21.8633 46.0938 22.6125 46.0938 23.4375C46.0938 24.3367 45.5844 25.143 44.7625 25.5391L44.1195 25.85L44.3719 26.518C44.4781 26.7992 44.5312 27.0766 44.5312 27.3438C44.5312 28.6359 43.4797 29.6875 42.1875 29.6875C40.8953 29.6875 39.8438 28.6359 39.8438 27.3438V25.275L42.7977 21.582L41.5766 20.6055L39.8438 22.7719V14.8438H38.2812V19.6469L36.5477 17.4805L35.3266 18.457L38.2812 22.15V27.3438C38.2812 28.6359 37.2297 29.6875 35.9375 29.6875C35.0602 29.6875 34.2563 29.182 33.8578 28.4133C34.1891 27.3656 34.375 26.2125 34.375 25C34.375 22.8289 33.782 20.8492 32.8125 19.3352V18.75C32.8125 18.05 33.1336 17.3891 33.6945 16.9367ZM28.125 17.9688C30.7102 17.9688 32.8125 21.1227 32.8125 25C32.8125 28.4773 31.1195 31.3648 28.9062 31.9258V26.0563L31.8602 22.3633L30.6391 21.3867L28.9062 23.5531V21.0938H27.3438V27.107L25.65 24.5664L24.35 25.4328L27.3438 29.9242V31.9258C25.1305 31.3656 23.4375 28.4773 23.4375 25C23.4375 21.1227 25.5398 17.9688 28.125 17.9688ZM23.3078 19.5312C22.9734 20.0867 22.6953 20.7055 22.4703 21.3648L20.6359 19.5312H23.3078ZM7.90703 22.8852L11.2609 19.5312H12.5V17.9688H7.13672C7.27344 17.468 7.53828 17.0047 7.90703 16.6352L11.2609 13.2812H12.5V11.7188H7.03125V11.7078C7.03125 11.4742 7.14844 11.2555 7.35391 11.1078C10.3969 8.92969 12.8492 5.98984 14.4477 2.60859C14.6016 2.28047 15.0852 2.28047 15.2398 2.60859C16.8383 5.98984 19.2914 8.92969 22.3328 11.1078C22.5391 11.2555 22.6562 11.475 22.6562 11.7078L17.1875 11.7188V13.2812H18.4266L21.7805 16.6352C22.15 17.0047 22.4148 17.468 22.5508 17.9688H17.1875V19.5312H18.4266L21.7805 22.8852C21.868 22.9727 21.9477 23.0648 22.0227 23.1609C21.968 23.5063 21.9273 23.8586 21.9039 24.2188H7.13672C7.27344 23.718 7.5375 23.2547 7.90703 22.8852ZM15.625 25.7812H21.9039C22.1688 29.7984 24.4516 33.0203 27.3438 33.5195V38.2812H24.2062C24.7117 37.6094 25 36.7914 25 35.9375C25 33.7836 23.2477 32.0312 21.0938 32.0312C20.8492 32.0312 20.6023 32.0562 20.357 32.1063C19.6312 31.082 18.468 30.4688 17.1875 30.4688C17.182 30.4688 17.1758 30.4688 17.1711 30.4688C16.7656 29.9289 16.2289 29.5133 15.625 29.2453V25.7812ZM11.1414 33.6758L11.7555 33.5195L11.7289 32.8852C11.7273 32.8477 11.7234 32.8102 11.7195 32.8102C11.7195 32.8102 11.7188 32.8109 11.7188 32.8117C11.7188 31.5195 12.7703 30.468 14.0625 30.468C14.8992 30.468 15.6773 30.9297 16.0953 31.6727L16.4242 32.1289L16.9531 32.0547C17.0297 32.0453 17.107 32.0312 17.1875 32.0312C18.0875 32.0312 18.893 32.5406 19.2891 33.3617L19.6 34.007L20.2695 33.7523C21.8773 33.143 23.4383 34.3758 23.4375 35.9375C23.4375 36.6094 23.1484 37.2508 22.643 37.6953L22.1906 38.2812H10.7164L10.1687 37.6953C9.66406 37.2508 9.375 36.6094 9.375 35.9375C9.375 34.8719 10.1016 33.9414 11.1414 33.6758ZM46.875 41.4062H37.5C36.2078 41.4062 35.1562 42.4578 35.1562 43.75C35.1562 44.025 35.2125 44.2859 35.3 44.5312H33.5938V46.0938H37.5H38.2812H39.8438C40.275 46.0938 40.625 46.4437 40.625 46.875C40.625 47.3063 40.275 47.6562 39.8438 47.6562H9.375C8.94375 47.6562 8.59375 47.3063 8.59375 46.875C8.59375 46.4437 8.94375 46.0938 9.375 46.0938H11.7188H14.0625V44.5312H11.7188H9.375H3.125C2.69375 44.5312 2.34375 44.1813 2.34375 43.75C2.34375 43.3187 2.69375 42.9688 3.125 42.9688H5.46875C6.76094 42.9688 7.8125 41.9172 7.8125 40.625C7.8125 40.1937 8.1625 39.8438 8.59375 39.8438H46.875C47.3063 39.8438 47.6562 40.1937 47.6562 40.625C47.6562 41.0563 47.3063 41.4062 46.875 41.4062Z" fill="#00730C"/>
<path d="M18.75 43.3594C18.75 42.282 17.8742 41.4062 16.7969 41.4062H14.0625V42.9688H16.7969C17.0117 42.9688 17.1875 43.1445 17.1875 43.3594C17.1875 44.4367 18.0633 45.3125 19.1406 45.3125H21.875V43.75H19.1406C18.9258 43.75 18.75 43.5742 18.75 43.3594Z" fill="#00730C"/>
</g>
<defs>
<clipPath id="clip0_6904_31608">
<rect width="50" height="50" fill="white"/>
</clipPath>
</defs>
</svg>
