<svg width="50" height="50" viewBox="0 0 50 50" fill="none" xmlns="http://www.w3.org/2000/svg">
<g clip-path="url(#clip0_6904_22921)">
<path d="M49.268 46.9897H48.6015C48.267 43.3822 45.4865 40.4464 41.8991 39.9253C41.7835 38.325 41.2411 36.8026 40.313 35.4876C40.0795 35.1573 39.6229 35.0783 39.2925 35.3114C38.9622 35.5449 38.8832 36.0015 39.1163 36.3318C39.994 37.5754 40.4579 39.0422 40.4579 40.5742V40.5883C40.4579 40.9755 40.7597 41.2959 41.1465 41.3192C44.278 41.5065 46.7808 43.9368 47.1294 46.9897H2.86789C3.21655 43.9368 5.71938 41.5065 8.85086 41.3192C9.23767 41.2959 9.53941 40.9755 9.53941 40.5883V40.5742C9.53941 36.513 12.8433 33.2091 16.9044 33.2091C16.9907 33.2091 17.0765 33.211 17.1627 33.2141C17.1658 33.2141 17.1688 33.2148 17.1722 33.2148C17.173 33.2148 17.1738 33.2145 17.1745 33.2145C17.3988 33.2229 17.6212 33.2408 17.8391 33.2694C18.1057 33.3045 18.3704 33.1901 18.5284 32.9715C20.126 30.754 22.7081 29.4303 25.436 29.4303C28.1349 29.4303 30.7022 30.7322 32.3032 32.9131C32.4413 33.1008 32.6607 33.2122 32.8938 33.2122C32.9315 33.2122 32.9693 33.211 33.0078 33.2103C33.0368 33.2099 33.0658 33.2091 33.0956 33.2091C34.3967 33.2091 35.6785 33.5547 36.8023 34.2086C37.1517 34.4119 37.5999 34.2936 37.8033 33.9442C38.007 33.5948 37.8883 33.1466 37.5389 32.9429C36.2373 32.1856 34.7595 31.7733 33.2546 31.7462C31.9126 30.0574 30.0602 28.8592 28.0094 28.3076C27.985 26.0425 27.7687 23.8349 27.3773 21.8905C27.2976 21.4942 26.9115 21.2371 26.5152 21.3168C26.1185 21.3969 25.8617 21.783 25.9418 22.1793C26.2981 23.9516 26.503 25.9581 26.5411 28.0284C26.1757 27.9872 25.8068 27.9658 25.436 27.9658C22.382 27.9658 19.4839 29.3811 17.5987 31.7721C17.5407 31.7675 17.4824 31.7653 17.424 31.7618C12.2177 28.0455 9.26285 24.171 9.31206 21.1116C9.33723 19.5521 10.1444 18.151 11.7123 16.9375L12.2475 17.921C12.4504 18.2994 12.7895 18.5748 13.2027 18.6969C13.3537 18.7415 13.5082 18.7636 13.6616 18.7636C13.9236 18.7636 14.1834 18.6992 14.4207 18.5721C14.4222 18.5714 14.4234 18.5706 14.4249 18.5698L16.4883 17.4479C17.2649 17.0241 17.5522 16.0479 17.1295 15.2736L16.6248 14.3458C18.4116 13.7729 19.9738 13.7732 21.278 14.3485C22.8786 15.0546 24.1524 16.6362 25.0637 19.0493C25.1743 19.3423 25.4528 19.5228 25.7488 19.5228C25.8347 19.5228 25.922 19.5079 26.0075 19.4755C26.3855 19.3328 26.5766 18.9101 26.4336 18.5317C25.378 15.7374 23.8422 13.8793 21.8689 13.0088C20.1595 12.2546 18.1587 12.2676 15.9149 13.0408L15.345 11.9929C15.6464 10.9599 15.5312 9.875 15.02 8.93735L12.1574 3.66925C11.6451 2.72588 10.7922 2.03733 9.75647 1.73101C8.7204 1.4243 7.63016 1.53836 6.68602 2.05182C5.74188 2.56414 5.05295 3.41748 4.74625 4.45432C4.43993 5.49077 4.5536 6.58101 5.06592 7.52439L7.92847 12.7898C8.44231 13.7343 9.29604 14.4233 10.3317 14.73C10.4008 14.7506 10.4706 14.767 10.5404 14.7838L11.0043 15.6367C8.94318 17.1615 7.88155 18.9925 7.84798 21.0879C7.78046 25.2879 11.8881 29.3445 15.1798 31.9144C11.3407 32.6777 8.38966 35.9382 8.0986 39.9253C4.51088 40.4464 1.73035 43.3822 1.3958 46.9897H0.73204C0.327683 46.9897 0 47.3178 0 47.7221C0 48.1265 0.327683 48.4542 0.73204 48.4542H49.268C49.6723 48.4542 50 48.1265 50 47.7221C50 47.3178 49.6723 46.9897 49.268 46.9897ZM14.5103 13.5234L15.8436 15.9743C15.8794 16.0403 15.8535 16.1265 15.7875 16.1624L13.728 17.282C13.6822 17.306 13.6398 17.2992 13.6181 17.2927C13.5933 17.2854 13.5597 17.2686 13.5365 17.2252L12.2322 14.8288C12.6373 14.7517 13.0318 14.6117 13.4033 14.4095C13.8283 14.1784 14.2006 13.8778 14.5103 13.5234ZM10.7475 13.3258C10.0864 13.1301 9.54208 12.691 9.21516 12.0902L6.353 6.82515C6.02722 6.2251 5.95512 5.53083 6.15082 4.86974C6.34613 4.20827 6.78444 3.66468 7.38449 3.3389C7.38487 3.3389 7.38525 3.3389 7.38564 3.33852C7.76443 3.13253 8.181 3.02762 8.60329 3.02762C8.84933 3.02762 9.09767 3.0631 9.34143 3.1352C10.0021 3.33089 10.5453 3.76882 10.8711 4.36849L13.7341 9.63735C14.0602 10.2359 14.1327 10.9294 13.9374 11.5905C13.9175 11.6572 13.895 11.7221 13.8702 11.7865C13.8691 11.79 13.8668 11.7934 13.8653 11.7972C13.8584 11.8152 13.8515 11.8342 13.8443 11.8529C13.62 12.3958 13.2225 12.8409 12.7037 13.1228C12.2253 13.383 11.6875 13.481 11.1542 13.4116C11.1435 13.4101 11.1328 13.4082 11.1225 13.4066C11.1183 13.4059 11.1137 13.4063 11.1092 13.4055C10.9882 13.3876 10.8673 13.3613 10.7475 13.3258Z" fill="#00730C"/>
<path d="M20.2233 38.2814C18.5582 37.3418 16.4201 37.396 15.1395 38.41C14.3014 39.0737 13.9855 40.0411 14.2697 41.0684C14.2755 41.0943 14.2827 41.1199 14.2915 41.1455C14.6008 42.1625 15.3935 42.8529 16.417 42.9944C16.5486 43.0128 16.6814 43.0215 16.8145 43.0215C18.2061 43.0215 19.6687 42.0431 20.7131 40.3833C20.72 40.3718 20.7269 40.3608 20.7333 40.349C21.1842 39.5387 21.005 38.7723 20.2538 38.2997C20.2439 38.2932 20.2336 38.2871 20.2233 38.2814ZM19.4619 39.6215C18.4667 41.1928 17.3085 41.6399 16.6181 41.5437C16.1565 41.48 15.8368 41.1947 15.6922 40.7186C15.6903 40.7114 15.6884 40.7045 15.6865 40.6972C15.5511 40.2307 15.6697 39.8584 16.0485 39.5582C16.7523 39.0008 18.2275 38.846 19.4863 39.5471C19.4894 39.549 19.4924 39.5509 19.4951 39.5532C19.4875 39.5715 19.4768 39.594 19.4619 39.6215Z" fill="#00730C"/>
<path d="M28.898 35.9001C29.0078 34.9835 28.5516 34.343 27.6769 34.187C27.6635 34.1843 27.6502 34.1824 27.6365 34.1809C25.7386 33.9497 23.7832 34.8168 22.9879 36.2423C22.4676 37.1743 22.5442 38.1874 23.1969 39.0278C23.2107 39.0473 23.2251 39.066 23.2408 39.0843C23.7653 39.7282 24.4863 40.0757 25.2534 40.0757C25.4724 40.0757 25.6948 40.0475 25.9176 39.9899C27.3889 39.6076 28.5291 38.0551 28.8926 35.9368C28.8949 35.9246 28.8968 35.9123 28.898 35.9001ZM27.4461 35.709C27.1257 37.542 26.2254 38.3969 25.5494 38.5723C25.1008 38.6887 24.6991 38.5494 24.3848 38.1703C24.3791 38.1623 24.373 38.1542 24.3669 38.1466C24.064 37.7674 24.0312 37.378 24.2666 36.956C24.7037 36.1733 26.0068 35.4672 27.4369 35.632C27.4419 35.6327 27.4465 35.6339 27.4507 35.6346C27.4503 35.6545 27.4492 35.6789 27.4461 35.709Z" fill="#00730C"/>
<path d="M28.5259 44.4115C29.0515 45.063 29.7775 45.4155 30.5496 45.4155C30.7693 45.4155 30.9924 45.3869 31.216 45.3286C32.6873 44.9456 33.8264 43.3915 34.1884 41.2735C34.1903 41.2617 34.1922 41.2499 34.1937 41.2377C34.3044 40.3187 33.8478 39.679 32.9723 39.5264C32.9601 39.5245 32.9479 39.5226 32.9357 39.5211C31.0371 39.288 29.0817 40.1547 28.2844 41.5814C27.7614 42.5179 27.8404 43.5356 28.5007 44.3783C28.5087 44.3898 28.5171 44.4008 28.5259 44.4115ZM29.5627 42.2955C30.001 41.5112 31.3068 40.8047 32.7365 40.9722C32.74 40.9726 32.743 40.9733 32.7461 40.9741C32.7457 40.9932 32.7445 41.0172 32.7415 41.0466C32.4226 42.8795 31.5227 43.7355 30.8467 43.9114C30.4004 44.0277 29.9995 43.8908 29.6852 43.5158C29.6749 43.5021 29.6646 43.4887 29.6535 43.4758C29.359 43.1 29.3292 42.714 29.5627 42.2955Z" fill="#00730C"/>
</g>
<defs>
<clipPath id="clip0_6904_22921">
<rect width="50" height="50" fill="white"/>
</clipPath>
</defs>
</svg>
