<svg width="30" height="30" viewBox="0 0 30 30" fill="none" xmlns="http://www.w3.org/2000/svg">
<mask id="mask0_7594_3909" style="mask-type:alpha" maskUnits="userSpaceOnUse" x="0" y="0" width="30" height="30">
<rect width="30" height="30" fill="#C4C4C4"/>
</mask>
<g mask="url(#mask0_7594_3909)">
<path d="M15.4942 5.2654C13.9239 5.5104 12.6884 6.43021 12.0348 7.84002C11.5645 8.863 11.4689 9.48624 11.4689 11.6053V13.1053H10.1178C9.3685 13.1053 8.71887 13.1225 8.66705 13.144C8.61126 13.1698 8.52756 13.23 8.48372 13.2816C8.40002 13.3761 8.40002 13.4062 8.40002 15.3576C8.40002 17.1714 8.408 17.3477 8.47176 17.4293C8.60727 17.6142 8.65908 17.6185 10.0899 17.6185H11.4689V22.2605V26.9026L11.5844 27.0401L11.7 27.182L13.5573 27.1949C15.1953 27.2035 15.4305 27.1992 15.5381 27.139C15.7852 27.0015 15.7732 27.2164 15.7732 22.1961V17.6185H17.3674C18.5152 17.6185 18.9855 17.6056 19.0613 17.5669C19.2805 17.4594 19.2805 17.4422 19.2805 15.3447V13.4062L19.1649 13.2687L19.0493 13.1268L17.4073 13.1139L15.7692 13.101L15.7812 11.7127L15.7931 10.3287L15.9127 10.0751C16.0442 9.80001 16.2634 9.61519 16.5584 9.52922C16.6421 9.50343 17.2319 9.47764 17.8656 9.46905C18.5033 9.45615 19.0652 9.43896 19.1131 9.42607C19.1649 9.41317 19.2526 9.353 19.3044 9.29282L19.4 9.18107V7.32424C19.4 5.5018 19.4 5.46741 19.3163 5.37285C19.2725 5.32127 19.1888 5.2611 19.133 5.23531C18.9736 5.17084 15.9406 5.19662 15.4942 5.2654Z" fill="white"/>
</g>
</svg>
