<svg width="31" height="32" viewBox="0 0 31 32" fill="none" xmlns="http://www.w3.org/2000/svg">
<mask id="mask0_7594_3898" style="mask-type:alpha" maskUnits="userSpaceOnUse" x="0" y="1" width="31" height="31">
<rect x="0.199951" y="1.2002" width="30" height="30" fill="#C4C4C4"/>
</mask>
<g mask="url(#mask0_7594_3898)">
<path d="M26.6328 15.7408V12.5083H24.9492V15.7408H21.582V17.3571H24.9492V20.5896H26.6328V17.3571H30V15.7408H26.6328Z" fill="white"/>
<path d="M10.1285 15.5424V19.3424H15.5036C14.7189 21.554 12.6061 23.1424 10.1285 23.1424C6.98594 23.1424 4.42854 20.585 4.42854 17.4424C4.42854 14.2998 6.98594 11.7424 10.1285 11.7424C11.4908 11.7424 12.8018 12.2307 13.8202 13.118L16.3168 10.2528C14.6068 8.76318 12.4104 7.94238 10.1285 7.94238C4.89024 7.94238 0.62854 12.2041 0.62854 17.4424C0.62854 22.6807 4.89024 26.9424 10.1285 26.9424C15.3668 26.9424 19.6285 22.6807 19.6285 17.4424V15.5424H10.1285Z" fill="white"/>
</g>
</svg>
