<svg width="30" height="30" viewBox="0 0 30 30" fill="none" xmlns="http://www.w3.org/2000/svg">
<path d="M26.1381 26.5308V26.5299H26.1436V18.4614C26.1436 14.5142 25.2938 11.4736 20.6793 11.4736C18.461 11.4736 16.9723 12.691 16.3646 13.8451H16.3004V11.8421H11.9252V26.5299H16.481V19.2571C16.481 17.3421 16.844 15.4905 19.2154 15.4905C21.552 15.4905 21.5868 17.6758 21.5868 19.3799V26.5308H26.1381Z" fill="white"/>
<path d="M4.36401 11.8433H8.92535V26.531H4.36401V11.8433Z" fill="white"/>
<path d="M6.64183 4.16504C5.18342 4.16504 4 5.34846 4 6.80687C4 8.26529 5.18342 9.47346 6.64183 9.47346C8.10025 9.47346 9.28367 8.26529 9.28367 6.80687C9.28275 5.34846 8.09933 4.16504 6.64183 4.16504V4.16504Z" fill="white"/>
</svg>
