<svg width="50" height="42" viewBox="0 0 50 42" fill="none" xmlns="http://www.w3.org/2000/svg">
<circle cx="25" cy="20" r="20" fill="#00730C"/>
<path opacity="0.1" d="M49.7074 29.2155C49.7074 45.9584 30.7463 40.8076 14.0034 40.8076C-2.73946 40.8076 0.555266 24.7277 0.555266 7.98479C0.555266 -8.75808 13.093 26.1985 29.8358 26.1985C46.5787 26.1985 49.7074 12.4727 49.7074 29.2155Z" fill="white"/>
<g clip-path="url(#clip0_6904_28755)">
<g filter="url(#filter0_d_6904_28755)">
<path d="M39.1473 18.6465L36.5007 21.2931L32.2077 17L34.8542 14.3535L34.1472 13.6465L31.1472 16.6465L28.7937 19H21.2076L18.8541 16.6465L15.854 13.6465L15.147 14.3535L17.7936 17L13.5005 21.2931L10.854 18.6465L10.147 19.3535L13.147 22.3536L15.647 24.8536L18.2971 27.4896L17.8971 27.8896C17.2904 28.4896 17.285 29.4679 17.885 30.0746C17.889 30.0787 17.893 30.0827 17.8971 30.0867C18.1756 30.3627 18.5481 30.5233 18.9401 30.5367C18.9545 30.9279 19.118 31.2987 19.3971 31.5732C19.6758 31.849 20.0482 32.0097 20.4401 32.0232C20.4553 32.415 20.6201 32.7861 20.9006 33.0602C21.1793 33.336 21.5517 33.4967 21.9436 33.5102C21.958 33.9014 22.1215 34.2722 22.4006 34.5467C23.0114 35.1501 23.9939 35.1501 24.6046 34.5467L25.0006 34.1502L25.3966 34.5437C26.0068 35.1528 26.9951 35.1519 27.6042 34.5417C27.8808 34.2646 28.0432 33.8938 28.0592 33.5027C28.4517 33.4885 28.8243 33.3268 29.1027 33.0497C29.3816 32.7735 29.5449 32.4014 29.5592 32.0092C29.9517 31.9948 30.3244 31.8329 30.6027 31.5557C30.8816 31.2795 31.0449 30.9074 31.0592 30.5152C31.9175 30.4855 32.5893 29.7657 32.5596 28.9074C32.546 28.5126 32.3826 28.1378 32.1027 27.8591L31.7237 27.4816L34.3532 24.8521L36.8532 22.3521L39.8533 19.352L39.1473 18.6465ZM14.2075 22.0001L18.5006 17.707L20.2936 19.5L16.0005 23.7931L14.2075 22.0001ZM19.4006 29.3756C19.1796 29.5964 18.8216 29.5964 18.6006 29.3756C18.386 29.1641 18.3835 28.8188 18.595 28.6042C18.5968 28.6023 18.5987 28.6005 18.6006 28.5986L19.0071 28.1956L19.8006 28.9796L19.4006 29.3756ZM20.8941 30.8642C20.6734 31.0798 20.3208 31.0794 20.1006 30.8632C19.8859 30.651 19.8838 30.305 20.096 30.0903C20.0975 30.0887 20.099 30.0872 20.1006 30.0857L20.5051 29.6857L21.2941 30.4697L20.8941 30.8642ZM22.4006 32.3502C22.1794 32.5704 21.8218 32.5704 21.6006 32.3502C21.386 32.1387 21.3835 31.7933 21.595 31.5787C21.5968 31.5769 21.5987 31.575 21.6006 31.5732L22.0036 31.1732L22.7921 31.9572L22.4006 32.3502ZM23.9006 33.8372C23.6799 34.0548 23.3254 34.0548 23.1046 33.8372C22.89 33.6257 22.8875 33.2803 23.099 33.0658C23.1009 33.0639 23.1027 33.062 23.1046 33.0602L23.5046 32.6627L24.2931 33.4467L23.9006 33.8372ZM31.4014 29.3519C31.4005 29.3528 31.3996 29.3537 31.3987 29.3546H31.4007C31.1809 29.5728 30.8264 29.5728 30.6067 29.3546L29.8567 28.6076C29.661 28.4127 29.3444 28.4133 29.1494 28.6089C28.9545 28.8045 28.955 29.1212 29.1507 29.3161L29.9007 30.0632C30.1176 30.2785 30.1188 30.629 29.9034 30.8459C29.9025 30.8469 29.9016 30.8477 29.9007 30.8487C29.6809 31.0668 29.3264 31.0668 29.1067 30.8487L28.3567 30.1017C28.161 29.9067 27.8443 29.9073 27.6494 30.1029C27.4545 30.2985 27.455 30.6152 27.6507 30.8102L28.4007 31.5572C28.6176 31.7725 28.6188 32.1231 28.4034 32.3399C28.4025 32.3409 28.4016 32.3417 28.4007 32.3427C28.1809 32.5608 27.8264 32.5608 27.6067 32.3427L26.8566 31.5957C26.661 31.4007 26.3443 31.4013 26.1494 31.5969C25.9544 31.7926 25.955 32.1092 26.1506 32.3042L26.9006 33.0512C27.1176 33.2666 27.1188 33.6171 26.9034 33.8339C26.9025 33.8349 26.9016 33.8358 26.9006 33.8367C26.6806 34.0546 26.3261 34.0546 26.1061 33.8367L16.7085 24.5001L21.2086 20.0001H22.8141L19.1441 23.7561C18.9526 23.952 18.9544 24.2654 19.1481 24.4591C19.7678 25.085 20.5998 25.4554 21.4796 25.4971C22.3648 25.544 23.2284 25.2126 23.8551 24.5856C23.8772 24.5637 23.8971 24.5398 23.9146 24.5141L24.0956 24.2486C25.1753 25.0999 26.5828 25.4156 27.9227 25.1071L31.3987 28.5691C31.6156 28.7845 31.6168 29.135 31.4014 29.3519ZM31.0192 26.7776L28.9217 24.6886L29.3007 24.4001C29.3185 24.3862 29.3352 24.371 29.3507 24.3546L29.8507 23.8546L29.1437 23.1476L28.6682 23.6231L28.2357 23.9491C26.9006 24.5202 25.3514 24.2011 24.3506 23.1491C24.1554 22.9538 23.8388 22.9538 23.6435 23.149C23.6215 23.171 23.6016 23.1949 23.5841 23.2206L23.1116 23.9121C22.6843 24.3166 22.1103 24.529 21.5226 24.5001C21.063 24.4764 20.6185 24.3273 20.2376 24.0691L24.2111 20.0001H28.7937L33.2937 24.5001L31.0192 26.7776ZM34.0007 23.7931L29.7077 19.5L31.5007 17.707L35.7937 22.0001L34.0007 23.7931Z" fill="white"/>
</g>
<g filter="url(#filter1_d_6904_28755)">
<path d="M16.5005 21.5001H15.5005V22.5001H16.5005V21.5001Z" fill="white"/>
</g>
<g filter="url(#filter2_d_6904_28755)">
<path d="M34.5005 21.5001H33.5005V22.5001H34.5005V21.5001Z" fill="white"/>
</g>
<g filter="url(#filter3_d_6904_28755)">
<path d="M26.0005 14.0001C28.2087 13.9976 29.9981 12.2082 30.0006 10.0001C30.0006 9.72392 29.7767 9.50005 29.5006 9.50005H28.5006C27.3508 9.50067 26.2573 9.99749 25.5005 10.8631V9.00004H26.0005C27.9326 8.99785 29.4984 7.43209 29.5006 5.50001C29.5006 5.22388 29.2767 5 29.0006 5H28.0006C26.7701 5.00194 25.631 5.64988 25.0005 6.70652C24.37 5.64988 23.231 5.00194 22.0005 5H21.0005C20.7244 5 20.5005 5.22388 20.5005 5.50001C20.5027 7.43209 22.0684 8.99785 24.0005 9.00004H24.5005V10.8631C23.7438 9.99749 22.6503 9.50067 21.5005 9.50005H20.5005C20.2244 9.50005 20.0005 9.72392 20.0005 10.0001C20.003 12.2082 21.7924 13.9976 24.0005 14.0001H24.5005V14.7931L21.2935 18.0001H22.7075L25.0005 15.7071L27.2936 18.0001H28.7076L25.5005 14.7931V14.0001H26.0005ZM28.5006 10.5001H28.9591C28.7131 11.9426 27.4639 12.9983 26.0005 13.0001H25.542C25.7879 11.5576 27.0372 10.5019 28.5006 10.5001ZM28.0006 6.00001H28.4506C28.2115 7.16334 27.1882 7.99872 26.0005 8.00003H25.5505C25.7895 6.83671 26.8129 6.00132 28.0006 6.00001ZM24.0005 8.00003C22.8129 7.99872 21.7896 7.16334 21.5505 6.00001H22.0005C23.1881 6.00132 24.2115 6.83671 24.4505 8.00003H24.0005ZM24.0005 13.0001C22.5372 12.9983 21.2879 11.9426 21.042 10.5001H21.5005C22.9638 10.5019 24.2131 11.5576 24.459 13.0001H24.0005Z" fill="white"/>
</g>
</g>
<defs>
<filter id="filter0_d_6904_28755" x="0.146973" y="7.64648" width="49.7063" height="41.3534" filterUnits="userSpaceOnUse" color-interpolation-filters="sRGB">
<feFlood flood-opacity="0" result="BackgroundImageFix"/>
<feColorMatrix in="SourceAlpha" type="matrix" values="0 0 0 0 0 0 0 0 0 0 0 0 0 0 0 0 0 0 127 0" result="hardAlpha"/>
<feOffset dy="4"/>
<feGaussianBlur stdDeviation="5"/>
<feComposite in2="hardAlpha" operator="out"/>
<feColorMatrix type="matrix" values="0 0 0 0 0 0 0 0 0 0 0 0 0 0 0 0 0 0 0.2 0"/>
<feBlend mode="normal" in2="BackgroundImageFix" result="effect1_dropShadow_6904_28755"/>
<feBlend mode="normal" in="SourceGraphic" in2="effect1_dropShadow_6904_28755" result="shape"/>
</filter>
<filter id="filter1_d_6904_28755" x="5.50049" y="15.5001" width="21" height="21" filterUnits="userSpaceOnUse" color-interpolation-filters="sRGB">
<feFlood flood-opacity="0" result="BackgroundImageFix"/>
<feColorMatrix in="SourceAlpha" type="matrix" values="0 0 0 0 0 0 0 0 0 0 0 0 0 0 0 0 0 0 127 0" result="hardAlpha"/>
<feOffset dy="4"/>
<feGaussianBlur stdDeviation="5"/>
<feComposite in2="hardAlpha" operator="out"/>
<feColorMatrix type="matrix" values="0 0 0 0 0 0 0 0 0 0 0 0 0 0 0 0 0 0 0.2 0"/>
<feBlend mode="normal" in2="BackgroundImageFix" result="effect1_dropShadow_6904_28755"/>
<feBlend mode="normal" in="SourceGraphic" in2="effect1_dropShadow_6904_28755" result="shape"/>
</filter>
<filter id="filter2_d_6904_28755" x="23.5005" y="15.5001" width="21" height="21" filterUnits="userSpaceOnUse" color-interpolation-filters="sRGB">
<feFlood flood-opacity="0" result="BackgroundImageFix"/>
<feColorMatrix in="SourceAlpha" type="matrix" values="0 0 0 0 0 0 0 0 0 0 0 0 0 0 0 0 0 0 127 0" result="hardAlpha"/>
<feOffset dy="4"/>
<feGaussianBlur stdDeviation="5"/>
<feComposite in2="hardAlpha" operator="out"/>
<feColorMatrix type="matrix" values="0 0 0 0 0 0 0 0 0 0 0 0 0 0 0 0 0 0 0.2 0"/>
<feBlend mode="normal" in2="BackgroundImageFix" result="effect1_dropShadow_6904_28755"/>
<feBlend mode="normal" in="SourceGraphic" in2="effect1_dropShadow_6904_28755" result="shape"/>
</filter>
<filter id="filter3_d_6904_28755" x="10.0005" y="-1" width="30" height="33.0001" filterUnits="userSpaceOnUse" color-interpolation-filters="sRGB">
<feFlood flood-opacity="0" result="BackgroundImageFix"/>
<feColorMatrix in="SourceAlpha" type="matrix" values="0 0 0 0 0 0 0 0 0 0 0 0 0 0 0 0 0 0 127 0" result="hardAlpha"/>
<feOffset dy="4"/>
<feGaussianBlur stdDeviation="5"/>
<feComposite in2="hardAlpha" operator="out"/>
<feColorMatrix type="matrix" values="0 0 0 0 0 0 0 0 0 0 0 0 0 0 0 0 0 0 0.2 0"/>
<feBlend mode="normal" in2="BackgroundImageFix" result="effect1_dropShadow_6904_28755"/>
<feBlend mode="normal" in="SourceGraphic" in2="effect1_dropShadow_6904_28755" result="shape"/>
</filter>
<clipPath id="clip0_6904_28755">
<rect width="30" height="30" fill="white" transform="translate(10 5)"/>
</clipPath>
</defs>
</svg>
