<svg width="30" height="30" viewBox="0 0 30 30" fill="none" xmlns="http://www.w3.org/2000/svg">
<path fill-rule="evenodd" clip-rule="evenodd" d="M24.526 10.793C24.526 16.3379 21.4433 20.4811 16.8989 20.4811C15.3722 20.4811 13.9375 19.6557 13.4458 18.7187C13.4458 18.7187 12.6249 21.9756 12.4519 22.6044C11.8398 24.8255 10.0391 27.0475 9.89996 27.2302C9.80193 27.3567 9.58706 27.3169 9.56392 27.1494C9.5249 26.8663 9.06617 24.0636 9.60652 21.7772C9.87746 20.6291 11.4244 14.0747 11.4244 14.0747C11.4244 14.0747 10.9738 13.1721 10.9738 11.8385C10.9738 9.74291 12.1877 8.17951 13.6995 8.17951C14.9852 8.17951 15.6057 9.1442 15.6057 10.3012C15.6057 11.5944 14.7832 13.5268 14.3582 15.3171C14.0033 16.8169 15.1102 18.0404 16.589 18.0404C19.2669 18.0404 21.0706 14.6 21.0706 10.5242C21.0706 7.42658 18.9847 5.10727 15.1888 5.10727C10.902 5.10727 8.22945 8.30514 8.22945 11.8773C8.22945 13.1092 8.59314 13.9781 9.16261 14.6494C9.42312 14.9584 9.46056 15.0827 9.36546 15.4374C9.29656 15.6979 9.1424 16.3236 9.0766 16.572C8.98302 16.9305 8.69257 17.0578 8.36937 16.9259C6.39505 16.1199 5.47449 13.9563 5.47449 11.5255C5.47466 7.51055 8.86115 2.69531 15.5773 2.69531C20.9748 2.69531 24.526 6.59971 24.526 10.793Z" fill="white"/>
</svg>
