<svg width="70" height="70" viewBox="0 0 70 70" fill="none" xmlns="http://www.w3.org/2000/svg">
<g opacity="0.1">
<path d="M14.4187 29.3713C15.2727 24.003 21.9831 18.2687 27.2294 18.1467C27.5954 18.1467 27.9615 18.0247 28.2055 17.7806C28.4495 17.6586 28.6935 17.5366 28.8155 17.1706C30.6456 13.7544 29.6695 11.0703 26.6194 8.87414C23.0812 6.312 17.4689 8.87414 14.6627 11.1923C7.58632 17.0486 0.387919 27.175 0.753939 36.8137C-0.466129 43.2803 -0.222115 50.2344 1.60799 55.9688C2.82805 59.629 6.36625 61.4591 10.0265 61.7031C13.6867 61.9473 21.2511 63.0452 24.5453 60.8492C27.8394 58.6529 28.0835 54.3827 28.4495 50.7227C28.8155 46.6964 29.9136 39.1318 26.4974 35.9597C23.0812 32.9095 13.3206 36.2037 14.4187 29.3713Z" fill="#F6702A"/>
<path d="M54.1244 29.3713C54.9785 24.003 61.6886 18.2687 66.9351 18.1467C67.3011 18.1467 67.6672 18.0247 67.9112 17.7806C68.1554 17.6586 68.3992 17.5366 68.5214 17.1706C70.3515 13.7544 69.3755 11.0703 66.3253 8.87414C62.7871 6.312 57.1748 8.87414 54.3684 11.1923C47.292 17.0486 40.0936 27.1752 40.4596 36.8137C39.2396 43.2803 39.4836 50.2344 41.3135 55.9688C42.5336 59.629 46.0718 61.4591 49.7322 61.7031C53.3924 61.9473 60.9568 63.0452 64.251 60.8492C67.545 58.6529 67.7892 54.3827 68.1552 50.7227C68.5212 46.6964 69.6193 39.1318 66.2031 35.9597C62.7869 32.9095 52.9043 36.2037 54.1244 29.3713Z" fill="#F6702A"/>
</g>
</svg>
