<svg width="176" height="176" viewBox="0 0 176 176" fill="none" xmlns="http://www.w3.org/2000/svg">
<g clip-path="url(#clip0_8289_1324)">
<path opacity="0.3" d="M120.884 59.241C103.923 69.558 102.021 91.6786 102.697 105.686C115.597 90.5219 131.493 82.4866 140.57 80.9714C125.975 86.6892 114.978 98.0737 105.832 110.643C102.142 117.111 98.7464 123.439 96.8198 130.424C94.7145 122.245 91.1217 114.597 87.2457 106.782C76.3591 89.8188 62.9789 74.2522 44.52 65.7487C56.1535 68.3951 76.1279 79.9966 91.6775 100.602C93.6149 82.5218 92.8168 53.7401 71.6448 39.1079C48.3501 23.0103 18.9456 17.5179 4.42372 15.7094C1.12392 15.2988 -1.16973 18.9197 0.633002 21.7143C5.38781 29.0858 11.8454 42.2105 12.7979 60.1352C13.7462 78.0502 14.8457 111.153 78.8125 116.099C88.314 133.463 92.9932 142.72 94.723 159.313C94.8542 160.572 96.6334 160.69 96.9348 159.461C98.1123 154.656 101.209 130.492 111.907 118.196C161.383 117.262 163.714 91.8237 165.253 78.0734C166.66 65.4573 171.452 56.1577 175.315 50.4897C177.164 47.7773 175.033 44.1271 171.76 44.3876C159.962 45.327 138.533 48.5091 120.884 59.241Z" fill="#FBEEE7"/>
</g>
<defs>
<clipPath id="clip0_8289_1324">
<rect width="176" height="176" fill="white"/>
</clipPath>
</defs>
</svg>
