<svg width="124" height="25" viewBox="0 0 124 25" fill="none" xmlns="http://www.w3.org/2000/svg">
<g clip-path="url(#clip0_7594_1014)">
<path d="M88.105 7.71171L81.5747 7.10604L78.9806 1.08245C78.799 0.660669 78.201 0.660669 78.0194 1.08245L75.4253 7.10599L68.895 7.71171C68.4377 7.75409 68.253 8.32284 68.5979 8.62592L73.5251 12.9543L72.0831 19.3523C71.9822 19.8003 72.466 20.1517 72.8608 19.9173L78.5 16.5689L84.1392 19.9173C84.5341 20.1518 85.0178 19.8003 84.9169 19.3523L83.4749 12.9543L88.4021 8.62592C88.7471 8.32284 88.5622 7.75409 88.105 7.71171Z" fill="#00730C"/>
<path d="M79.9239 3.27288L78.9806 1.08245C78.7989 0.660669 78.2009 0.660669 78.0193 1.08245L75.4253 7.10599L68.895 7.71171C68.4377 7.75409 68.253 8.32284 68.5979 8.62592L73.5251 12.9543L72.0831 19.3523C71.9822 19.8003 72.466 20.1517 72.8608 19.9173L73.6114 19.4716C74.8418 11.5068 78.3009 5.65999 79.9239 3.27288Z" fill="#00730C"/>
</g>
<g clip-path="url(#clip1_7594_1014)">
<path d="M22.105 7.71171L15.5747 7.10604L12.9806 1.08245C12.799 0.660669 12.201 0.660669 12.0194 1.08245L9.42534 7.10599L2.89501 7.71171C2.43773 7.75409 2.25297 8.32284 2.59794 8.62592L7.5251 12.9543L6.08315 19.3523C5.98217 19.8003 6.46601 20.1517 6.86084 19.9173L12.5 16.5689L18.1392 19.9173C18.5341 20.1518 19.0178 19.8003 18.9169 19.3523L17.4749 12.9543L22.4021 8.62592C22.7471 8.32284 22.5622 7.75409 22.105 7.71171Z" fill="#00730C"/>
<path d="M13.9239 3.27288L12.9806 1.08245C12.7989 0.660669 12.2009 0.660669 12.0193 1.08245L9.42529 7.10599L2.89501 7.71171C2.43773 7.75409 2.25297 8.32284 2.59794 8.62592L7.5251 12.9543L6.08315 19.3523C5.98217 19.8003 6.46601 20.1517 6.86084 19.9173L7.61138 19.4716C8.8418 11.5068 12.3009 5.65999 13.9239 3.27288Z" fill="#00730C"/>
</g>
<g clip-path="url(#clip2_7594_1014)">
<path d="M121.105 7.71171L114.575 7.10604L111.981 1.08245C111.799 0.660669 111.201 0.660669 111.019 1.08245L108.425 7.10599L101.895 7.71171C101.438 7.75409 101.253 8.32284 101.598 8.62592L106.525 12.9543L105.083 19.3523C104.982 19.8003 105.466 20.1517 105.861 19.9173L111.5 16.5689L117.139 19.9173C117.534 20.1518 118.018 19.8003 117.917 19.3523L116.475 12.9543L121.402 8.62592C121.747 8.32284 121.562 7.75409 121.105 7.71171Z" fill="#00730C"/>
<path d="M112.924 3.27288L111.981 1.08245C111.799 0.660669 111.201 0.660669 111.019 1.08245L108.425 7.10599L101.895 7.71171C101.438 7.75409 101.253 8.32284 101.598 8.62592L106.525 12.9543L105.083 19.3523C104.982 19.8003 105.466 20.1517 105.861 19.9173L106.611 19.4716C107.842 11.5068 111.301 5.65999 112.924 3.27288Z" fill="#00730C"/>
</g>
<g clip-path="url(#clip3_7594_1014)">
<path d="M55.105 7.71171L48.5747 7.10604L45.9806 1.08245C45.799 0.660669 45.201 0.660669 45.0194 1.08245L42.4253 7.10599L35.895 7.71171C35.4377 7.75409 35.253 8.32284 35.5979 8.62592L40.5251 12.9543L39.0831 19.3523C38.9822 19.8003 39.466 20.1517 39.8608 19.9173L45.5 16.5689L51.1392 19.9173C51.5341 20.1518 52.0178 19.8003 51.9169 19.3523L50.4749 12.9543L55.4021 8.62592C55.7471 8.32284 55.5622 7.75409 55.105 7.71171Z" fill="#00730C"/>
<path d="M46.9239 3.27288L45.9806 1.08245C45.7989 0.660669 45.2009 0.660669 45.0193 1.08245L42.4253 7.10599L35.895 7.71171C35.4377 7.75409 35.253 8.32284 35.5979 8.62592L40.5251 12.9543L39.0831 19.3523C38.9822 19.8003 39.466 20.1517 39.8608 19.9173L40.6114 19.4716C41.8418 11.5068 45.3009 5.65999 46.9239 3.27288Z" fill="#00730C"/>
</g>
<defs>
<clipPath id="clip0_7594_1014">
<rect width="25" height="25" fill="white" transform="translate(66)"/>
</clipPath>
<clipPath id="clip1_7594_1014">
<rect width="25" height="25" fill="white"/>
</clipPath>
<clipPath id="clip2_7594_1014">
<rect width="25" height="25" fill="white" transform="translate(99)"/>
</clipPath>
<clipPath id="clip3_7594_1014">
<rect width="25" height="25" fill="white" transform="translate(33)"/>
</clipPath>
</defs>
</svg>
