<svg width="25" height="25" viewBox="0 0 25 25" fill="none" xmlns="http://www.w3.org/2000/svg">
<mask id="mask0_7594_3914" style="mask-type:alpha" maskUnits="userSpaceOnUse" x="0" y="0" width="25" height="25">
<rect x="0.764771" y="0.764648" width="24" height="24" fill="#C4C4C4"/>
</mask>
<g mask="url(#mask0_7594_3914)">
<path d="M24.7648 5.32315C23.8723 5.71465 22.9213 5.97415 21.9298 6.10015C22.9498 5.49115 23.7283 4.53415 24.0943 3.38065C23.1433 3.94765 22.0933 4.34815 20.9743 4.57165C20.0713 3.61015 18.7843 3.01465 17.3803 3.01465C14.6563 3.01465 12.4633 5.22565 12.4633 7.93615C12.4633 8.32615 12.4963 8.70115 12.5773 9.05815C8.48677 8.85865 4.86727 6.89815 2.43577 3.91165C2.01127 4.64815 1.76227 5.49115 1.76227 6.39865C1.76227 8.10265 2.63977 9.61315 3.94777 10.4876C3.15727 10.4726 2.38177 10.2431 1.72477 9.88165C1.72477 9.89665 1.72477 9.91615 1.72477 9.93565C1.72477 12.3266 3.43027 14.3126 5.66677 14.7701C5.26627 14.8796 4.82977 14.9321 4.37677 14.9321C4.06177 14.9321 3.74377 14.9141 3.44527 14.8481C4.08277 16.7966 5.89177 18.2291 8.04277 18.2756C6.36877 19.5851 4.24327 20.3741 1.94227 20.3741C1.53877 20.3741 1.15177 20.3561 0.764771 20.3066C2.94427 21.7121 5.52727 22.5146 8.31277 22.5146C17.3668 22.5146 22.3168 15.0146 22.3168 8.51365C22.3168 8.29615 22.3093 8.08615 22.2988 7.87765C23.2753 7.18465 24.0958 6.31915 24.7648 5.32315Z" fill="white"/>
</g>
</svg>
