<svg width="70" height="70" viewBox="0 0 70 70" fill="none" xmlns="http://www.w3.org/2000/svg">
<path d="M5.56374 18.6673L3.81374 21.6983C3.16941 22.8143 3.55175 24.2413 4.66774 24.8857L15.7814 31.3023C16.8974 31.9467 18.3244 31.5643 18.9687 30.4483L20.7187 27.4173C21.3631 26.3013 20.9807 24.8743 19.8647 24.23L8.75107 17.8133C7.63509 17.169 6.20807 17.5513 5.56374 18.6673Z" fill="#00730C"/>
<path d="M27.6733 29.9015L23.3333 27.4165L20.4166 32.4682C25.2466 35.2448 24.885 35.1165 25.3283 35.0698C26.0009 35.931 26.6167 36.8352 27.1716 37.7765C27.9799 36.1565 28.9039 34.5969 29.9366 33.1098C29.1666 32.4448 28.5133 31.9432 28.035 31.5932C28.3697 31.0206 28.2129 30.2872 27.6733 29.9015Z" fill="#00730C"/>
<path d="M15.778 49.1972L4.66432 55.6139C3.54834 56.2582 3.16599 57.6852 3.81032 58.8012L5.56032 61.8322C6.20465 62.9482 7.63167 63.3305 8.74766 62.6862L19.8613 56.2695C20.9773 55.6252 21.3597 54.1982 20.7153 53.0822L18.9653 50.0512C18.321 48.9352 16.894 48.5528 15.778 49.1972Z" fill="#00730C"/>
<path d="M50.2483 22.3184C44.3333 24.8384 44.7066 24.5934 42.91 25.6667C38.6166 28.1517 34.3583 30.7884 31.6866 34.6967C30.5345 36.4958 29.4905 38.3619 28.56 40.285C27.6748 42.1277 26.6037 43.8751 25.3633 45.5C24.8733 45.5 25.2933 45.29 20.44 48.09L23.3333 53.0834L27.65 50.5984C28.1957 50.1877 28.3375 49.4283 27.9766 48.8484L28.0466 48.9417C31.2741 46.4912 34.1104 43.5645 36.4583 40.2617C40.88 34.1717 36.225 37.5667 51.625 28.6767L65.625 20.615C60.4368 19.9707 55.1697 20.5542 50.2483 22.3184Z" fill="#00730C"/>
<path d="M37.87 42.2916C36.438 44.2193 34.8499 46.026 33.1216 47.6932C35.735 50.7266 42.0116 54.5649 45.325 56.1516C44.746 59.0979 43.9066 61.987 42.8166 64.7849C42.3423 65.7558 42.4437 66.9093 43.08 67.7827C43.7163 68.656 44.7832 69.106 45.8528 68.9521C46.9223 68.7981 47.8191 68.0656 48.1833 67.0482C49.334 64.2463 50.2396 61.3499 50.89 58.3916C55.6142 59.9935 60.6401 60.504 65.59 59.8849L52.0566 52.0682C53.0179 45.1286 53.0179 38.0896 52.0566 31.1499L46.5033 34.3582C46.9896 39.1721 46.9896 44.0227 46.5033 48.8366C38.2666 44.1116 39.9583 45.3716 37.87 42.2916Z" fill="#00730C"/>
<path d="M39.305 16.52C36.9716 10.01 25.3633 5.49495 20.8833 9.14662C20.755 12.0866 23.6716 15.7616 28.1866 18.025C32.3983 20.125 36.7383 20.3583 39.1533 18.865C40.474 19.0342 41.8109 19.0342 43.1316 18.865C43.5166 20.0316 43.89 21.1983 44.205 22.365L49.5016 20.125C49.6883 20.125 49.63 20.125 49.5016 19.81C48.93 13.58 58.3333 9.11162 58.3333 9.07662C59.3819 8.72641 60.1423 7.81349 60.2972 6.7189C60.4521 5.62431 59.9749 4.53622 59.0647 3.90878C58.1545 3.28135 56.9678 3.22243 56 3.75662C52.3139 5.50609 49.0683 8.06188 46.5033 11.235C45.2523 8.28645 43.8264 5.41523 42.2333 2.63662C41.73 1.70543 40.7618 1.11998 39.7034 1.10691C38.645 1.09385 37.6626 1.65523 37.1365 2.57371C36.6104 3.4922 36.6232 4.62362 37.17 5.52995C39.1984 9.07336 40.9347 12.7762 42.3616 16.6016C41.3429 16.6871 40.3177 16.6597 39.305 16.52Z" fill="#00730C"/>
</svg>
