<svg width="70" height="62" viewBox="0 0 70 62" fill="none" xmlns="http://www.w3.org/2000/svg">
<path d="M28.8475 51.5762C28.8475 45.9224 24.2473 41.3223 18.5936 41.3223C12.9399 41.3223 8.33984 45.9226 8.33984 51.5762C8.33984 57.2298 12.9399 61.8301 18.5936 61.8301C24.4721 61.8301 28.8475 57.0142 28.8475 51.5762ZM16.5428 51.5762C16.5428 50.4433 17.461 49.5254 18.5936 49.5254C19.7262 49.5254 20.6444 50.4433 20.6444 51.5762C20.6444 52.7087 19.7262 53.627 18.5936 53.627C17.461 53.627 16.5428 52.7087 16.5428 51.5762Z" fill="#00730C"/>
<path d="M61.7967 45.4238C57.2726 45.4238 53.5938 49.1028 53.5938 53.627C53.5938 58.0354 57.1627 61.8301 61.7967 61.8301C66.3209 61.8301 69.9999 58.1511 69.9999 53.627C69.9999 48.9938 66.2236 45.4238 61.7967 45.4238Z" fill="#00730C"/>
<path d="M61.7968 41.3222C62.9562 41.3222 64.0561 41.5255 65.1454 41.8437C63.9612 38.8762 61.4462 36.5324 58.204 35.6846C31.2805 28.7206 35.0832 29.7485 33.4459 29.326C29.3103 28.2865 24.5559 30.071 22.2347 33.786L19.9727 37.3601C27.2332 38.0661 32.9493 44.1336 32.9493 51.5761C32.9493 53.7155 32.4432 55.8126 31.5272 57.7285H50.2165C50.2113 57.7132 50.2024 57.6996 50.1972 57.6845C49.7406 56.4668 49.4923 55.0689 49.4923 53.6269C49.4921 46.8417 55.0116 41.3222 61.7968 41.3222ZM39.1015 47.4746C39.1015 48.6081 38.1843 49.5254 37.0507 49.5254C35.9172 49.5254 35 48.6081 35 47.4746V43.373C35 42.2395 35.9172 41.3222 37.0507 41.3222C38.1843 41.3222 39.1015 42.2395 39.1015 43.373V47.4746ZM47.4414 47.4746C47.4414 48.6081 46.5241 49.5254 45.3906 49.5254C44.257 49.5254 43.3398 48.6081 43.3398 47.4746V43.373C43.3398 42.2395 44.257 41.3222 45.3906 41.3222C46.5241 41.3222 47.4414 42.2395 47.4414 43.373V47.4746Z" fill="#00730C"/>
<path d="M55.6447 29.0176C55.6447 30.1511 56.6985 31.0684 57.832 31.0684H65.8983C67.0318 31.0684 67.9491 30.1511 67.9491 29.0176C67.9491 27.884 67.0318 26.9668 65.8983 26.9668H57.832C56.6985 26.9668 55.6447 27.884 55.6447 29.0176Z" fill="#00730C"/>
<path d="M54.0058 22.8652C54.574 23.8491 55.8316 24.18 56.8076 23.6162L63.9015 19.5146C64.8829 18.9478 65.2193 17.6942 64.6525 16.7128C64.0817 15.7275 62.8261 15.397 61.8507 15.9618L54.7568 20.0634C53.7754 20.6302 53.439 21.8839 54.0058 22.8652Z" fill="#00730C"/>
<path d="M52.3633 17.5978L56.3262 10.4942C56.893 9.51282 56.5566 8.25911 55.5752 7.69241C54.5938 7.12571 53.3382 7.45808 52.7734 8.44341L48.8105 15.547C48.2437 16.5284 48.5801 17.7821 49.5615 18.3488C50.5394 18.9137 51.796 18.58 52.3633 17.5978Z" fill="#00730C"/>
<path d="M1.40184 4.16541L12.5856 7.98506L15.5714 37.5545C18.1433 36.9998 19.2568 37.2981 19.6717 37.3297L16.5328 6.25283C16.4506 5.44974 15.9059 4.76889 15.1408 4.51445L2.69944 0.27617C1.61799 -0.0843576 0.464357 0.498475 0.105881 1.57199C-0.252459 2.64742 0.328322 3.80898 1.40184 4.16541Z" fill="#00730C"/>
<path d="M44.8558 23.7967C40.8443 22.7231 38.1862 22.0603 36.4559 21.6597C34.6515 21.1892 32.7388 21.5856 31.2388 22.7452C30.4408 23.3623 29.8349 24.1513 29.4266 25.0348C30.991 24.8616 32.5981 24.8844 34.4452 25.3487L49.356 29.1439L49.3916 29.1589C49.1353 26.5846 47.3685 24.409 44.8558 23.7967Z" fill="#00730C"/>
</svg>
