<svg width="25" height="21" viewBox="0 0 25 21" fill="none" xmlns="http://www.w3.org/2000/svg">
<path d="M12.3139 19.3466C12.3015 19.8852 11.8013 20.2759 11.3011 20.1854C11.9877 20.3102 13.5854 20.4849 14.4841 20.1854C13.9633 20.2635 13.4879 19.8688 13.4755 19.3424C13.4755 19.3712 13.1241 16.5792 14.5296 13.9969C15.7325 11.7887 16.4022 12.019 17.8118 11.4844C19.6183 10.7977 21.4743 10.0905 22.7475 8.54846C24.8268 6.02781 24.277 2.57373 24.0992 1.64031C21.867 4.82711 19.6059 3.92247 17.3282 5.374C15.0133 6.85021 13.9798 9.1776 14.203 11.6695C16.4973 7.68083 19.395 9.43665 22.3879 5.44802C21.6603 6.64872 20.6641 7.69317 19.424 8.43744C17.6423 9.52301 16.7825 9.20638 14.0832 13.1046C13.5871 13.82 13.1861 14.6013 12.8968 15.4196C12.5619 14.4738 12.0783 13.5651 11.4665 12.7674C10.2388 11.176 9.69725 10.2755 8.62248 9.50656C7.15086 8.44566 4.64581 8.03857 2.6244 4.69141C5.99754 9.19404 9.15986 7.13805 11.7311 11.616C11.9873 8.77873 10.7803 6.22518 8.25457 4.61328C5.72058 2.99727 3.20726 4.00471 0.722874 0.456055C0.524454 1.49639 -0.0873394 5.3411 2.22756 8.14549C3.64065 9.85849 5.69426 10.6403 7.69683 11.4027L7.71719 11.4104C8.68035 11.7764 11.1565 11.8874 12.1238 16.2749C12.3883 17.4921 12.3429 18.1952 12.3139 19.3466Z" fill="#00730C"/>
</svg>
