<svg width="50" height="42" viewBox="0 0 50 42" fill="none" xmlns="http://www.w3.org/2000/svg">
<circle cx="25" cy="20" r="20" fill="#00730C"/>
<path opacity="0.1" d="M49.7074 29.2155C49.7074 45.9584 30.7463 40.8076 14.0034 40.8076C-2.73946 40.8076 0.555266 24.7277 0.555266 7.98479C0.555266 -8.75808 13.093 26.1985 29.8358 26.1985C46.5787 26.1985 49.7074 12.4727 49.7074 29.2155Z" fill="white"/>
<g clip-path="url(#clip0_6904_26207)">
<g filter="url(#filter0_d_6904_26207)">
<path d="M22.7377 28.0432L22.6876 27.1811C22.687 27.1715 22.6861 27.1619 22.6847 27.1523C22.5669 26.3034 22.2165 25.5036 21.6722 24.8415C21.1279 24.1794 20.4111 23.6809 19.6009 23.4011L19.3207 23.3036C18.9324 23.1678 18.5796 22.9466 18.2884 22.6561L16.9262 21.2939L16.46 19.7164C16.3483 19.3024 16.1137 18.932 15.7871 18.6541C15.4605 18.3762 15.0573 18.204 14.6307 18.1601L14.5542 17.9047C14.5534 17.9019 14.5524 17.8988 14.5516 17.8963C14.3344 17.2326 13.6122 16.8054 12.8762 16.8542L12.853 16.7773C12.7127 16.3059 12.3961 15.9068 11.9689 15.663C11.5418 15.4192 11.037 15.3496 10.5599 15.4687C10.4729 15.4902 10.3974 15.5442 10.3489 15.6196C10.3004 15.6949 10.2825 15.786 10.2989 15.8741L11.7914 23.9065C11.7945 23.9229 11.7987 23.939 11.804 23.9548C12.1545 24.9853 12.8255 25.8767 13.7189 26.4986L16.9786 28.7446C16.9844 28.7489 16.991 28.753 16.9975 28.7568C17.2278 28.8942 17.3996 29.1115 17.4799 29.3674L17.7277 32.7161C17.7328 32.7852 17.7582 32.8512 17.8006 32.9058C17.8431 32.9605 17.9007 33.0015 17.9663 33.0235L18.0334 33.046C19.4992 33.5423 21.086 33.5533 22.5586 33.0774L22.7221 33.025C22.793 33.0023 22.8549 32.9576 22.8988 32.8975C22.9427 32.8373 22.9664 32.7647 22.9664 32.6902V30.8164C22.9664 30.0546 22.8994 29.2314 22.7554 28.2244C22.7472 28.1645 22.7411 28.1035 22.7377 28.0432ZM15.7818 19.9021C15.7826 19.9052 15.7835 19.9083 15.7844 19.9113L15.9403 20.4386C15.7219 20.3187 15.4852 20.2355 15.2398 20.1925L14.8597 18.9242C15.0824 18.998 15.2833 19.126 15.4443 19.2967C15.6052 19.4674 15.7212 19.6754 15.7818 19.9021ZM13.8821 18.1115L14.5037 20.1857C14.3038 20.2154 14.1087 20.2715 13.9237 20.3527L13.0879 17.562C13.4311 17.5958 13.7741 17.7881 13.8821 18.1115ZM22.2634 32.4332C21.0085 32.8209 19.6657 32.8196 18.4117 32.4293L18.1784 29.2777C18.1767 29.2541 18.1726 29.2307 18.1661 29.208C18.043 28.77 17.758 28.3952 17.3689 28.1596L14.1186 25.9203C13.3564 25.3894 12.7821 24.6307 12.478 23.7531L11.059 16.1155C11.3127 16.1234 11.5575 16.211 11.7586 16.3659C11.9598 16.5208 12.107 16.7351 12.1793 16.9784L13.3113 20.7525C13.2857 20.7759 13.2606 20.7999 13.2359 20.8245C13.2023 20.8581 13.1759 20.8982 13.1583 20.9423C13.1406 20.9864 13.1321 21.0336 13.1331 21.0811C13.1342 21.1286 13.1449 21.1754 13.1646 21.2186C13.1843 21.2618 13.2125 21.3006 13.2476 21.3327L14.8804 22.8242C15.3559 23.2587 15.7908 23.7356 16.1796 24.2492C16.2074 24.2863 16.2422 24.3176 16.2821 24.3413C16.3219 24.365 16.3661 24.3805 16.412 24.387C16.4579 24.3935 16.5047 24.3909 16.5496 24.3793C16.5945 24.3676 16.6366 24.3472 16.6736 24.3192C16.7106 24.2913 16.7416 24.2562 16.765 24.2162C16.7884 24.1761 16.8036 24.1319 16.8098 24.0859C16.816 24.04 16.8131 23.9932 16.8011 23.9484C16.7892 23.9036 16.7685 23.8616 16.7403 23.8248C16.3256 23.2772 15.8618 22.7685 15.3547 22.3051L14.0254 21.0912C14.3271 20.9076 14.6816 20.8305 15.0323 20.8722C15.383 20.914 15.7095 21.0723 15.9595 21.3216L17.7911 23.1532C18.1574 23.5186 18.6012 23.7969 19.0895 23.9677L19.3697 24.0652C20.0554 24.302 20.6624 24.7233 21.1241 25.2829C21.5857 25.8424 21.8841 26.5184 21.9863 27.2366L22.0356 28.0837C22.0401 28.1635 22.0483 28.2443 22.0596 28.3239C22.1985 29.2972 22.2633 30.0891 22.2633 30.8165L22.2634 32.4332Z" fill="white"/>
</g>
<g filter="url(#filter1_d_6904_26207)">
<path d="M39.4401 15.4687C38.963 15.3496 38.4583 15.4192 38.0312 15.6629C37.6041 15.9066 37.2874 16.3056 37.147 16.7769L37.1236 16.8544C36.3878 16.8057 35.6654 17.2329 35.4481 17.8966C35.4473 17.8993 35.4463 17.9021 35.4455 17.9049L35.3692 18.1601C34.9427 18.204 34.5395 18.3762 34.2129 18.654C33.8863 18.9319 33.6516 19.3022 33.5399 19.7162L33.0737 21.2937L31.7116 22.6559C31.4203 22.9463 31.0675 23.1676 30.6793 23.3034L30.3989 23.4009C29.5888 23.6807 28.872 24.1792 28.3277 24.8413C27.7834 25.5034 27.433 26.3031 27.3152 27.1521C27.3139 27.1616 27.3129 27.1713 27.3123 27.1809L27.2622 28.0432C27.2588 28.1032 27.2527 28.1642 27.2441 28.2245C27.1004 29.2314 27.0332 30.0549 27.0332 30.8164V32.69C27.0332 32.7634 27.0562 32.8349 27.0988 32.8945C27.1415 32.9542 27.2018 32.999 27.2712 33.0227C28.759 33.5273 30.3698 33.5383 31.8643 33.0541L31.9559 33.0242C32.021 33.003 32.0784 32.9632 32.1212 32.9098C32.164 32.8564 32.1902 32.7917 32.1968 32.7236L32.5186 29.3707C32.5984 29.1133 32.7706 28.8946 33.0021 28.7566C33.0086 28.7528 33.0149 28.7486 33.021 28.7444L36.2819 26.498C37.1748 25.8762 37.8455 24.9852 38.1959 23.955C38.2012 23.9393 38.2055 23.9231 38.2085 23.9068L39.7011 15.8741C39.7174 15.786 39.6995 15.6949 39.651 15.6196C39.6025 15.5442 39.5271 15.4903 39.4401 15.4687ZM36.1178 18.1112C36.2258 17.7876 36.569 17.5953 36.9121 17.5616L36.1057 20.2578L36.0765 20.3526C35.8914 20.2714 35.6963 20.2153 35.4964 20.1857L36.1178 18.1112ZM34.2155 19.9113C34.2165 19.9083 34.2173 19.9054 34.2181 19.9021C34.2787 19.6755 34.3947 19.4675 34.5557 19.2968C34.7167 19.1261 34.9175 18.9981 35.1402 18.9244L34.7601 20.1928C34.5147 20.2358 34.278 20.319 34.0597 20.4389L34.2155 19.9113ZM37.5218 23.7531C37.218 24.6304 36.6439 25.3889 35.8822 25.9197L32.6311 28.1596C32.2419 28.3952 31.9569 28.77 31.8339 29.208C31.8281 29.2282 31.8241 29.249 31.8221 29.27L31.5192 32.4259C30.2861 32.7977 28.9711 32.8004 27.7365 32.4337V30.8164C27.7365 30.089 27.801 29.297 27.9401 28.3238C27.9515 28.2441 27.9596 28.1632 27.9642 28.0836L28.0134 27.2362C28.1157 26.5181 28.414 25.8421 28.8757 25.2825C29.3373 24.723 29.9443 24.3017 30.63 24.0648L30.9103 23.9673C31.3986 23.7966 31.8423 23.5182 32.2086 23.1529L34.0403 21.3214C34.2903 21.072 34.6168 20.9137 34.9675 20.8719C35.3181 20.8302 35.6727 20.9072 35.9743 21.0909L34.6452 22.3049C34.1381 22.7683 33.6743 23.277 33.2596 23.8247C33.2314 23.8614 33.2107 23.9035 33.1988 23.9483C33.1868 23.9931 33.1839 24.0398 33.1901 24.0857C33.1963 24.1317 33.2115 24.176 33.2349 24.216C33.2582 24.2561 33.2893 24.2911 33.3263 24.3191C33.3633 24.3471 33.4054 24.3675 33.4503 24.3791C33.4952 24.3907 33.5419 24.3934 33.5879 24.3868C33.6338 24.3803 33.6779 24.3648 33.7178 24.3411C33.7577 24.3175 33.7925 24.2862 33.8202 24.249C34.2091 23.7355 34.6439 23.2585 35.1194 22.824L36.7526 21.3323C36.7876 21.3003 36.8158 21.2615 36.8355 21.2182C36.8551 21.175 36.8658 21.1282 36.8669 21.0807C36.8679 21.0332 36.8594 20.986 36.8417 20.9419C36.824 20.8978 36.7976 20.8578 36.764 20.8242C36.7393 20.7995 36.7142 20.7754 36.6886 20.7521L37.8206 16.978C37.893 16.7347 38.0402 16.5204 38.2413 16.3655C38.4424 16.2106 38.6872 16.123 38.9409 16.1152L37.5218 23.7531Z" fill="white"/>
</g>
<g filter="url(#filter2_d_6904_26207)">
<path d="M29.976 13.36C31.0096 12.5123 31.636 11.334 31.7877 9.95226L32.1638 6.9716C32.1702 6.92083 32.1654 6.86926 32.1499 6.82052C32.1343 6.77178 32.1082 6.72702 32.0735 6.68939C32.0389 6.65175 31.9964 6.62214 31.9491 6.60262C31.9018 6.5831 31.8508 6.57415 31.7996 6.57639C28.7108 6.71115 26.288 9.81551 26.3989 13.4963L26.4224 14.2739C26.0598 14.9978 25.7553 15.7494 25.5117 16.5215C25.3153 16.0677 25.061 15.6412 24.7552 15.2527C24.6861 14.5415 24.5661 13.8363 24.396 13.1423C24.0466 11.7823 23.147 10.7276 21.9898 10.3212L18.3016 9.02566C18.2474 9.00662 18.1893 9.00115 18.1325 9.00974C18.0757 9.01833 18.0218 9.04072 17.9757 9.07493C17.9295 9.10915 17.8925 9.15416 17.8677 9.20602C17.843 9.25788 17.8314 9.31502 17.8338 9.37242C17.9317 11.657 18.7496 13.6042 20.078 14.7145C20.8998 15.4014 21.902 15.755 23.0094 15.755C23.2546 15.7547 23.4995 15.738 23.7424 15.7051L24.195 15.677C24.5358 16.1081 24.804 16.592 24.9891 17.1094C25.2281 17.775 25.3137 18.4149 25.2452 19.0152H21.5735C21.5237 19.0152 21.4745 19.0257 21.4291 19.0462C21.3837 19.0666 21.3432 19.0964 21.3102 19.1337C21.2772 19.171 21.2525 19.2148 21.2377 19.2623C21.2229 19.3099 21.2184 19.36 21.2245 19.4094L21.7124 23.4035C21.7228 23.4887 21.7641 23.5672 21.8284 23.6241C21.8927 23.681 21.9756 23.7124 22.0614 23.7124H27.9384C28.0242 23.7124 28.1071 23.681 28.1714 23.6241C28.2357 23.5672 28.2769 23.4887 28.2874 23.4035L28.7753 19.4094C28.7814 19.36 28.7768 19.3099 28.7621 19.2623C28.7473 19.2148 28.7226 19.171 28.6896 19.1337C28.6566 19.0964 28.616 19.0666 28.5707 19.0462C28.5253 19.0257 28.4761 19.0152 28.4263 19.0152H25.9518C25.9882 18.6192 25.9722 18.2201 25.9044 17.8282C26.1149 16.7394 26.5372 15.6306 27.0202 14.6483C28.1275 14.4728 29.1733 14.0183 29.976 13.36ZM31.4116 7.31894L31.09 9.86719L31.0893 9.87305C30.8352 12.1992 29.1391 13.4176 27.4431 13.8457C27.6954 13.397 27.952 12.9902 28.194 12.6435L29.5839 10.6535C29.6368 10.5771 29.6572 10.4828 29.6408 10.3913C29.6243 10.2998 29.5723 10.2186 29.4961 10.1653C29.4198 10.1121 29.3257 10.0912 29.2341 10.1073C29.1425 10.1233 29.0611 10.175 29.0075 10.2509L27.6176 12.2409C27.4505 12.4802 27.2767 12.7474 27.1019 13.0363C27.1881 10.1035 29.0262 7.6715 31.4113 7.31883L31.4116 7.31894ZM21.3871 12.084C21.3182 12.0212 21.2271 11.9883 21.134 11.9927C21.0409 11.997 20.9532 12.0382 20.8904 12.1071C20.8277 12.176 20.7948 12.2671 20.7991 12.3602C20.8035 12.4533 20.8446 12.541 20.9136 12.6037L23.5635 15.0178C22.3858 15.1563 21.3649 14.8739 20.5288 14.1751C19.4518 13.2748 18.7521 11.7231 18.5727 9.86625L21.7567 10.9845C22.6921 11.3129 23.4241 12.185 23.715 13.3171C23.7988 13.6434 23.8723 14.0079 23.9354 14.4053L21.3871 12.084ZM28.0293 19.7183L27.6273 23.0093H22.3726L21.9707 19.7183H28.0293Z" fill="white"/>
</g>
</g>
<defs>
<filter id="filter0_d_6904_26207" x="0.292969" y="5.41187" width="32.6733" height="38.0146" filterUnits="userSpaceOnUse" color-interpolation-filters="sRGB">
<feFlood flood-opacity="0" result="BackgroundImageFix"/>
<feColorMatrix in="SourceAlpha" type="matrix" values="0 0 0 0 0 0 0 0 0 0 0 0 0 0 0 0 0 0 127 0" result="hardAlpha"/>
<feOffset/>
<feGaussianBlur stdDeviation="5"/>
<feComposite in2="hardAlpha" operator="out"/>
<feColorMatrix type="matrix" values="0 0 0 0 0 0 0 0 0 0 0 0 0 0 0 0 0 0 0.25 0"/>
<feBlend mode="normal" in2="BackgroundImageFix" result="effect1_dropShadow_6904_26207"/>
<feBlend mode="normal" in="SourceGraphic" in2="effect1_dropShadow_6904_26207" result="shape"/>
</filter>
<filter id="filter1_d_6904_26207" x="17.0332" y="5.41187" width="32.6738" height="37.9976" filterUnits="userSpaceOnUse" color-interpolation-filters="sRGB">
<feFlood flood-opacity="0" result="BackgroundImageFix"/>
<feColorMatrix in="SourceAlpha" type="matrix" values="0 0 0 0 0 0 0 0 0 0 0 0 0 0 0 0 0 0 127 0" result="hardAlpha"/>
<feOffset/>
<feGaussianBlur stdDeviation="5"/>
<feComposite in2="hardAlpha" operator="out"/>
<feColorMatrix type="matrix" values="0 0 0 0 0 0 0 0 0 0 0 0 0 0 0 0 0 0 0.25 0"/>
<feBlend mode="normal" in2="BackgroundImageFix" result="effect1_dropShadow_6904_26207"/>
<feBlend mode="normal" in="SourceGraphic" in2="effect1_dropShadow_6904_26207" result="shape"/>
</filter>
<filter id="filter2_d_6904_26207" x="7.8335" y="-3.42395" width="34.333" height="37.1364" filterUnits="userSpaceOnUse" color-interpolation-filters="sRGB">
<feFlood flood-opacity="0" result="BackgroundImageFix"/>
<feColorMatrix in="SourceAlpha" type="matrix" values="0 0 0 0 0 0 0 0 0 0 0 0 0 0 0 0 0 0 127 0" result="hardAlpha"/>
<feOffset/>
<feGaussianBlur stdDeviation="5"/>
<feComposite in2="hardAlpha" operator="out"/>
<feColorMatrix type="matrix" values="0 0 0 0 0 0 0 0 0 0 0 0 0 0 0 0 0 0 0.25 0"/>
<feBlend mode="normal" in2="BackgroundImageFix" result="effect1_dropShadow_6904_26207"/>
<feBlend mode="normal" in="SourceGraphic" in2="effect1_dropShadow_6904_26207" result="shape"/>
</filter>
<clipPath id="clip0_6904_26207">
<rect width="30" height="30" fill="white" transform="translate(10 5)"/>
</clipPath>
</defs>
</svg>
