<svg width="20" height="20" viewBox="0 0 20 20" fill="none" xmlns="http://www.w3.org/2000/svg">
<path d="M12.9592 10.8301L11.2841 12.5108C10.6049 13.1924 9.40973 13.2071 8.71578 12.5108L7.04066 10.8301L1.02441 16.8659C1.24836 16.9694 1.49527 17.0312 1.75777 17.0312H18.2421C18.5046 17.0312 18.7515 16.9695 18.9753 16.8659L12.9592 10.8301Z" fill="white"/>
<path d="M18.2421 2.96875H1.7577C1.4952 2.96875 1.24828 3.03055 1.02441 3.1341L7.4532 9.58422C7.45363 9.58465 7.45414 9.58473 7.45457 9.58516C7.455 9.58559 7.45508 9.58617 7.45508 9.58617L9.54543 11.6834C9.76746 11.9055 10.2324 11.9055 10.4544 11.6834L12.5443 9.58652C12.5443 9.58652 12.5448 9.58559 12.5453 9.58516C12.5453 9.58516 12.5462 9.58465 12.5466 9.58422L18.9753 3.13406C18.7514 3.03047 18.5046 2.96875 18.2421 2.96875Z" fill="white"/>
<path d="M0.186953 3.95361C0.0710937 4.18791 0 4.44799 0 4.72658V15.2735C0 15.552 0.0710156 15.8121 0.186914 16.0464L6.21359 10.0002L0.186953 3.95361Z" fill="white"/>
<path d="M19.8127 3.95361L13.7861 10.0003L19.8127 16.0466C19.9286 15.8123 19.9997 15.5522 19.9997 15.2735V4.72666C19.9997 4.44799 19.9286 4.18791 19.8127 3.95361Z" fill="white"/>
</svg>
