<svg width="20" height="20" viewBox="0 0 20 20" fill="none" xmlns="http://www.w3.org/2000/svg">
<path d="M10 0C6.48574 0 3.55469 2.83086 3.55469 6.44531C3.55469 7.82039 3.96789 9.04656 4.7609 10.1955L9.50676 17.601C9.73699 17.961 10.2635 17.9603 10.4932 17.601L15.2597 10.1704C16.0356 9.07344 16.4453 7.78543 16.4453 6.44531C16.4453 2.89137 13.5539 0 10 0ZM10 9.375C8.38465 9.375 7.07031 8.06066 7.07031 6.44531C7.07031 4.82996 8.38465 3.51562 10 3.51562C11.6154 3.51562 12.9297 4.82996 12.9297 6.44531C12.9297 8.06066 11.6154 9.375 10 9.375Z" fill="white"/>
<path d="M11.8406 18.2126L11.8408 18.2123L14.6956 13.749C15.8989 14.0422 16.857 14.4425 17.5165 14.9101C18.2082 15.4005 18.5391 15.939 18.5391 16.4846C18.5391 16.9635 18.3042 17.4056 17.8488 17.8105C17.3907 18.2178 16.7243 18.5724 15.9083 18.8633C14.2779 19.4445 12.1106 19.7502 10 19.7502C7.88938 19.7502 5.72214 19.4445 4.09168 18.8633C3.27567 18.5724 2.60928 18.2178 2.15119 17.8105C1.6958 17.4056 1.46094 16.9635 1.46094 16.4846C1.46094 15.9394 1.7913 15.4013 2.48208 14.9111C3.14068 14.4438 4.09743 14.0436 5.29918 13.7503L8.15872 18.2136L8.15875 18.2137C9.01699 19.5525 10.9784 19.5569 11.8406 18.2126Z" stroke="white" stroke-width="0.5"/>
</svg>
