<svg width="30" height="20" viewBox="0 0 30 20" fill="none" xmlns="http://www.w3.org/2000/svg">
<path d="M28.8282 2.96869H1.17194C0.525043 2.96869 9.72748e-05 2.44365 9.72748e-05 1.79685C9.72748e-05 1.14994 0.525141 0.625 1.17194 0.625H28.8282C29.4751 0.625 30 1.15004 30 1.79685C30 2.44365 29.475 2.96869 28.8282 2.96869Z" fill="#00730C"/>
<path d="M1.17194 8.82812H28.8282C29.4751 8.82812 30 9.35317 30 9.99997C30 10.6468 29.475 11.1718 28.8282 11.1718C28.1814 11.1718 1.17194 11.1718 1.17194 11.1718C0.525043 11.1718 9.72748e-05 10.6468 9.72748e-05 9.99997C9.72748e-05 9.35317 0.525043 8.82812 1.17194 8.82812Z" fill="#00730C"/>
<path d="M1.17194 17.0312H17.1094C17.7563 17.0312 18.2812 17.5563 18.2812 18.2031C18.2812 18.85 17.7562 19.3749 17.1094 19.3749H1.17194C0.525038 19.3749 9.15527e-05 18.8499 9.15527e-05 18.2031C-5.72205e-06 17.5562 0.525038 17.0312 1.17194 17.0312Z" fill="#00730C"/>
</svg>
