<svg width="20" height="20" viewBox="0 0 20 20" fill="none" xmlns="http://www.w3.org/2000/svg">
<path d="M9.99916 0.000976562C4.48544 0.000976562 0 4.48642 0 10.0001C0 15.5139 4.48544 19.9993 9.99916 19.9993C12.2223 19.9993 14.3271 19.2852 16.107 17.9162C16.8136 17.2962 16.8011 16.4113 16.4744 15.8096C16.2678 15.4289 15.9528 15.168 15.587 15.0397L15.7545 14.8522C16.0045 14.5714 16.1145 14.1973 16.0553 13.8265C15.997 13.4557 15.777 13.1332 15.4528 12.9424L13.2522 11.6542C12.7531 11.3625 12.0715 11.47 11.6873 11.9017L11.1991 12.4508C11.1191 12.5408 11.0083 12.5908 10.8883 12.5908C10.7458 12.5908 10.6191 12.5225 10.5408 12.4041L7.85852 8.35695C7.79021 8.25446 7.77185 8.13197 7.8052 8.01366C7.83852 7.89449 7.91851 7.80118 8.031 7.74951L8.79844 7.39286C9.33757 7.1437 9.62755 6.54293 9.48838 5.9663L8.89093 3.48818C8.71263 2.74743 7.8477 2.32328 7.15026 2.64743L6.46532 2.96491C5.4529 3.43487 4.70714 4.32229 4.41881 5.40052L4.29382 5.87048C4.06802 6.71623 4.14633 7.61952 4.51462 8.41359L5.13039 9.7418C6.03363 11.6908 7.26689 13.444 8.79508 14.9539L9.30336 15.4555C10.0583 16.2013 11.0574 16.6312 12.1181 16.6654L12.2556 16.6679C13.1739 16.6679 14.0588 16.3637 14.7812 15.8196C14.7954 15.8171 14.8095 15.8205 14.8245 15.8163C15.3912 15.658 15.6711 16.0763 15.7428 16.208C15.9111 16.5196 15.9194 16.9746 15.5795 17.2746C13.9679 18.5128 12.0389 19.1677 10.0008 19.1677C4.94701 19.1677 0.834852 15.0556 0.834852 10.0018C0.834852 4.94806 4.94708 0.835906 10.0008 0.835906C15.0546 0.835906 19.1667 4.94806 19.1667 10.0018C19.1667 10.2318 19.3534 10.4185 19.5834 10.4185C19.8134 10.4185 20 10.2318 20 10.0018C19.9983 4.48646 15.512 0.000976562 9.99916 0.000976562Z" fill="white"/>
</svg>
