<svg width="120" height="55" viewBox="0 0 120 55" fill="none" xmlns="http://www.w3.org/2000/svg">
<path d="M108.079 20.2724C108.067 20.811 107.569 21.2017 107.072 21.1112C107.755 21.236 109.344 21.4108 110.238 21.1112C109.72 21.1893 109.247 20.7946 109.235 20.2683C109.235 20.297 108.885 17.505 110.283 14.9227C111.48 12.7145 112.146 12.9448 113.548 12.4102C115.344 11.7235 117.19 11.0163 118.457 9.47427C120.525 6.95362 119.978 3.49954 119.801 2.56612C117.581 5.75292 115.332 4.84828 113.067 6.29981C110.764 7.77602 109.736 10.1034 109.958 12.5953C112.24 8.60664 115.122 10.3625 118.099 6.37383C117.375 7.57453 116.385 8.61898 115.151 9.36325C113.379 10.4488 112.524 10.1322 109.839 14.0304C109.346 14.7459 108.947 15.5271 108.659 16.3454C108.326 15.3997 107.845 14.4909 107.236 13.6932C106.015 12.1018 105.477 11.2013 104.408 10.4324C102.944 9.37147 100.452 8.96439 98.4419 5.61722C101.797 10.1199 104.942 8.06386 107.5 12.5418C107.754 9.70455 106.554 7.151 104.042 5.53909C101.521 3.92308 99.0216 4.93052 96.5506 1.38187C96.3533 2.4222 95.7448 6.26692 98.0472 9.0713C99.4527 10.7843 101.495 11.5661 103.487 12.3285L103.507 12.3362C104.465 12.7022 106.928 12.8132 107.89 17.2007C108.153 18.4179 108.108 19.121 108.079 20.2724Z" fill="#00730C"/>
<path d="M5.64 41.32C3.93333 41.32 3.08 40.44 3.08 38.68V15.4C3.08 13.6667 3.94667 12.8 5.68 12.8H15.32C18.4133 12.8 20.8 13.5733 22.48 15.12C24.16 16.6667 25 18.8267 25 21.6C25 24.3733 24.16 26.5467 22.48 28.12C20.8 29.6667 18.4133 30.44 15.32 30.44H8.2V38.68C8.2 40.44 7.34667 41.32 5.64 41.32ZM8.2 26.4H14.52C18.2 26.4 20.04 24.8 20.04 21.6C20.04 18.4267 18.2 16.84 14.52 16.84H8.2V26.4ZM35.3738 41.4C30.9204 41.4 28.6938 38.9067 28.6938 33.92V15C28.6938 13.32 29.5204 12.48 31.1738 12.48C32.8538 12.48 33.6938 13.32 33.6938 15V33.68C33.6938 36.08 34.6938 37.28 36.6938 37.28C36.9071 37.28 37.1071 37.28 37.2938 37.28C37.4804 37.2533 37.6671 37.2267 37.8537 37.2C38.2271 37.1467 38.4804 37.2533 38.6138 37.52C38.7471 37.76 38.8138 38.2667 38.8138 39.04C38.8138 39.7067 38.6804 40.2267 38.4138 40.6C38.1471 40.9733 37.7071 41.2 37.0938 41.28C36.5338 41.36 35.9604 41.4 35.3738 41.4ZM47.9072 41.4C46.4939 41.4 45.2272 41.1333 44.1072 40.6C43.0139 40.04 42.1472 39.2933 41.5072 38.36C40.8939 37.4267 40.5872 36.3733 40.5872 35.2C40.5872 33.76 40.9605 32.6267 41.7072 31.8C42.4539 30.9467 43.6672 30.3333 45.3472 29.96C47.0272 29.5867 49.2805 29.4 52.1072 29.4H53.5072V28.56C53.5072 27.2267 53.2139 26.2667 52.6272 25.68C52.0405 25.0933 51.0539 24.8 49.6672 24.8C48.8939 24.8 48.0539 24.8933 47.1472 25.08C46.2672 25.2667 45.3339 25.5867 44.3472 26.04C43.7072 26.3333 43.1739 26.3733 42.7472 26.16C42.3205 25.92 42.0272 25.56 41.8672 25.08C41.7339 24.5733 41.7605 24.0667 41.9472 23.56C42.1605 23.0533 42.5739 22.68 43.1872 22.44C44.4139 21.9333 45.5872 21.5733 46.7072 21.36C47.8539 21.1467 48.8939 21.04 49.8272 21.04C52.6805 21.04 54.8005 21.7067 56.1872 23.04C57.5739 24.3467 58.2672 26.3867 58.2672 29.16V38.76C58.2672 40.4667 57.4939 41.32 55.9472 41.32C54.3739 41.32 53.5872 40.4667 53.5872 38.76V37.88C53.1339 38.9733 52.4139 39.84 51.4272 40.48C50.4405 41.0933 49.2672 41.4 47.9072 41.4ZM48.9472 37.96C50.2539 37.96 51.3339 37.5067 52.1872 36.6C53.0672 35.6933 53.5072 34.5467 53.5072 33.16V32.28H52.1472C49.6405 32.28 47.8939 32.48 46.9072 32.88C45.9472 33.2533 45.4672 33.9467 45.4672 34.96C45.4672 35.84 45.7739 36.56 46.3872 37.12C47.0005 37.68 47.8539 37.96 48.9472 37.96ZM65.8222 41.32C64.1689 41.32 63.3422 40.4667 63.3422 38.76V23.64C63.3422 21.96 64.1555 21.12 65.7822 21.12C67.4089 21.12 68.2222 21.96 68.2222 23.64V24.48C68.8889 23.36 69.7822 22.5067 70.9022 21.92C72.0489 21.3333 73.3289 21.04 74.7422 21.04C79.3555 21.04 81.6622 23.72 81.6622 29.08V38.76C81.6622 40.4667 80.8355 41.32 79.1822 41.32C77.5022 41.32 76.6622 40.4667 76.6622 38.76V29.32C76.6622 27.8 76.3689 26.6933 75.7822 26C75.2222 25.3067 74.3422 24.96 73.1422 24.96C71.6755 24.96 70.5022 25.4267 69.6222 26.36C68.7689 27.2667 68.3422 28.48 68.3422 30V38.76C68.3422 40.4667 67.5022 41.32 65.8222 41.32ZM95.7006 41.4C90.5273 41.4 87.9406 38.84 87.9406 33.72V25.2H85.8606C84.5273 25.2 83.8606 24.5733 83.8606 23.32C83.8606 22.0667 84.5273 21.44 85.8606 21.44H87.9406V17.8C87.9406 16.12 88.7806 15.28 90.4606 15.28C92.114 15.28 92.9406 16.12 92.9406 17.8V21.44H97.1806C98.514 21.44 99.1806 22.0667 99.1806 23.32C99.1806 24.5733 98.514 25.2 97.1806 25.2H92.9406V33.44C92.9406 34.72 93.2206 35.68 93.7806 36.32C94.3406 36.96 95.2473 37.28 96.5006 37.28C96.954 37.28 97.354 37.24 97.7006 37.16C98.0473 37.08 98.354 37.0267 98.6206 37C98.9406 36.9733 99.2073 37.08 99.4206 37.32C99.634 37.5333 99.7406 37.9867 99.7406 38.68C99.7406 39.2133 99.6473 39.6933 99.4606 40.12C99.3006 40.52 98.994 40.8 98.5406 40.96C98.194 41.0667 97.7406 41.16 97.1806 41.24C96.6206 41.3467 96.1273 41.4 95.7006 41.4Z" fill="#0B0B0B"/>
<path d="M109.252 41.4C108.106 41.4 106.892 41.28 105.612 41.04C104.332 40.8 103.186 40.3867 102.172 39.8C101.612 39.48 101.266 39.0933 101.132 38.64C100.999 38.16 101.012 37.72 101.172 37.32C101.359 36.8933 101.652 36.5867 102.052 36.4C102.479 36.2133 102.972 36.2533 103.532 36.52C104.599 37.0267 105.599 37.3867 106.532 37.6C107.466 37.7867 108.386 37.88 109.292 37.88C110.572 37.88 111.519 37.6667 112.132 37.24C112.772 36.7867 113.092 36.2 113.092 35.48C113.092 34.36 112.266 33.64 110.612 33.32L106.612 32.56C103.226 31.92 101.532 30.16 101.532 27.28C101.532 26 101.879 24.8933 102.572 23.96C103.292 23.0267 104.279 22.3067 105.532 21.8C106.786 21.2933 108.226 21.04 109.852 21.04C112.199 21.04 114.292 21.56 116.132 22.6C116.639 22.8667 116.932 23.24 117.012 23.72C117.119 24.1733 117.066 24.6133 116.852 25.04C116.666 25.44 116.359 25.7333 115.932 25.92C115.506 26.08 115.012 26.0267 114.452 25.76C113.626 25.3333 112.826 25.0267 112.052 24.84C111.306 24.6533 110.586 24.56 109.892 24.56C108.586 24.56 107.612 24.7867 106.972 25.24C106.359 25.6933 106.052 26.2933 106.052 27.04C106.052 28.2133 106.812 28.9333 108.332 29.2L112.332 29.96C114.066 30.28 115.372 30.8667 116.252 31.72C117.159 32.5733 117.612 33.72 117.612 35.16C117.612 37.1067 116.852 38.64 115.332 39.76C113.812 40.8533 111.786 41.4 109.252 41.4Z" fill="#00730C"/>
</svg>
